BasicallyASansSerif-SemiBold.ufo
<glyph name="exclamation" format="2">
  <advance width="459.62850971922245"/>
  <unicode hex="0021"/>
  <outline>
    <contour>
      <point x="137.67603" y="358.93221" type="line"/>
      <point x="321.95248" y="358.93221" type="line"/>
      <point x="321.95248" y="1084.51944" type="line"/>
      <point x="137.67603" y="1084.51944" type="line"/>
    </contour>
    <contour>
      <point x="368.88985" y="122.35337" type="curve" smooth="yes"/>
      <point x="368.88985" y="199.11128"/>
      <point x="306.57216" y="261.42897"/>
      <point x="229.81425" y="261.42897" type="curve" smooth="yes"/>
      <point x="153.05635" y="261.42897"/>
      <point x="90.73866" y="199.11128"/>
      <point x="90.73866" y="122.35337" type="curve" smooth="yes"/>
      <point x="90.73866" y="45.59546"/>
      <point x="153.05635" y="-16.72222"/>
      <point x="229.81425" y="-16.72222" type="curve" smooth="yes"/>
      <point x="306.57216" y="-16.72222"/>
      <point x="368.88985" y="45.59546"/>
    </contour>
  </outline>
</glyph>
<glyph name="quote_dbl" format="2">
  <advance width="609.0353171155518"/>
  <unicode hex="0022"/>
  <outline>
    <contour>
      <point x="350.53084" y="773.56701" type="line"/>
      <point x="513.84331" y="773.56701" type="line"/>
      <point x="513.84331" y="1084.16377" type="line"/>
      <point x="350.53084" y="1084.16377" type="line"/>
    </contour>
    <contour>
      <point x="95.19201" y="773.56701" type="line"/>
      <point x="258.50447" y="773.56701" type="line"/>
      <point x="258.50447" y="1084.16377" type="line"/>
      <point x="95.19201" y="1084.16377" type="line"/>
    </contour>
  </outline>
</glyph>
<glyph name="quotedbl" format="2">
  <advance width="663.6385751520417"/>
  <unicode hex="0022"/>
  <outline>
    <contour>
      <point x="388.118158123371" y="781.8505647263249" type="line"/>
      <point x="567.3362293657689" y="781.8505647263249" type="line"/>
      <point x="567.3362293657689" y="1096.6550825369243" type="line"/>
      <point x="388.118158123371" y="1096.6550825369243" type="line"/>
    </contour>
    <contour>
      <point x="96.30234578627281" y="781.8505647263249" type="line"/>
      <point x="275.52041702867075" y="781.8505647263249" type="line"/>
      <point x="275.52041702867075" y="1096.6550825369243" type="line"/>
      <point x="96.30234578627281" y="1096.6550825369243" type="line"/>
    </contour>
  </outline>
</glyph>
<glyph name="numbersign" format="2">
  <advance width="960.1016637277277"/>
  <unicode hex="0023"/>
  <outline>
    <contour>
      <point x="112.83834075927734" y="0" type="line"/>
      <point x="295.41078186035156" y="0" type="line"/>
      <point x="342.1633834838867" y="240.5212860107422" type="line"/>
      <point x="501.5127487182617" y="240.5212860107422" type="line"/>
      <point x="454.76014709472656" y="0" type="line"/>
      <point x="637.3325881958008" y="0" type="line"/>
      <point x="684.0851898193359" y="240.5212860107422" type="line"/>
      <point x="866.6585540771484" y="240.5212860107422" type="line"/>
      <point x="866.6585540771484" y="419.7393569946289" type="line"/>
      <point x="718.9216537475586" y="419.7393569946289" type="line"/>
      <point x="765.6742553710938" y="660.2606430053711" type="line"/>
      <point x="948.2476272583008" y="660.2606430053711" type="line"/>
      <point x="948.2476272583008" y="839.4787139892578" type="line"/>
      <point x="800.5107192993164" y="839.4787139892578" type="line"/>
      <point x="847.2633209228516" y="1080" type="line"/>
      <point x="664.6908798217773" y="1080" type="line"/>
      <point x="617.9382781982422" y="839.4787139892578" type="line"/>
      <point x="458.5889129638672" y="839.4787139892578" type="line"/>
      <point x="505.34151458740234" y="1080" type="line"/>
      <point x="322.7690734863281" y="1080" type="line"/>
      <point x="276.01647186279297" y="839.4787139892578" type="line"/>
      <point x="93.44310760498047" y="839.4787139892578" type="line"/>
      <point x="93.44310760498047" y="660.2606430053711" type="line"/>
      <point x="241.1800079345703" y="660.2606430053711" type="line"/>
      <point x="194.42740631103516" y="419.7393569946289" type="line"/>
      <point x="11.854042053222656" y="419.7393569946289" type="line"/>
      <point x="11.854042053222656" y="240.5212860107422" type="line"/>
      <point x="159.5909423828125" y="240.5212860107422" type="line"/>
    </contour>
    <contour>
      <point x="376.9998474121094" y="419.7393569946289" type="line"/>
      <point x="423.75244903564453" y="660.2606430053711" type="line"/>
      <point x="583.1018142700195" y="660.2606430053711" type="line"/>
      <point x="536.3492126464844" y="419.7393569946289" type="line"/>
    </contour>
  </outline>
</glyph>
<glyph name="dollar" format="2">
  <advance width="930.1198957428326"/>
  <unicode hex="0024"/>
  <outline>
    <contour>
      <point x="58.76976776123047" y="310.8231964111328" type="line"/>
      <point x="58.769765421372725" y="150.61054042204947"/>
      <point x="203.27445149887524" y="17.250724513688056"/>
      <point x="393.37271881103516" y="-9.930389404296875" type="curve"/>
      <point x="393.37271881103516" y="-112.59774017333984" type="line"/>
      <point x="536.7471771240234" y="-112.59774017333984" type="line"/>
      <point x="536.7471771240234" y="-9.930488586425781" type="line"/>
      <point x="726.845444243957" y="17.250724513687924"/>
      <point x="871.3501303214595" y="150.61054042204933"/>
      <point x="871.3501303214595" y="310.8231972198088" type="curve"/>
      <point x="871.3501303214598" y="465.00644404305626"/>
      <point x="737.5160782139402" y="594.3134622250324"/>
      <point x="558.0105047814232" y="628.0571945018089" type="curve"/>
      <point x="536.7471771240234" y="632.054313659668" type="line"/>
      <point x="536.7471771240234" y="906.8840713500977" type="line"/>
      <point x="611.1559188427007" y="887.7178031873713"/>
      <point x="663.9826238053867" y="839.562381838834"/>
      <point x="663.9826238053867" y="783.2515204170286" type="curve"/>
      <point x="843.2006988525391" y="783.2515182495117" type="line"/>
      <point x="843.2006950477845" y="935.1056834547339"/>
      <point x="711.2188623434349" y="1061.746664671517"/>
      <point x="536.7471771240234" y="1089.3862762451172" type="curve"/>
      <point x="536.7471771240234" y="1192.5977401733398" type="line"/>
      <point x="393.37271881103516" y="1192.5977401733398" type="line"/>
      <point x="393.37271881103516" y="1089.394287109375" type="line"/>
      <point x="218.90103339939748" y="1061.746664671517"/>
      <point x="86.9192006950478" y="935.105683454734"/>
      <point x="86.91920069504785" y="783.2515204170286" type="curve"/>
      <point x="86.91920069504789" y="634.99992177711"/>
      <point x="212.71357887964876" y="510.78203585835496"/>
      <point x="381.02832550923796" y="479.2448315259998" type="curve"/>
      <point x="393.37271881103516" y="476.9318618774414" type="line"/>
      <point x="393.37271881103516" y="171.69515228271484" type="line"/>
      <point x="303.1317008832444" y="191.0821286142667"/>
      <point x="237.98783666377065" y="246.079717873987"/>
      <point x="237.98783666377065" y="310.8231972198089" type="curve"/>
    </contour>
    <contour>
      <point x="266.1372719374458" y="783.2515235987049" type="curve"/>
      <point x="266.1372719374457" y="839.562381838834"/>
      <point x="318.9639769001317" y="887.7178031873713"/>
      <point x="393.37271881103516" y="906.8919372558594" type="curve"/>
      <point x="393.37271881103516" y="659.6188049316406" type="line"/>
      <point x="318.96159993601105" y="678.7707208228496"/>
      <point x="266.1372719374458" y="726.9404984267062"/>
    </contour>
    <contour>
      <point x="692.1320590790617" y="310.8231972198089" type="curve"/>
      <point x="692.1320590790617" y="246.07971787398697"/>
      <point x="626.9881948595879" y="191.08212861426668"/>
      <point x="536.7471771240234" y="171.69649505615234" type="curve"/>
      <point x="536.7471771240234" y="449.9426040649414" type="line"/>
      <point x="626.9934847035145" y="430.5942369841856"/>
      <point x="692.1320590790618" y="375.56681858407865"/>
    </contour>
  </outline>
</glyph>
<glyph name="percent" format="2">
  <advance width="1247.359563112821"/>
  <unicode hex="0025"/>
  <outline>
    <contour>
      <point x="587.5993545984858" y="821.2020603202184" type="curve" smooth="yes"/>
      <point x="587.5993545984858" y="972.3152556745439"/>
      <point x="464.91461027302967" y="1095.0"/>
      <point x="313.80141491870427" y="1095.0" type="curve" smooth="yes"/>
      <point x="162.6882195643788" y="1095.0"/>
      <point x="40.00347523892269" y="972.3152556745439"/>
      <point x="40.00347523892269" y="821.2020603202184" type="curve" smooth="yes"/>
      <point x="40.00347523892269" y="670.088864965893"/>
      <point x="162.68821956437878" y="547.4041206404369"/>
      <point x="313.8014149187042" y="547.4041206404369" type="curve" smooth="yes"/>
      <point x="464.91461027302955" y="547.4041206404369"/>
      <point x="587.5993545984857" y="670.088864965893"/>
    </contour>
    <contour>
      <point x="126.99845946546591" y="0.0" type="line"/>
      <point x="306.52272953633735" y="0.0" type="line"/>
      <point x="1120.3611036473553" y="1080.0" type="line"/>
      <point x="940.8368335764836" y="1080.0" type="line"/>
    </contour>
    <contour>
      <point x="408.3812833560878" y="821.2020603202184" type="curve" smooth="yes"/>
      <point x="408.3812833560878" y="769.0020103400025"/>
      <point x="366.0014648989202" y="726.6221918828347"/>
      <point x="313.80141491870427" y="726.6221918828347" type="curve" smooth="yes"/>
      <point x="261.60136493848825" y="726.6221918828347"/>
      <point x="219.22154648132062" y="769.0020103400025"/>
      <point x="219.22154648132062" y="821.2020603202184" type="curve" smooth="yes"/>
      <point x="219.22154648132062" y="873.4021103004344"/>
      <point x="261.60136493848825" y="915.781928757602"/>
      <point x="313.80141491870427" y="915.781928757602" type="curve" smooth="yes"/>
      <point x="366.0014648989202" y="915.781928757602"/>
      <point x="408.3812833560878" y="873.4021103004344"/>
    </contour>
    <contour>
      <point x="1207.3560878738983" y="258.79793967978156" type="curve" smooth="yes"/>
      <point x="1207.3560878738983" y="409.911135034107"/>
      <point x="1084.6713435484423" y="532.5958793595631"/>
      <point x="933.5581481941168" y="532.5958793595631" type="curve" smooth="yes"/>
      <point x="782.4449528397914" y="532.5958793595631"/>
      <point x="659.7602085143353" y="409.911135034107"/>
      <point x="659.7602085143353" y="258.79793967978156" type="curve" smooth="yes"/>
      <point x="659.7602085143353" y="107.68474432545617"/>
      <point x="782.4449528397914" y="-14.999999999999975"/>
      <point x="933.5581481941168" y="-14.999999999999975" type="curve" smooth="yes"/>
      <point x="1084.6713435484423" y="-15.000000000000028"/>
      <point x="1207.3560878738983" y="107.68474432545608"/>
    </contour>
    <contour>
      <point x="1028.1380166315005" y="258.79793967978156" type="curve" smooth="yes"/>
      <point x="1028.1380166315005" y="206.5978896995656"/>
      <point x="985.7581981743328" y="164.21807124239794"/>
      <point x="933.5581481941168" y="164.21807124239794" type="curve" smooth="yes"/>
      <point x="881.3580982139009" y="164.21807124239794"/>
      <point x="838.9782797567333" y="206.59788969956563"/>
      <point x="838.9782797567333" y="258.79793967978156" type="curve" smooth="yes"/>
      <point x="838.9782797567333" y="310.99798965999753"/>
      <point x="881.3580982139009" y="353.3778081171652"/>
      <point x="933.5581481941168" y="353.3778081171652" type="curve" smooth="yes"/>
      <point x="985.7581981743328" y="353.3778081171652"/>
      <point x="1028.1380166315005" y="310.99798965999753"/>
    </contour>
  </outline>
</glyph>
<glyph name="ampersand" format="2">
  <advance width="1042.4064840326748"/>
  <unicode hex="0026"/>
  <outline>
    <contour>
      <point x="380.6025695800781" y="761.5597915649414" type="line"/>
      <point x="366.04494" y="778.49502"/>
      <point x="358.03997" y="800.08745"/>
      <point x="358.03997" y="822.41964" type="curve"/>
      <point x="358.03997" y="873.94769"/>
      <point x="399.87421" y="915.78193"/>
      <point x="451.40226" y="915.78193" type="curve" smooth="yes"/>
      <point x="502.93031" y="915.78193"/>
      <point x="544.76455" y="873.94769"/>
      <point x="544.76455" y="822.41964" type="curve"/>
      <point x="544.76455" y="781.87824"/>
      <point x="518.70296" y="744.73004"/>
      <point x="477.28865" y="726.2912" type="curve"/>
      <point x="429.28983306884766" y="704.9207534790039" type="line"/>
    </contour>
    <contour>
      <point x="433.62641" y="164.21806999999998" type="curve"/>
      <point x="322.87222" y="164.21807"/>
      <point x="233.29626" y="235.59127"/>
      <point x="233.29626" y="323.26238" type="curve"/>
      <point x="233.29626" y="385.72084630937"/>
      <point x="286.7954539739634" y="445.2132376154624"/>
      <point x="380.3333435058594" y="486.94278717041016" type="curve"/>
      <point x="602.6963043212891" y="228.26272583007812" type="line"/>
      <point x="553.6418646650233" y="187.6732822776837"/>
      <point x="495.66461573762" y="164.21806999999998"/>
    </contour>
    <contour>
      <point x="54.078190000000006" y="323.26238" type="curve"/>
      <point x="54.07819" y="136.68448"/>
      <point x="224.01996" y="-15.0"/>
      <point x="433.62641" y="-15.0" type="curve"/>
      <point x="539.61456644648" y="-15.0"/>
      <point x="637.982050071331" y="24.991317862106918"/>
      <point x="718.8283309936523" y="93.16360473632812" type="curve"/>
      <point x="798.9123382568359" y="0" type="line"/>
      <point x="1035.2440185546875" y="0" type="line"/>
      <point x="836.1321640014648" y="231.63150787353516" type="line"/>
      <point x="896.2597875516919" y="330.76480281087544"/>
      <point x="931.78345" y="452.93771710780004"/>
      <point x="931.7834500000001" y="585.11915" type="curve"/>
      <point x="752.5653762817383" y="585.1191482543945" type="line"/>
      <point x="752.56538" y="509.48644670804"/>
      <point x="737.4307157566462" y="438.54117036807867"/>
      <point x="710.9618072509766" y="377.2451171875" type="curve"/>
      <point x="551.2424545288086" y="563.0503997802734" type="line"/>
      <point x="656.22696" y="609.78107"/>
      <point x="723.98262" y="711.10628"/>
      <point x="723.98262" y="822.41964" type="curve"/>
      <point x="723.98262" y="972.86083"/>
      <point x="601.84346" y="1095.0"/>
      <point x="451.40226" y="1095.0" type="curve" smooth="yes"/>
      <point x="300.96106" y="1095.0"/>
      <point x="178.82189" y="972.86083"/>
      <point x="178.82189" y="822.41964" type="curve"/>
      <point x="178.82189" y="757.21863"/>
      <point x="202.19319" y="694.17741"/>
      <point x="244.69562" y="644.73334" type="curve"/>
      <point x="260.0360794067383" y="626.8874206542969" type="line"/>
      <point x="130.8608242061707" y="554.3606972382236"/>
      <point x="54.07819000000002" y="442.55969463518005"/>
    </contour>
  </outline>
</glyph>
<glyph name="quote" format="2">
  <advance width="353.6964813205908"/>
  <unicode hex="0027"/>
  <outline>
    <contour>
      <point x="95.19201" y="773.56701" type="line"/>
      <point x="258.50447" y="773.56701" type="line"/>
      <point x="258.50447" y="1084.16377" type="line"/>
      <point x="95.19201" y="1084.16377" type="line"/>
    </contour>
  </outline>
</glyph>
<glyph name="quotesingle" format="2">
  <advance width="371.82276281494353"/>
  <unicode hex="0027"/>
  <outline>
    <contour>
      <point x="96.30234578627281" y="781.8505647263249" type="line"/>
      <point x="275.52041702867075" y="781.8505647263249" type="line"/>
      <point x="275.52041702867075" y="1096.6550825369243" type="line"/>
      <point x="96.30234578627281" y="1096.6550825369243" type="line"/>
    </contour>
  </outline>
</glyph>
<glyph name="parenleft" format="2">
  <advance width="517.0591451255112"/>
  <unicode hex="0028"/>
  <outline>
    <contour>
      <point x="487.54915" y="-89.60904" type="line"/>
      <point x="247.15173" y="318.93206"/>
      <point x="247.15173" y="825.69435"/>
      <point x="487.54915" y="1234.23545" type="curve"/>
      <point x="283.77402" y="1234.23545" type="line"/>
      <point x="76.11954" y="817.60244"/>
      <point x="76.11935" y="327.02492"/>
      <point x="283.77345" y="-89.60904" type="curve"/>
    </contour>
  </outline>
</glyph>
<glyph name="parenright" format="2">
  <advance width="517.0591451255112"/>
  <unicode hex="0029"/>
  <outline>
    <contour>
      <point x="29.50999" y="-89.60904" type="curve"/>
      <point x="233.28569" y="-89.60904" type="line"/>
      <point x="440.9398" y="327.02492"/>
      <point x="440.93961" y="817.60244"/>
      <point x="233.28512" y="1234.23545" type="curve"/>
      <point x="29.50999" y="1234.23545" type="line"/>
      <point x="269.90742" y="825.69435"/>
      <point x="269.90742" y="318.93206"/>
    </contour>
  </outline>
</glyph>
<glyph name="asterisk" format="2">
  <advance width="812.3644967678008"/>
  <unicode hex="002A"/>
  <outline>
    <contour>
      <point x="321.9165725708008" y="398.255859375" type="line"/>
      <point x="490.4479293823242" y="398.255859375" type="line"/>
      <point x="490.4479293823242" y="595.2573776245117" type="line"/>
      <point x="661.0562362670898" y="496.7566223144531" type="line"/>
      <point x="745.3219299316406" y="642.7090606689453" type="line"/>
      <point x="574.7136154174805" y="741.2098159790039" type="line"/>
      <point x="745.3219299316406" y="839.7105712890625" type="line"/>
      <point x="661.0562362670898" y="985.6630172729492" type="line"/>
      <point x="490.4479293823242" y="887.1622619628906" type="line"/>
      <point x="490.4479293823242" y="1084.1637725830078" type="line"/>
      <point x="321.9165725708008" y="1084.1637725830078" type="line"/>
      <point x="321.9165725708008" y="887.1622543334961" type="line"/>
      <point x="151.3082504272461" y="985.6630172729492" type="line"/>
      <point x="67.04257202148438" y="839.7105712890625" type="line"/>
      <point x="237.65088653564453" y="741.2098159790039" type="line"/>
      <point x="67.04257202148438" y="642.7090606689453" type="line"/>
      <point x="151.3082504272461" y="496.7566223144531" type="line"/>
      <point x="321.9165725708008" y="595.2573776245117" type="line"/>
    </contour>
  </outline>
</glyph>
<glyph name="plus" format="2">
  <advance width="988.8896611642051"/>
  <unicode hex="002B"/>
  <outline>
    <contour>
      <point x="95.19200897216797" y="403.4752426147461" type="line"/>
      <point x="404.8357925415039" y="403.4752426147461" type="line"/>
      <point x="404.8357925415039" y="93.83145141601562" type="line"/>
      <point x="584.0538711547852" y="93.83145141601562" type="line"/>
      <point x="584.0538711547852" y="403.4752426147461" type="line"/>
      <point x="893.6976470947266" y="403.4752426147461" type="line"/>
      <point x="893.6976470947266" y="582.6933135986328" type="line"/>
      <point x="584.0538711547852" y="582.6933135986328" type="line"/>
      <point x="584.0538711547852" y="892.3370971679688" type="line"/>
      <point x="404.8357925415039" y="892.3370971679688" type="line"/>
      <point x="404.8357925415039" y="582.6933135986328" type="line"/>
      <point x="95.19200897216797" y="582.6933135986328" type="line"/>
    </contour>
  </outline>
</glyph>
<glyph name="comma" format="2">
  <advance width="413.62627685425053"/>
  <unicode hex="002C"/>
  <outline>
    <contour>
      <point x="218.66873931884766" y="-241.8505630493164" type="line"/>
      <point x="271.0048975575525" y="-151.2016815953604"/>
      <point x="298.5576408855278" y="-48.37344360745241"/>
      <point x="298.5576408855277" y="56.29887054735013" type="curve"/>
      <point x="298.5576400756836" y="202.20677947998047" type="line"/>
      <point x="119.33956909179688" y="202.20677947998047" type="line"/>
      <point x="119.33956909179688" y="56.29887390136719" type="line"/>
      <point x="119.33956964312978" y="-16.914101351642294"/>
      <point x="100.06782391648144" y="-88.83723555404224"/>
      <point x="63.461337966985226" y="-152.24152910512595" type="curve"/>
    </contour>
  </outline>
</glyph>
<glyph name="hyphen" format="2">
  <advance width="799.2250217202431"/>
  <unicode hex="002D"/>
  <outline>
    <contour>
      <point x="96.30235" y="403.47524" type="line"/>
      <point x="702.92268" y="403.47524" type="line"/>
      <point x="702.92268" y="582.69331" type="line"/>
      <point x="96.30235" y="582.69331" type="line"/>
    </contour>
  </outline>
</glyph>
<glyph name="period" format="2">
  <advance width="409.01129452649866"/>
  <unicode hex="002E"/>
  <outline>
    <contour>
      <point x="327.89401" y="106.81058" type="curve" smooth="yes"/>
      <point x="327.89401" y="174.91047"/>
      <point x="272.60554" y="230.19894"/>
      <point x="204.50565" y="230.19894" type="curve" smooth="yes"/>
      <point x="136.40576" y="230.19894"/>
      <point x="81.11729" y="174.91047"/>
      <point x="81.11729" y="106.81058" type="curve" smooth="yes"/>
      <point x="81.11729" y="38.71069"/>
      <point x="136.40576" y="-16.57778"/>
      <point x="204.50565" y="-16.57778" type="curve" smooth="yes"/>
      <point x="272.60554" y="-16.57778"/>
      <point x="327.89401" y="38.71069"/>
    </contour>
  </outline>
</glyph>
<glyph name="slash" format="2">
  <advance width="841.2108485653655"/>
  <unicode hex="002F"/>
  <outline>
    <contour>
      <point x="95.19201" y="-56.29887" type="line"/>
      <point x="285.91189" y="-56.29887" type="line"/>
      <point x="788.24299" y="1323.84448" type="line"/>
      <point x="597.52311" y="1323.84448" type="line"/>
    </contour>
  </outline>
</glyph>
<glyph name="zero" format="2">
  <advance width="929.619461337967"/>
  <unicode hex="0030"/>
  <outline>
    <contour>
      <point x="669.284103199601" y="387.11466217041016" type="line"/>
      <point x="669.2841048606082" y="215.83596745812181"/>
      <point x="544.1011636636449" y="162.64029"/>
      <point x="464.80973" y="162.64029" type="curve" smooth="yes"/>
      <point x="385.51830022932893" y="162.64029"/>
      <point x="260.335361008995" y="215.83596305469567"/>
      <point x="260.33535986660445" y="387.11466" type="curve"/>
      <point x="260.33535779941116" y="697.0491104125977" type="line"/>
      <point x="260.3353566570206" y="868.327805124886"/>
      <point x="385.5182963363551" y="921.52348"/>
      <point x="464.80973" y="921.52348" type="curve" smooth="yes"/>
      <point x="544.1011597706711" y="921.52348"/>
      <point x="669.2840985329465" y="868.3278069453044"/>
      <point x="669.2841001939537" y="697.04911" type="curve"/>
    </contour>
    <contour>
      <point x="81.11728687175706" y="387.11466217041016" type="line"/>
      <point x="81.11728435476985" y="121.64909332982876"/>
      <point x="279.1659436547347" y="-16.57777999999998"/>
      <point x="464.80973" y="-16.57778" type="curve" smooth="yes"/>
      <point x="650.4535163452654" y="-16.57778"/>
      <point x="848.5021722811201" y="121.6490922446236"/>
      <point x="848.5021698141393" y="387.11466" type="curve"/>
      <point x="848.5021669339076" y="697.0491104125977" type="line"/>
      <point x="848.5021644669267" y="962.5146792531791"/>
      <point x="650.4535163452654" y="1100.74155"/>
      <point x="464.80973" y="1100.74155" type="curve" smooth="yes"/>
      <point x="279.1659436547347" y="1100.74155"/>
      <point x="81.11729232735907" y="962.5146777553764"/>
      <point x="81.11728981037184" y="697.04911" type="curve"/>
    </contour>
  </outline>
</glyph>
<glyph name="one" format="2">
  <advance width="711.7580993520519"/>
  <unicode hex="0031"/>
  <outline>
    <contour>
      <point x="315.44708251953125" y="0" type="line"/>
      <point x="499.7235412597656" y="0" type="line"/>
      <point x="499.7235412597656" y="1084.5194396972656" type="line"/>
      <point x="315.44708251953125" y="1084.5194396972656" type="line"/>
      <point x="123.39524841308594" y="982.1347885131836" type="line"/>
      <point x="123.39524841308594" y="779.7850570678711" type="line"/>
      <point x="315.44708251953125" y="882.1697082519531" type="line"/>
    </contour>
  </outline>
</glyph>
<glyph name="two" format="2">
  <advance width="904.4413553431798"/>
  <unicode hex="0032"/>
  <outline>
    <contour>
      <point x="101.60382080078125" y="0" type="line"/>
      <point x="818.6324920654297" y="0" type="line"/>
      <point x="818.6324920654297" y="179.21807098388672" type="line"/>
      <point x="372.6617431640625" y="179.21807098388672" type="line"/>
      <point x="680.2750943152612" y="450.31964318511075" type="line"/>
      <point x="716.8646142230236" y="482.56621615068644"/>
      <point x="818.63249" y="577.0107320848633"/>
      <point x="818.63249" y="736.67552" type="curve"/>
      <point x="818.63249" y="937.6090300000001"/>
      <point x="655.4999700000001" y="1100.74155"/>
      <point x="454.56646" y="1100.74155" type="curve" smooth="yes"/>
      <point x="253.63295" y="1100.74155"/>
      <point x="90.50043" y="937.60903"/>
      <point x="90.50043" y="736.67552" type="curve"/>
      <point x="269.71851348876953" y="736.6755218505859" type="line"/>
      <point x="269.71851" y="838.69588"/>
      <point x="352.5461" y="921.52348"/>
      <point x="454.56646" y="921.52348" type="curve" smooth="yes"/>
      <point x="556.5868300000001" y="921.52348"/>
      <point x="639.41442" y="838.69589"/>
      <point x="639.41442" y="736.67552" type="curve"/>
      <point x="639.41442" y="655.6588259869878"/>
      <point x="588.1288147446135" y="607.9955742845758"/>
      <point x="561.7796938149057" y="584.7739301202632" type="curve"/>
      <point x="101.60382080078125" y="179.21807098388672" type="line"/>
    </contour>
  </outline>
</glyph>
<glyph name="three" format="2">
  <advance width="916.0451781059948"/>
  <unicode hex="0033"/>
  <outline>
    <contour>
      <point x="82.22763061523438" y="315.12621307373047" type="line"/>
      <point x="82.22763" y="132.9246"/>
      <point x="251.66682" y="-15.0"/>
      <point x="460.36838" y="-15.0" type="curve" smooth="yes"/>
      <point x="669.06993" y="-15.0"/>
      <point x="838.50912" y="132.9246"/>
      <point x="838.50912" y="315.12621" type="curve"/>
      <point x="838.50912" y="411.6347640816"/>
      <point x="790.971107951675" y="498.52652650041716"/>
      <point x="715.2401733398438" y="558.9013442993164" type="curve"/>
      <point x="779.8174191092874" y="615.762755497498"/>
      <point x="819.74283" y="694.0920496219301"/>
      <point x="819.7428299999999" y="780.5171800000002" type="curve"/>
      <point x="819.74283" y="954.08497"/>
      <point x="658.71254" y="1095.0"/>
      <point x="460.36838" y="1095.0" type="curve" smooth="yes"/>
      <point x="262.02421" y="1095.0"/>
      <point x="100.99392" y="954.08497"/>
      <point x="100.99392" y="780.51718" type="curve"/>
      <point x="280.2119903564453" y="780.5171813964844" type="line"/>
      <point x="280.21199" y="855.17183"/>
      <point x="360.93736" y="915.78193"/>
      <point x="460.36838" y="915.78193" type="curve" smooth="yes"/>
      <point x="559.79939" y="915.78193"/>
      <point x="640.52476" y="855.17183"/>
      <point x="640.52476" y="780.51718" type="curve"/>
      <point x="640.52476" y="705.86253"/>
      <point x="559.79939" y="645.25243"/>
      <point x="460.36838" y="645.25243" type="curve"/>
      <point x="370.75933837890625" y="645.2524337768555" type="line"/>
      <point x="370.75933837890625" y="466.03436279296875" type="line"/>
      <point x="460.3683776855469" y="466.03436279296875" type="line"/>
      <point x="570.15679" y="466.03436"/>
      <point x="659.29105" y="398.41469"/>
      <point x="659.29105" y="315.12621" type="curve"/>
      <point x="659.29105" y="231.83774"/>
      <point x="570.15679" y="164.21807"/>
      <point x="460.36838" y="164.21807" type="curve" smooth="yes"/>
      <point x="350.57996" y="164.21807"/>
      <point x="261.4457" y="231.83774"/>
      <point x="261.4457" y="315.12621" type="curve"/>
    </contour>
  </outline>
</glyph>
<glyph name="four" format="2">
  <advance width="990.3110151187906"/>
  <unicode hex="0034"/>
  <outline>
    <contour>
      <point x="72.07775115966797" y="226.0627899169922" type="line"/>
      <point x="594" y="226.0627899169922" type="line"/>
      <point x="594" y="0" type="line"/>
      <point x="771.4172821044922" y="0" type="line"/>
      <point x="771.4172821044922" y="226.0627899169922" type="line"/>
      <point x="946.2246170043945" y="226.0627899169922" type="line"/>
      <point x="946.2246170043945" y="397.9768371582031" type="line"/>
      <point x="771.4172821044922" y="397.9768371582031" type="line"/>
      <point x="771.4172821044922" y="1084.5194396972656" type="line"/>
      <point x="560.7405090332031" y="1084.5194396972656" type="line"/>
      <point x="72.07775115966797" y="395.22522735595703" type="line"/>
    </contour>
    <contour>
      <point x="282.4630355834961" y="397.9768371582031" type="line"/>
      <point x="594" y="843.3151321411133" type="line"/>
      <point x="594" y="397.9768371582031" type="line"/>
    </contour>
  </outline>
</glyph>
<glyph name="five" format="2">
  <advance width="915.1976582968784"/>
  <unicode hex="0035"/>
  <outline>
    <contour>
      <point x="832.97003" y="363.14075" type="curve" smooth="yes"/>
      <point x="832.97003" y="571.84231"/>
      <point x="663.53084" y="741.28149"/>
      <point x="454.82928" y="741.28149" type="curve" smooth="yes"/>
      <point x="400.30528199208" y="741.28149"/>
      <point x="348.46107235074743" y="729.7166974315439"/>
      <point x="301.76715087890625" y="708.905387878418" type="curve"/>
      <point x="321.93418884277344" y="900.7819290161133" type="line"/>
      <point x="779.7060699462891" y="900.7819290161133" type="line"/>
      <point x="779.7060699462891" y="1080" type="line"/>
      <point x="160.56551361083984" y="1080" type="line"/>
      <point x="96.30235290527344" y="468.57679748535156" type="line"/>
      <point x="286.16287994384766" y="468.57679748535156" type="line"/>
      <point x="321.34719" y="524.71399"/>
      <point x="383.76094" y="562.06342"/>
      <point x="454.82928" y="562.06342" type="curve" smooth="yes"/>
      <point x="564.6177" y="562.06342"/>
      <point x="653.75196" y="472.92916"/>
      <point x="653.75196" y="363.14075" type="curve" smooth="yes"/>
      <point x="653.75196" y="253.35233"/>
      <point x="564.6177" y="164.21807"/>
      <point x="454.82928" y="164.21807" type="curve" smooth="yes"/>
      <point x="383.76654" y="164.21807"/>
      <point x="321.35702" y="201.56162"/>
      <point x="286.17105" y="257.7047" type="curve"/>
      <point x="91.61077117919922" y="257.70469665527344" type="line"/>
      <point x="137.30645" y="100.23594"/>
      <point x="282.71666" y="-15.0"/>
      <point x="454.82928" y="-15.0" type="curve" smooth="yes"/>
      <point x="663.53084" y="-15.0"/>
      <point x="832.97003" y="154.43919"/>
    </contour>
  </outline>
</glyph>
<glyph name="six" format="2">
  <advance width="883.204170286707"/>
  <unicode hex="0036"/>
  <outline>
    <contour>
      <point x="819.74283" y="363.14075" type="curve" smooth="yes"/>
      <point x="819.74283" y="571.84231"/>
      <point x="650.30364" y="741.28149"/>
      <point x="441.60209" y="741.28149" type="curve" smooth="yes"/>
      <point x="436.7208709716797" y="741.2461166381836" type="line"/>
      <point x="640.2647399902344" y="1080" type="line"/>
      <point x="431.1829605102539" y="1080" type="line"/>
      <point x="117.47219848632812" y="557.8976287841797" type="line"/>
      <point x="117.48030853271484" y="557.8927536010742" type="line"/>
      <point x="83.19187329710105" y="501.0042743466533"/>
      <point x="63.46133999999998" y="434.35848773752"/>
      <point x="63.46133999999998" y="363.1407500000001" type="curve" smooth="yes"/>
      <point x="63.46134" y="154.43919"/>
      <point x="232.90053" y="-15.0"/>
      <point x="441.60209" y="-15.0" type="curve" smooth="yes"/>
      <point x="650.30364" y="-15.0"/>
      <point x="819.74283" y="154.43919"/>
    </contour>
    <contour>
      <point x="640.52476" y="363.14075" type="curve" smooth="yes"/>
      <point x="640.52476" y="253.35233"/>
      <point x="551.3905" y="164.21807"/>
      <point x="441.60209" y="164.21807" type="curve" smooth="yes"/>
      <point x="331.81367" y="164.21807"/>
      <point x="242.67941" y="253.35233"/>
      <point x="242.67941" y="363.14075" type="curve" smooth="yes"/>
      <point x="242.67941" y="472.92916"/>
      <point x="331.81367" y="562.06342"/>
      <point x="441.60209" y="562.06342" type="curve" smooth="yes"/>
      <point x="551.3905" y="562.06342"/>
      <point x="640.52476" y="472.92916"/>
    </contour>
  </outline>
</glyph>
<glyph name="seven" format="2">
  <advance width="845.6715899218071"/>
  <unicode hex="0037"/>
  <outline>
    <contour>
      <point x="182.00173950195312" y="0" type="line"/>
      <point x="378.7582778930664" y="0" type="line"/>
      <point x="786.9018173217773" y="900.7819290161133" type="line"/>
      <point x="786.9018173217773" y="1080" type="line"/>
      <point x="58.76976776123047" y="1080" type="line"/>
      <point x="58.76976776123047" y="900.7819290161133" type="line"/>
      <point x="590.1452865600586" y="900.7819290161133" type="line"/>
    </contour>
  </outline>
</glyph>
<glyph name="eight" format="2">
  <advance width="923.2076455256298"/>
  <unicode hex="0038"/>
  <outline>
    <contour>
      <point x="846.78193" y="319.28284" type="curve" smooth="yes"/>
      <point x="846.78193" y="419.57600651272"/>
      <point x="797.465700910167" y="509.0772634612648"/>
      <point x="718.5530853271484" y="570.4056549072266" type="curve"/>
      <point x="780.6832576273591" y="626.5112771573387"/>
      <point x="818.63249" y="703.2349388178"/>
      <point x="818.63249" y="788.33346" type="curve" smooth="yes"/>
      <point x="818.63249" y="961.97132"/>
      <point x="660.63588" y="1100.74155"/>
      <point x="461.60382" y="1100.74155" type="curve" smooth="yes"/>
      <point x="262.57177" y="1100.74155"/>
      <point x="104.57515" y="961.97132"/>
      <point x="104.57515" y="788.33346" type="curve" smooth="yes"/>
      <point x="104.57515" y="703.23511245565"/>
      <point x="142.5242299089416" y="626.5115902563904"/>
      <point x="204.65425872802734" y="570.4054183959961" type="curve"/>
      <point x="125.74176268018589" y="509.07693039859413"/>
      <point x="76.42572000000007" y="419.57581990133997"/>
      <point x="76.42572000000007" y="319.28283999999996" type="curve" smooth="yes"/>
      <point x="76.42572" y="132.67146"/>
      <point x="247.16105" y="-16.57778"/>
      <point x="461.60382" y="-16.57778" type="curve" smooth="yes"/>
      <point x="676.04659" y="-16.57778"/>
      <point x="846.78193" y="132.67146"/>
    </contour>
    <contour>
      <point x="639.41442" y="788.33346" type="curve" smooth="yes"/>
      <point x="639.41442" y="714.93637"/>
      <point x="559.89041" y="655.14345"/>
      <point x="461.60382" y="655.14345" type="curve" smooth="yes"/>
      <point x="363.31724" y="655.14345"/>
      <point x="283.79322" y="714.93637"/>
      <point x="283.79322" y="788.33346" type="curve" smooth="yes"/>
      <point x="283.79322" y="861.73056"/>
      <point x="363.31724" y="921.52348"/>
      <point x="461.60382" y="921.52348" type="curve" smooth="yes"/>
      <point x="559.89041" y="921.52348"/>
      <point x="639.41442" y="861.73056"/>
    </contour>
    <contour>
      <point x="667.56386" y="319.28284" type="curve" smooth="yes"/>
      <point x="667.56386" y="232.95485"/>
      <point x="575.42837" y="162.64029"/>
      <point x="461.60382" y="162.64029" type="curve" smooth="yes"/>
      <point x="347.77927" y="162.64029"/>
      <point x="255.64379" y="232.95485"/>
      <point x="255.64379" y="319.28284" type="curve" smooth="yes"/>
      <point x="255.64379" y="405.61082"/>
      <point x="347.77927" y="475.92538"/>
      <point x="461.60382" y="475.92538" type="curve" smooth="yes"/>
      <point x="575.42837" y="475.92538"/>
      <point x="667.56386" y="405.61082"/>
    </contour>
  </outline>
</glyph>
<glyph name="nine" format="2">
  <advance width="883.204170286707"/>
  <unicode hex="0039"/>
  <outline>
    <contour>
      <point x="819.742832319722" y="716.8592528236317" type="curve" smooth="yes"/>
      <point x="819.7428323197219" y="925.5608108642919"/>
      <point x="650.3036431840138" y="1095.0"/>
      <point x="441.6020851433536" y="1095.0" type="curve" smooth="yes"/>
      <point x="232.90052710269333" y="1095.0"/>
      <point x="63.46133796698523" y="925.5608108642919"/>
      <point x="63.46133796698523" y="716.8592528236316" type="curve" smooth="yes"/>
      <point x="63.46133796698523" y="508.15769478297136"/>
      <point x="232.90052710269325" y="338.7185056472632"/>
      <point x="441.6020851433536" y="338.7185056472632" type="curve" smooth="yes"/>
      <point x="446.48329162597656" y="338.7538833618164" type="line"/>
      <point x="242.9394302368164" y="0" type="line"/>
      <point x="452.0212173461914" y="0" type="line"/>
      <point x="765.7319717407227" y="522.1023712158203" type="line"/>
      <point x="765.7238616943359" y="522.1072463989258" type="line"/>
      <point x="800.0122991232643" y="578.9957285222213"/>
      <point x="819.742832319722" y="645.6415157547207"/>
    </contour>
    <contour>
      <point x="640.524761077324" y="716.8592528236316" type="curve" smooth="yes"/>
      <point x="640.524761077324" y="607.0708401570806"/>
      <point x="551.3904978099043" y="517.9365768896611"/>
      <point x="441.6020851433536" y="517.9365768896611" type="curve" smooth="yes"/>
      <point x="331.81367247680276" y="517.9365768896611"/>
      <point x="242.67940920938312" y="607.0708401570807"/>
      <point x="242.67940920938315" y="716.8592528236316" type="curve" smooth="yes"/>
      <point x="242.67940920938315" y="826.6476654901824"/>
      <point x="331.8136724768028" y="915.781928757602"/>
      <point x="441.6020851433536" y="915.781928757602" type="curve" smooth="yes"/>
      <point x="551.3904978099043" y="915.781928757602"/>
      <point x="640.524761077324" y="826.6476654901824"/>
    </contour>
  </outline>
</glyph>
<glyph name="colon" format="2">
  <advance width="411.23197219808867"/>
  <unicode hex="003A"/>
  <outline>
    <contour>
      <point x="329.00434404865337" y="690.1172893136403" type="curve" smooth="yes"/>
      <point x="329.00434404865337" y="758.2171773591658"/>
      <point x="273.71587414456997" y="813.5056472632493"/>
      <point x="205.6159860990443" y="813.5056472632493" type="curve" smooth="yes"/>
      <point x="137.5160980535187" y="813.5056472632493"/>
      <point x="82.22762814943528" y="758.2171773591658"/>
      <point x="82.22762814943528" y="690.1172893136403" type="curve" smooth="yes"/>
      <point x="82.22762814943528" y="622.0174012681147"/>
      <point x="137.51609805351865" y="566.7289313640313"/>
      <point x="205.61598609904428" y="566.7289313640313" type="curve" smooth="yes"/>
      <point x="273.7158741445699" y="566.7289313640313"/>
      <point x="329.00434404865337" y="622.0174012681146"/>
    </contour>
    <contour>
      <point x="329.00434404865337" y="108.38835794960903" type="curve" smooth="yes"/>
      <point x="329.00434404865337" y="176.48824599513466"/>
      <point x="273.71587414456997" y="231.77671589921806"/>
      <point x="205.6159860990443" y="231.77671589921806" type="curve" smooth="yes"/>
      <point x="137.5160980535187" y="231.77671589921806"/>
      <point x="82.22762814943528" y="176.48824599513466"/>
      <point x="82.22762814943528" y="108.38835794960904" type="curve" smooth="yes"/>
      <point x="82.22762814943528" y="40.288469904083414"/>
      <point x="137.51609805351865" y="-15.000000000000002"/>
      <point x="205.61598609904428" y="-15.000000000000002" type="curve" smooth="yes"/>
      <point x="273.7158741445699" y="-15.000000000000002"/>
      <point x="329.00434404865337" y="40.28846990408337"/>
    </contour>
  </outline>
</glyph>
<glyph name="semicolon" format="2">
  <advance width="414.5645913633731"/>
  <unicode hex="003B"/>
  <outline>
    <contour>
      <point x="332.3369632139378" y="690.1172893136403" type="curve" smooth="yes"/>
      <point x="332.3369632139378" y="758.2171773591658"/>
      <point x="277.04849330985434" y="813.5056472632493"/>
      <point x="208.94860526432873" y="813.5056472632493" type="curve" smooth="yes"/>
      <point x="140.84871721880313" y="813.5056472632493"/>
      <point x="85.5602473147197" y="758.2171773591658"/>
      <point x="85.5602473147197" y="690.1172893136403" type="curve" smooth="yes"/>
      <point x="85.5602473147197" y="622.0174012681147"/>
      <point x="140.8487172188031" y="566.7289313640313"/>
      <point x="208.94860526432873" y="566.7289313640313" type="curve" smooth="yes"/>
      <point x="277.04849330985434" y="566.7289313640313"/>
      <point x="332.3369632139378" y="622.0174012681146"/>
    </contour>
    <contour>
      <point x="218.66873931884766" y="-241.8505630493164" type="line"/>
      <point x="271.0048975575525" y="-151.2016815953604"/>
      <point x="298.5576408855278" y="-48.37344360745241"/>
      <point x="298.5576408855277" y="56.29887054735013" type="curve"/>
      <point x="298.5576400756836" y="202.20677947998047" type="line"/>
      <point x="119.33956909179688" y="202.20677947998047" type="line"/>
      <point x="119.33956909179688" y="56.29887390136719" type="line"/>
      <point x="119.33956964312978" y="-16.914101351642294"/>
      <point x="100.06782391648144" y="-88.83723555404224"/>
      <point x="63.46133796698523" y="-152.24152910512595" type="curve"/>
    </contour>
  </outline>
</glyph>
<glyph name="less" format="2">
  <advance width="903.0794748920086"/>
  <unicode hex="003C"/>
  <outline>
    <contour>
      <point x="812.3408126831055" y="57.14903259277344" type="line"/>
      <point x="812.3408126831055" y="256.68531799316406" type="line"/>
      <point x="313.5926818847656" y="493.3477325439453" type="line"/>
      <point x="812.3408126831055" y="730.0101470947266" type="line"/>
      <point x="812.3408126831055" y="929.5464401245117" type="line"/>
      <point x="90.73866271972656" y="583.7711715698242" type="line"/>
      <point x="90.73866271972656" y="402.92430114746094" type="line"/>
    </contour>
  </outline>
</glyph>
<glyph name="equal" format="2">
  <advance width="999.6414686825055"/>
  <unicode hex="003D"/>
  <outline>
    <contour>
      <point x="90.73866" y="572.80238" type="line"/>
      <point x="908.90281" y="572.80238" type="line"/>
      <point x="908.90281" y="753.64924" type="line"/>
      <point x="90.73866" y="753.64924" type="line"/>
    </contour>
    <contour>
      <point x="90.73866" y="233.04622" type="line"/>
      <point x="908.90281" y="233.04622" type="line"/>
      <point x="908.90281" y="413.89309" type="line"/>
      <point x="90.73866" y="413.89309" type="line"/>
    </contour>
  </outline>
</glyph>
<glyph name="greater" format="2">
  <advance width="1013.9162684622069"/>
  <unicode hex="003E"/>
  <outline>
    <contour>
      <point x="918.7242584228516" y="589.8560562133789" type="line"/>
      <point x="95.19200897216797" y="925.6472625732422" type="line"/>
      <point x="95.19200897216797" y="732.1036911010742" type="line"/>
      <point x="681.3902130126953" y="493.0842742919922" type="line"/>
      <point x="95.19200897216797" y="254.06485748291016" type="line"/>
      <point x="95.19200897216797" y="60.52129364013672" type="line"/>
      <point x="918.7242584228516" y="396.31249237060547" type="line"/>
    </contour>
  </outline>
</glyph>
<glyph name="question" format="2">
  <advance width="819.9930495221547"/>
  <unicode hex="003F"/>
  <outline>
    <contour>
      <point x="304.6472625732422" y="320.5898971557617" type="line"/>
      <point x="483.8653335571289" y="320.5898971557617" type="line"/>
      <point x="483.8653335571289" y="422.8335723876953" type="line"/>
      <point x="637.6927372584006" y="456.64522742617805"/>
      <point x="752.95048" y="593.8626802652801"/>
      <point x="752.9504800000001" y="757.7876" type="curve"/>
      <point x="752.95048" y="947.06903"/>
      <point x="599.27796" y="1100.74155"/>
      <point x="409.99652" y="1100.74155" type="curve" smooth="yes"/>
      <point x="220.71509" y="1100.74155"/>
      <point x="67.04257" y="947.06903"/>
      <point x="67.04257" y="757.7876" type="curve"/>
      <point x="246.2606430053711" y="757.78759765625" type="line"/>
      <point x="246.26064" y="848.15589"/>
      <point x="319.62823" y="921.52348"/>
      <point x="409.99652" y="921.52348" type="curve" smooth="yes"/>
      <point x="500.36481000000003" y="921.52348"/>
      <point x="573.73241" y="848.15589"/>
      <point x="573.73241" y="757.7876" type="curve"/>
      <point x="573.73241" y="683.4464384171251"/>
      <point x="524.8376734960528" y="594.0517077804129"/>
      <point x="389.99652" y="594.0517103865491" type="curve"/>
      <point x="304.6472625732422" y="594.0517120361328" type="line"/>
    </contour>
    <contour>
      <point x="517.64466" y="106.81058" type="curve" smooth="yes"/>
      <point x="517.64466" y="174.91047"/>
      <point x="462.35619" y="230.19894"/>
      <point x="394.2563" y="230.19894" type="curve" smooth="yes"/>
      <point x="326.15641" y="230.19894"/>
      <point x="270.86794" y="174.91047"/>
      <point x="270.86794" y="106.81058" type="curve" smooth="yes"/>
      <point x="270.86794" y="38.71069"/>
      <point x="326.15641" y="-16.57778"/>
      <point x="394.2563" y="-16.57778" type="curve" smooth="yes"/>
      <point x="462.35619" y="-16.57778"/>
      <point x="517.64466" y="38.71069"/>
    </contour>
  </outline>
</glyph>
<glyph name="at" format="2">
  <advance width="1393.0917926565876"/>
  <unicode hex="0040"/>
  <outline>
    <contour>
      <point x="1090.91925" y="273.02827" type="curve"/>
      <point x="1043.9406084487339" y="273.02827"/>
      <point x="1043.9375400805836" y="341.74175320856165"/>
      <point x="1043.9375399136675" y="380.41003" type="curve"/>
      <point x="1043.9375381469727" y="789.6877899169922" type="line"/>
      <point x="881.8601379394531" y="789.6877899169922" type="line"/>
      <point x="881.8601379394531" y="731.6484069824219" type="line"/>
      <point x="833.8564500534" y="778.443400835187"/>
      <point x="768.8228121756999" y="806.41001"/>
      <point x="687.86339" y="806.4100100000002" type="curve" smooth="yes"/>
      <point x="495.1045299999999" y="806.41001"/>
      <point x="338.60879" y="654.4135900000001"/>
      <point x="338.60879" y="461.65473" type="curve"/>
      <point x="338.60879" y="266.4998599999999"/>
      <point x="497.04977999999994" y="116.89944000000003"/>
      <point x="692.20464" y="116.89944" type="curve" smooth="yes"/>
      <point x="796.3946223458802" y="116.89944"/>
      <point x="883.6108129625908" y="163.21820491402826"/>
      <point x="941.2019958496094" y="236.38616180419922" type="curve"/>
      <point x="968.7914133041866" y="172.91661399537315"/>
      <point x="1019.86563859437" y="130.89511999999996"/>
      <point x="1090.91925" y="130.89511999999996" type="curve"/>
      <point x="1222.82401" y="130.89512"/>
      <point x="1330.34449" y="281.30819999999994"/>
      <point x="1330.34449" y="467.44306" type="curve"/>
      <point x="1330.34449" y="817.2460300000002"/>
      <point x="1046.3488600000003" y="1101.24166"/>
      <point x="696.5459" y="1101.24166" type="curve" smooth="yes"/>
      <point x="346.74293" y="1101.24166"/>
      <point x="62.7473" y="817.24603"/>
      <point x="62.7473" y="467.44306" type="curve"/>
      <point x="62.7473" y="117.64010000000002"/>
      <point x="346.74293" y="-166.35553"/>
      <point x="696.5458946228027" y="-166.35552978515625" type="curve"/>
      <point x="899.91994" y="-166.35553"/>
      <point x="1081.0497" y="-70.35896"/>
      <point x="1197.05598" y="78.7569" type="curve"/>
      <point x="990.0267028808594" y="78.75689697265625" type="line"/>
      <point x="907.98812" y="18.992729999999973"/>
      <point x="806.42633" y="-16.37497"/>
      <point x="696.5459" y="-16.37497" type="curve"/>
      <point x="429.51945999999987" y="-16.37496999999997"/>
      <point x="212.72786000000002" y="200.4166199999999"/>
      <point x="212.72786" y="467.44306" type="curve"/>
      <point x="212.72786" y="734.4695"/>
      <point x="429.51946" y="951.2611"/>
      <point x="696.5459" y="951.2611" type="curve" smooth="yes"/>
      <point x="963.57234" y="951.2611"/>
      <point x="1180.36393" y="734.4695000000002"/>
      <point x="1180.36393" y="467.44306" type="curve"/>
      <point x="1180.36393" y="377.46810652232494"/>
      <point x="1148.8369029419814" y="273.02827"/>
    </contour>
    <contour>
      <point x="696.5459" y="276.34049" type="curve" smooth="yes"/>
      <point x="594.26818" y="276.34049"/>
      <point x="511.23165" y="359.37701"/>
      <point x="511.23165" y="461.65473" type="curve"/>
      <point x="511.23165" y="563.93244"/>
      <point x="594.26818" y="646.96897"/>
      <point x="696.5459" y="646.96897" type="curve" smooth="yes"/>
      <point x="798.82361" y="646.96897"/>
      <point x="881.86014" y="563.93244"/>
      <point x="881.86014" y="461.65473" type="curve"/>
      <point x="881.86014" y="359.37701"/>
      <point x="798.82361" y="276.34049"/>
    </contour>
  </outline>
</glyph>
<glyph name="A" format="2">
  <advance width="1094.7940920937729"/>
  <unicode hex="0041"/>
  <anchor x="547.3970460469156" y="1192.5977410947003" name="above" identifier="above"/>
  <anchor x="547.3970460469156" y="-112.59774109470025" name="below" identifier="below"/>
  <anchor x="1082.9400521285838" y="0" name="ogonek" identifier="ogonek"/>
  <outline>
    <contour>
      <point x="11.854042053222656" y="0" type="line"/>
      <point x="205.3009490966797" y="0" type="line"/>
      <point x="299.6514205932617" y="232.21050262451172" type="line"/>
      <point x="795.1426696777344" y="232.21050262451172" type="line"/>
      <point x="889.4931411743164" y="0" type="line"/>
      <point x="1082.9400482177734" y="0" type="line"/>
      <point x="644.1204986572266" y="1080" type="line"/>
      <point x="450.67359161376953" y="1080" type="line"/>
    </contour>
    <contour>
      <point x="372.47029876708984" y="411.42857360839844" type="line"/>
      <point x="547.3970489501953" y="841.9492340087891" type="line"/>
      <point x="722.3237915039062" y="411.42857360839844" type="line"/>
    </contour>
  </outline>
</glyph>
<glyph name="B" format="2">
  <advance width="977.0356211989574"/>
  <unicode hex="0042"/>
  <outline>
    <contour>
      <point x="96.3023452758789" y="0" type="line"/>
      <point x="608.1529083251953" y="0" type="line"/>
      <point x="781.898252256125" y="0.0"/>
      <point x="922.9574283231972" y="141.05917606707212"/>
      <point x="922.9574283231972" y="314.80451781059946" type="curve" smooth="yes"/>
      <point x="922.9574283231972" y="414.10606170398637"/>
      <point x="876.8801301996485" y="502.73059583181504"/>
      <point x="804.9581909179688" y="560.4347229003906" type="curve"/>
      <point x="852.1860552932225" y="615.4868817205469"/>
      <point x="880.7332754126844" y="687.0337077712903"/>
      <point x="880.7332754126845" y="765.1954821894005" type="curve" smooth="yes"/>
      <point x="880.7332754126845" y="938.9408239329279"/>
      <point x="739.6740993456125" y="1080.0"/>
      <point x="565.9287576020852" y="1080.0" type="curve"/>
      <point x="96.3023452758789" y="1080" type="line"/>
    </contour>
    <contour>
      <point x="565.9287567138672" y="900.7819290161133" type="line"/>
      <point x="640.760953971503" y="900.781928757602"/>
      <point x="701.5152041702867" y="840.0276785588184"/>
      <point x="701.5152041702867" y="765.1954821894005" type="curve" smooth="yes"/>
      <point x="701.5152041702867" y="690.3632858199826"/>
      <point x="640.760953971503" y="629.6090356211989"/>
      <point x="565.9287576020852" y="629.6090356211989" type="curve"/>
      <point x="275.5204162597656" y="629.6090393066406" type="line"/>
      <point x="275.5204162597656" y="900.7819290161133" type="line"/>
    </contour>
    <contour>
      <point x="608.1529083251953" y="450.3909606933594" type="line"/>
      <point x="682.9851068820155" y="450.390964378801"/>
      <point x="743.7393570807992" y="389.63671418001735"/>
      <point x="743.7393570807992" y="314.80451781059946" type="curve" smooth="yes"/>
      <point x="743.7393570807992" y="239.97232144118158"/>
      <point x="682.9851068820157" y="179.2180712423979"/>
      <point x="608.1529105125977" y="179.2180712423979" type="curve"/>
      <point x="275.5204162597656" y="179.21807098388672" type="line"/>
      <point x="275.5204162597656" y="450.3909606933594" type="line"/>
    </contour>
  </outline>
</glyph>
<glyph name="C" format="2">
  <advance width="1207.7878511828198"/>
  <unicode hex="0043"/>
  <anchor x="621.0106622260836" y="1196.7615117289313" name="above" identifier="above"/>
  <anchor x="621.0106622260836" y="-112.59774109470025" name="below" identifier="below"/>
  <anchor x="621.0106622260836" y="0" name="cedilla" identifier="cedilla"/>
  <outline>
    <contour>
      <point x="621.01066" y="162.64029" type="curve" smooth="yes"/>
      <point x="411.59115" y="162.64029"/>
      <point x="241.56907" y="332.66237"/>
      <point x="241.56907" y="542.08189" type="curve" smooth="yes"/>
      <point x="241.56907" y="751.5014"/>
      <point x="411.59115" y="921.52348"/>
      <point x="621.01066" y="921.52348" type="curve" smooth="yes"/>
      <point x="765.47159" y="921.52348"/>
      <point x="891.18541" y="840.61913"/>
      <point x="955.27508" y="721.6713" type="curve"/>
      <point x="1150.12842" y="721.6713" type="line"/>
      <point x="1075.26818" y="942.01994"/>
      <point x="866.52887" y="1100.74155"/>
      <point x="621.01066" y="1100.74155" type="curve" smooth="yes"/>
      <point x="312.678" y="1100.74155"/>
      <point x="62.351" y="850.41454"/>
      <point x="62.351" y="542.08189" type="curve" smooth="yes"/>
      <point x="62.351" y="233.74923"/>
      <point x="312.678" y="-16.57778"/>
      <point x="621.01066" y="-16.57778" type="curve" smooth="yes"/>
      <point x="866.52486" y="-16.57778"/>
      <point x="1075.26136" y="142.13864"/>
      <point x="1150.12482" y="362.49247" type="curve"/>
      <point x="955.27955" y="362.49247" type="line"/>
      <point x="891.19124" y="243.54839"/>
      <point x="765.47494" y="162.64029"/>
    </contour>
  </outline>
</glyph>
<glyph name="D" format="2">
  <advance width="1100.959600347524"/>
  <unicode hex="0044"/>
  <anchor x="533.7447485278502" y="1196.7615117289313" name="above" identifier="above"/>
  <anchor x="533.7447485278502" y="-112.59774109470025" name="below" identifier="below"/>
  <anchor x="95.19200695047785" y="542.0818853171155" name="stroke" identifier="stroke"/>
  <outline>
    <contour>
      <point x="95.19200897216797" y="0" type="line"/>
      <point x="476.52671813964844" y="0.0" type="line"/>
      <point x="834.4037041038216" y="0.0"/>
      <point x="1038.6086" y="274.5854207294732"/>
      <point x="1038.6086" y="542.08189" type="curve" smooth="yes"/>
      <point x="1038.6086" y="809.5783542705269"/>
      <point x="834.4037050339975" y="1084.1637678254092"/>
      <point x="476.52672" y="1084.163770128721" type="curve"/>
      <point x="95.19200897216797" y="1084.1637725830078" type="line"/>
    </contour>
    <contour>
      <point x="476.52671813964844" y="904.9457015991211" type="line"/>
      <point x="729.9044579140631" y="904.9457015991211"/>
      <point x="859.39053" y="716.8737537197238"/>
      <point x="859.39053" y="542.08189" type="curve" smooth="yes"/>
      <point x="859.39053" y="367.29002128027616"/>
      <point x="729.9044588442389" y="179.2180689662312"/>
      <point x="476.52672" y="179.2180700885919" type="curve"/>
      <point x="274.4100799560547" y="179.21807098388672" type="line"/>
      <point x="274.4100799560547" y="904.9457015991211" type="line"/>
    </contour>
  </outline>
</glyph>
<glyph name="E" format="2">
  <advance width="948.8861859252823"/>
  <unicode hex="0045"/>
  <anchor x="481.48045178105997" y="1192.5977410947003" name="above" identifier="above"/>
  <anchor x="481.48045178105997" y="-112.59774109470025" name="below" identifier="below"/>
  <anchor x="481.48045178105997" y="0" name="cedilla" identifier="cedilla"/>
  <anchor x="866.658557775847" y="0" name="ogonek" identifier="ogonek"/>
  <outline>
    <contour>
      <point x="96.30235290527344" y="0" type="line"/>
      <point x="866.658561706543" y="0" type="line"/>
      <point x="866.658561706543" y="179.21807098388672" type="line"/>
      <point x="275.5204162597656" y="179.21807098388672" type="line"/>
      <point x="275.5204162597656" y="450.3909606933594" type="line"/>
      <point x="810.3596878051758" y="450.3909606933594" type="line"/>
      <point x="810.3596878051758" y="629.6090393066406" type="line"/>
      <point x="275.5204162597656" y="629.6090393066406" type="line"/>
      <point x="275.5204162597656" y="900.7819290161133" type="line"/>
      <point x="866.658561706543" y="900.7819290161133" type="line"/>
      <point x="866.658561706543" y="1080" type="line"/>
      <point x="96.30235290527344" y="1080" type="line"/>
    </contour>
  </outline>
</glyph>
<glyph name="F" format="2">
  <advance width="939.5766738660909"/>
  <unicode hex="0046"/>
  <anchor x="483.78401727861774" y="1196.4848812095033" name="above" identifier="above"/>
  <anchor x="90.73866090712744" y="0" name="hookleft" identifier="hookleft"/>
  <outline>
    <contour>
      <point x="90.73866271972656" y="0" type="line"/>
      <point x="275.01512145996094" y="0" type="line"/>
      <point x="275.01512145996094" y="423.6957321166992" type="line"/>
      <point x="792.8552932739258" y="423.6957321166992" type="line"/>
      <point x="792.8552932739258" y="599.3982162475586" type="line"/>
      <point x="275.01512145996094" y="599.3982162475586" type="line"/>
      <point x="275.01512145996094" y="905.9589614868164" type="line"/>
      <point x="876.8293685913086" y="905.9589614868164" type="line"/>
      <point x="876.8293685913086" y="1084.5194396972656" type="line"/>
      <point x="90.73866271972656" y="1084.5194396972656" type="line"/>
    </contour>
  </outline>
</glyph>
<glyph name="G" format="2">
  <advance width="1236.9226759339704"/>
  <unicode hex="0047"/>
  <outline>
    <contour>
      <point x="618.4613342285156" y="408.16680908203125" type="line"/>
      <point x="970.4264755249023" y="408.16680908203125" type="line"/>
      <point x="916.9795783495248" y="265.7092214143056"/>
      <point x="779.479198857391" y="164.2180712423978"/>
      <point x="618.4613379669852" y="164.2180712423979" type="curve" smooth="yes"/>
      <point x="411.0616472410946" y="164.2180712423979"/>
      <point x="242.67940920938315" y="332.60030927410946"/>
      <point x="242.67940920938315" y="540.0" type="curve" smooth="yes"/>
      <point x="242.67940920938315" y="747.3996907258905"/>
      <point x="411.0616472410947" y="915.781928757602"/>
      <point x="618.4613379669852" y="915.781928757602" type="curve" smooth="yes"/>
      <point x="741.4122300227983" y="915.781928757602"/>
      <point x="850.6509557771002" y="856.6062242796941"/>
      <point x="919.2258613646081" y="765.1954853710768" type="curve"/>
      <point x="1125.7986373901367" y="765.1954879760742" type="line"/>
      <point x="1039.3645341299064" y="959.4350740283959"/>
      <point x="844.6194563676814" y="1095.0"/>
      <point x="618.4613379669852" y="1095.0" type="curve" smooth="yes"/>
      <point x="312.1485018669852" y="1095.0"/>
      <point x="63.46133796698523" y="846.3128361000001"/>
      <point x="63.46133796698523" y="540.0" type="curve" smooth="yes"/>
      <point x="63.46133796698523" y="233.6871639"/>
      <point x="312.14850186698516" y="-15.0"/>
      <point x="618.4613379669851" y="-15.0" type="curve" smooth="yes"/>
      <point x="924.774174066985" y="-15.000000000000107"/>
      <point x="1173.4613379669852" y="233.68716389999986"/>
      <point x="1173.4613379669852" y="540.0" type="curve" smooth="yes"/>
      <point x="1173.4613379669852" y="555.9708449614179"/>
      <point x="1172.7852880492735" y="571.785035955104"/>
      <point x="1171.4602457505532" y="587.3848858923626" type="curve"/>
      <point x="991.2701263427734" y="587.3848876953125" type="line"/>
      <point x="991.2701263427734" y="587.384880065918" type="line"/>
      <point x="618.4613342285156" y="587.384880065918" type="line"/>
    </contour>
  </outline>
</glyph>
<glyph name="H" format="2">
  <advance width="1047.409209383145"/>
  <unicode hex="0048"/>
  <anchor x="523.7046046915725" y="1192.5977410947003" name="above" identifier="above"/>
  <anchor x="523.7046046915725" y="-112.59774109470025" name="below" identifier="below"/>
  <anchor x="185.91138140747177" y="0" name="cedilla" identifier="cedilla"/>
  <anchor x="523.7046046915725" y="854.8045178105995" name="stroke" identifier="stroke"/>
  <outline>
    <contour>
      <point x="96.30235290527344" y="0" type="line"/>
      <point x="275.5204162597656" y="0" type="line"/>
      <point x="275.5204162597656" y="450.3909606933594" type="line"/>
      <point x="771.888786315918" y="450.3909606933594" type="line"/>
      <point x="771.888786315918" y="0" type="line"/>
      <point x="951.1068572998047" y="0" type="line"/>
      <point x="951.1068572998047" y="1080" type="line"/>
      <point x="771.888786315918" y="1080" type="line"/>
      <point x="771.888786315918" y="629.6090393066406" type="line"/>
      <point x="275.5204162597656" y="629.6090393066406" type="line"/>
      <point x="275.5204162597656" y="1080" type="line"/>
      <point x="96.30235290527344" y="1080" type="line"/>
    </contour>
  </outline>
</glyph>
<glyph name="I" format="2">
  <advance width="371.82276281494353"/>
  <unicode hex="0049"/>
  <anchor x="185.91138140747177" y="1192.5977410947003" name="above" identifier="above"/>
  <anchor x="185.91138140747177" y="-112.59774109470025" name="below" identifier="below"/>
  <anchor x="275.52041702867075" y="0" name="ogonek" identifier="ogonek"/>
  <anchor x="185.91138140747177" y="540.0" name="stroke" identifier="stroke"/>
  <outline>
    <contour>
      <point x="96.30235" y="0.0" type="line"/>
      <point x="275.52042" y="0.0" type="line"/>
      <point x="275.52042" y="1080.0" type="line"/>
      <point x="96.30235" y="1080.0" type="line"/>
    </contour>
  </outline>
</glyph>
<glyph name="J" format="2">
  <advance width="878.5125977410947"/>
  <unicode hex="004A"/>
  <outline>
    <contour>
      <point x="54.07819366455078" y="371.1033935546875" type="line"/>
      <point x="54.07818999999999" y="166.28584999999993"/>
      <point x="220.3640499999999" y="2.508291325237671e-14"/>
      <point x="425.18158" y="0.0" type="curve" smooth="yes"/>
      <point x="578.5364101105797" y="0.0"/>
      <point x="796.2849687956782" y="99.60356303275387"/>
      <point x="796.2849701774325" y="411.10339" type="curve"/>
      <point x="796.2849731445312" y="1080" type="line"/>
      <point x="617.0669021606445" y="1080" type="line"/>
      <point x="617.0669021606445" y="411.1033935546875" type="line"/>
      <point x="617.0669021606445" y="227.67419601142538"/>
      <point x="511.7339896373144" y="179.21807"/>
      <point x="425.18158" y="179.21807" type="curve" smooth="yes"/>
      <point x="319.27718999999996" y="179.21807"/>
      <point x="233.29626" y="265.19899999999996"/>
      <point x="233.29626" y="371.10339" type="curve"/>
    </contour>
  </outline>
</glyph>
<glyph name="K" format="2">
  <advance width="1022.5438748913541"/>
  <unicode hex="004B"/>
  <outline>
    <contour>
      <point x="96.30235290527344" y="0" type="line"/>
      <point x="275.5204162597656" y="0" type="line"/>
      <point x="275.5204162597656" y="452.2676010131836" type="line"/>
      <point x="730.2684326171875" y="0" type="line"/>
      <point x="984.4170303344727" y="0" type="line"/>
      <point x="439.5685272216797" y="541.8766326904297" type="line"/>
      <point x="980.6431884765625" y="1080" type="line"/>
      <point x="726.4945907592773" y="1080" type="line"/>
      <point x="275.5204162597656" y="631.4856643676758" type="line"/>
      <point x="275.5204162597656" y="1080" type="line"/>
      <point x="96.30235290527344" y="1080" type="line"/>
    </contour>
  </outline>
</glyph>
<glyph name="L" format="2">
  <advance width="878.5125977410946"/>
  <unicode hex="004C"/>
  <outline>
    <contour>
      <point x="96.3023452758789" y="0" type="line"/>
      <point x="838.5091247558594" y="0" type="line"/>
      <point x="838.5091247558594" y="179.21807098388672" type="line"/>
      <point x="275.5204162597656" y="179.21807098388672" type="line"/>
      <point x="275.5204162597656" y="1080" type="line"/>
      <point x="96.3023452758789" y="1080" type="line"/>
    </contour>
  </outline>
</glyph>
<glyph name="M" format="2">
  <advance width="1214.1946133796698"/>
  <unicode hex="004D"/>
  <outline>
    <contour>
      <point x="96.3023452758789" y="0" type="line"/>
      <point x="275.5204162597656" y="0" type="line"/>
      <point x="275.5204162597656" y="731.3600006103516" type="line"/>
      <point x="517.4882736206055" y="260.6503677368164" type="line"/>
      <point x="696.7063446044922" y="260.6503677368164" type="line"/>
      <point x="938.6741943359375" y="731.3600006103516" type="line"/>
      <point x="938.6741943359375" y="0" type="line"/>
      <point x="1117.8922653198242" y="0" type="line"/>
      <point x="1117.8922653198242" y="1080" type="line"/>
      <point x="916.3817749023438" y="1080" type="line"/>
      <point x="607.0973052978516" y="478.3367004394531" type="line"/>
      <point x="297.8128356933594" y="1080" type="line"/>
      <point x="96.3023452758789" y="1080" type="line"/>
    </contour>
  </outline>
</glyph>
<glyph name="N" format="2">
  <advance width="1086.6620330147698"/>
  <unicode hex="004E"/>
  <anchor x="543.3310165073849" y="1192.5977410947003" name="above" identifier="above"/>
  <anchor x="543.3310165073849" y="-112.59774109470025" name="below" identifier="below"/>
  <anchor x="96.30234578627281" y="0" name="hookleft" identifier="hookleft"/>
  <outline>
    <contour>
      <point x="96.30235290527344" y="0" type="line"/>
      <point x="275.5204162597656" y="0" type="line"/>
      <point x="275.5204162597656" y="766.9840698242188" type="line"/>
      <point x="811.1416168212891" y="0" type="line"/>
      <point x="990.3596878051758" y="0" type="line"/>
      <point x="990.3596878051758" y="1080" type="line"/>
      <point x="811.1416168212891" y="1080" type="line"/>
      <point x="811.1416168212891" y="313.01593017578125" type="line"/>
      <point x="275.5204162597656" y="1080" type="line"/>
      <point x="96.30235290527344" y="1080" type="line"/>
    </contour>
  </outline>
</glyph>
<glyph name="O" format="2">
  <advance width="1236.9226759339704"/>
  <unicode hex="004F"/>
  <anchor x="618.4613379669852" y="1192.5977410947003" name="above" identifier="above"/>
  <anchor x="618.4613379669852" y="-112.59774109470025" name="below" identifier="below"/>
  <anchor x="618.4613379669852" y="0" name="ogonek" identifier="ogonek"/>
  <anchor x="618.4613379669852" y="540.0" name="stroke" identifier="stroke"/>
  <anchor x="618.4613379669852" y="1095.0" name="horn" identifier="horn"/>
  <outline>
    <contour>
      <point x="1173.46134" y="540.0" type="curve" smooth="yes"/>
      <point x="1173.46134" y="846.31284"/>
      <point x="924.77417" y="1095.0"/>
      <point x="618.46134" y="1095.0" type="curve" smooth="yes"/>
      <point x="312.1485" y="1095.0"/>
      <point x="63.46134" y="846.31284"/>
      <point x="63.46134" y="540.0" type="curve" smooth="yes"/>
      <point x="63.46134" y="233.68716"/>
      <point x="312.1485" y="-15.0"/>
      <point x="618.46134" y="-15.0" type="curve" smooth="yes"/>
      <point x="924.77417" y="-15.0"/>
      <point x="1173.46134" y="233.68716"/>
    </contour>
    <contour>
      <point x="994.24327" y="540.0" type="curve" smooth="yes"/>
      <point x="994.24327" y="332.60031"/>
      <point x="825.86103" y="164.21807"/>
      <point x="618.46134" y="164.21807" type="curve" smooth="yes"/>
      <point x="411.06165" y="164.21807"/>
      <point x="242.67941" y="332.60031"/>
      <point x="242.67941" y="540.0" type="curve" smooth="yes"/>
      <point x="242.67941" y="747.39969"/>
      <point x="411.06165" y="915.78193"/>
      <point x="618.46134" y="915.78193" type="curve" smooth="yes"/>
      <point x="825.86103" y="915.78193"/>
      <point x="994.24327" y="747.39969"/>
    </contour>
  </outline>
</glyph>
<glyph name="P" format="2">
  <advance width="977.0356211989573"/>
  <unicode hex="0050"/>
  <anchor x="487.5925282363163" y="1192.5977410947003" name="above" identifier="above"/>
  <outline>
    <contour>
      <point x="96.30235290527344" y="0" type="line"/>
      <point x="275.5204162597656" y="0" type="line"/>
      <point x="275.5204162597656" y="361.9213104248047" type="line"/>
      <point x="529.8433685302734" y="361.9213104248047" type="line"/>
      <point x="781.0021291104607" y="361.9213104248047"/>
      <point x="908.88271" y="548.1623666436623"/>
      <point x="908.88271" y="720.96066" type="curve" smooth="yes"/>
      <point x="908.88271" y="893.7589483563377"/>
      <point x="781.002129845324" y="1080.0"/>
      <point x="529.84337" y="1080.0" type="curve"/>
      <point x="96.30235290527344" y="1080" type="line"/>
    </contour>
    <contour>
      <point x="529.8433685302734" y="900.7819290161133" type="line"/>
      <point x="678.8335659178608" y="900.7819290161133"/>
      <point x="729.66464" y="797.8583609429219"/>
      <point x="729.66464" y="720.96066" type="curve" smooth="yes"/>
      <point x="729.66464" y="644.0629540570781"/>
      <point x="678.8335666527241" y="541.1393793376151"/>
      <point x="529.84337" y="541.1393801027031" type="curve"/>
      <point x="275.5204162597656" y="541.1393814086914" type="line"/>
      <point x="275.5204162597656" y="900.7819290161133" type="line"/>
    </contour>
  </outline>
</glyph>
<glyph name="Q" format="2">
  <advance width="1240.7681713720967"/>
  <unicode hex="0051"/>
  <outline>
    <contour>
      <point x="1213.5883255004883" y="0" type="line"/>
      <point x="1045.9411926269531" y="186.19100952148438" type="line"/>
      <point x="1125.572956998332" y="282.26305030116544"/>
      <point x="1173.4613379669852" y="405.5831886369258"/>
      <point x="1173.461337966985" y="540.0000000000001" type="curve" smooth="yes"/>
      <point x="1173.4613379669852" y="846.3128361"/>
      <point x="924.7741740669851" y="1095.0"/>
      <point x="618.4613379669852" y="1095.0" type="curve" smooth="yes"/>
      <point x="312.1485018669852" y="1095.0"/>
      <point x="63.46133796698523" y="846.3128361000001"/>
      <point x="63.46133796698523" y="540.0" type="curve" smooth="yes"/>
      <point x="63.46133796698523" y="233.6871639"/>
      <point x="312.14850186698516" y="-15.0"/>
      <point x="618.4613379669851" y="-15.0" type="curve" smooth="yes"/>
      <point x="725.7495530008628" y="-15.000000000000037"/>
      <point x="825.9682525256936" y="15.508932824074028"/>
      <point x="910.9074401855469" y="68.323974609375" type="curve"/>
      <point x="972.426628112793" y="0" type="line"/>
    </contour>
    <contour>
      <point x="994.2432667245872" y="540.0" type="curve" smooth="yes"/>
      <point x="994.2432667245872" y="458.5205427020452"/>
      <point x="968.2550593207509" y="383.0630605532432"/>
      <point x="924.1226196289062" y="321.4842300415039" type="curve"/>
      <point x="812.9244918823242" y="444.9822692871094" type="line"/>
      <point x="571.7627868652344" y="444.9822692871094" type="line"/>
      <point x="788.1323471069336" y="204.67953491210938" type="line"/>
      <point x="737.1526951868202" y="178.80088685692047"/>
      <point x="679.496578151326" y="164.21807124239785"/>
      <point x="618.4613379669852" y="164.21807124239788" type="curve" smooth="yes"/>
      <point x="411.0616472410946" y="164.2180712423979"/>
      <point x="242.67940920938315" y="332.60030927410946"/>
      <point x="242.67940920938315" y="540.0" type="curve" smooth="yes"/>
      <point x="242.67940920938315" y="747.3996907258905"/>
      <point x="411.0616472410947" y="915.781928757602"/>
      <point x="618.4613379669852" y="915.781928757602" type="curve" smooth="yes"/>
      <point x="825.8610286928756" y="915.781928757602"/>
      <point x="994.2432667245872" y="747.3996907258904"/>
    </contour>
  </outline>
</glyph>
<glyph name="R" format="2">
  <advance width="985.3532414097227"/>
  <unicode hex="0052"/>
  <outline>
    <contour>
      <point x="96.3023452758789" y="0" type="line"/>
      <point x="275.5204162597656" y="0" type="line"/>
      <point x="275.5204162597656" y="361.9213104248047" type="line"/>
      <point x="501.5797424316406" y="361.9213104248047" type="line"/>
      <point x="740.0959625244141" y="0" type="line"/>
      <point x="954.73291015625" y="0" type="line"/>
      <point x="695.811149597168" y="392.88440704345703" type="line"/>
      <point x="821.3134917990678" y="448.85793903925287"/>
      <point x="908.8827106863597" y="574.7635481578548"/>
      <point x="908.8827106863596" y="720.9606553307683" type="curve" smooth="yes"/>
      <point x="908.8827106863596" y="919.1198624246742"/>
      <point x="748.0025731110338" y="1080.0"/>
      <point x="549.8433660171279" y="1080.0" type="curve"/>
      <point x="96.3023452758789" y="1080" type="line"/>
    </contour>
    <contour>
      <point x="549.8433685302734" y="900.7819290161133" type="line"/>
      <point x="649.0894277369243" y="900.781928757602"/>
      <point x="729.6646394439617" y="820.2067170505647"/>
      <point x="729.6646394439617" y="720.9606553307683" type="curve" smooth="yes"/>
      <point x="729.6646394439617" y="621.7145936109719"/>
      <point x="649.0894277369243" y="541.1393819039345"/>
      <point x="549.8433660171279" y="541.1393819039345" type="curve"/>
      <point x="275.5204162597656" y="541.1393814086914" type="line"/>
      <point x="275.5204162597656" y="900.7819290161133" type="line"/>
    </contour>
  </outline>
</glyph>
<glyph name="S" format="2">
  <advance width="972.344048653345"/>
  <unicode hex="0053"/>
  <outline>
    <contour>
      <point x="49.386619567871094" y="310.1194610595703" type="line"/>
      <point x="49.38662" y="130.96093"/>
      <point x="244.89504" y="-15.0"/>
      <point x="486.17202" y="-15.0" type="curve" smooth="yes"/>
      <point x="727.4490000000001" y="-15.0"/>
      <point x="922.95743" y="130.9609299999999"/>
      <point x="922.95743" y="310.11946" type="curve"/>
      <point x="922.95743" y="428.53988313469694"/>
      <point x="833.8472144075662" y="580.9466639564262"/>
      <point x="519.6297897176654" y="636.3516661888009" type="curve"/>
      <point x="487.527281900987" y="642.0122036940115" type="line"/>
      <point x="419.31344819504903" y="654.0401413950675"/>
      <point x="261.04952" y="681.9697704414614"/>
      <point x="261.04952" y="781.14031" type="curve"/>
      <point x="261.04952" y="855.25145"/>
      <point x="361.5709299999999" y="915.78193"/>
      <point x="486.17202" y="915.78193" type="curve" smooth="yes"/>
      <point x="610.77312" y="915.78193"/>
      <point x="711.29453" y="855.25145"/>
      <point x="711.29453" y="781.14031" type="curve"/>
      <point x="894.807991027832" y="781.1403121948242" type="line"/>
      <point x="894.80799" y="954.12178"/>
      <point x="712.01852" y="1095.0"/>
      <point x="486.17202" y="1095.0" type="curve" smooth="yes"/>
      <point x="260.3255299999999" y="1095.0"/>
      <point x="77.53606000000002" y="954.1217800000001"/>
      <point x="77.53606" y="781.14031" type="curve"/>
      <point x="77.53606" y="666.5531937417636"/>
      <point x="159.13410080805892" y="517.9339996061503"/>
      <point x="456.4063898203383" y="465.5168611910876" type="curve"/>
      <point x="488.50889714987653" y="459.8563215701428" type="line"/>
      <point x="572.3892683971302" y="445.06594523004435"/>
      <point x="739.44396" y="415.67891054522136"/>
      <point x="739.44396" y="310.11946" type="curve"/>
      <point x="739.44396" y="229.82547999999997"/>
      <point x="626.35833" y="164.21807"/>
      <point x="486.17202" y="164.21807" type="curve" smooth="yes"/>
      <point x="345.98572" y="164.21807"/>
      <point x="232.90009" y="229.82548"/>
      <point x="232.90009" y="310.11946" type="curve"/>
    </contour>
  </outline>
</glyph>
<glyph name="T" format="2">
  <advance width="962.9609035621199"/>
  <unicode hex="0054"/>
  <outline>
    <contour>
      <point x="391.8714141845703" y="0" type="line"/>
      <point x="571.089485168457" y="0" type="line"/>
      <point x="571.089485168457" y="900.7819290161133" type="line"/>
      <point x="908.8827133178711" y="900.7819290161133" type="line"/>
      <point x="908.8827133178711" y="1080" type="line"/>
      <point x="54.07819366455078" y="1080" type="line"/>
      <point x="54.07819366455078" y="900.7819290161133" type="line"/>
      <point x="391.8714141845703" y="900.7819290161133" type="line"/>
    </contour>
  </outline>
</glyph>
<glyph name="U" format="2">
  <advance width="1038.02606429192"/>
  <unicode hex="0055"/>
  <outline>
    <contour>
      <point x="82.22763061523438" y="461.785400390625" type="line"/>
      <point x="82.2276306152344" y="110.07519455747456"/>
      <point x="333.7610452093638" y="-14.999999999999977"/>
      <point x="519.01303" y="-15.0" type="curve" smooth="yes"/>
      <point x="704.2650147906361" y="-15.0"/>
      <point x="955.7984404613139" y="110.07519416684954"/>
      <point x="955.7984399408023" y="461.7854" type="curve"/>
      <point x="955.7984390258789" y="1080" type="line"/>
      <point x="776.5803604125977" y="1080" type="line"/>
      <point x="776.5803604125977" y="461.785400390625" type="line"/>
      <point x="776.5803604125977" y="218.87086425978276"/>
      <point x="615.9591769443673" y="164.21807"/>
      <point x="519.01303" y="164.21807" type="curve" smooth="yes"/>
      <point x="422.06688305563256" y="164.21807"/>
      <point x="261.4456995070226" y="218.87086386915774"/>
      <point x="261.4457000971793" y="461.7854" type="curve"/>
      <point x="261.4457015991211" y="1080" type="line"/>
      <point x="82.22763061523438" y="1080" type="line"/>
    </contour>
  </outline>
</glyph>
<glyph name="V" format="2">
  <advance width="1064.5172786177106"/>
  <unicode hex="0056"/>
  <anchor x="532.2586393088553" y="1196.4848812095033" name="above" identifier="above"/>
  <anchor x="532.2586393088553" y="-111.96544276457884" name="below" identifier="below"/>
  <outline>
    <contour>
      <point x="11.4298095703125" y="1084.5194396972656" type="line"/>
      <point x="433.3920669555664" y="0" type="line"/>
      <point x="631.1252136230469" y="0" type="line"/>
      <point x="1053.0874710083008" y="1084.5194396972656" type="line"/>
      <point x="855.3543319702148" y="1084.5194396972656" type="line"/>
      <point x="532.2586364746094" y="247.30030822753906" type="line"/>
      <point x="209.16294860839844" y="1084.5194396972656" type="line"/>
    </contour>
  </outline>
</glyph>
<glyph name="W" format="2">
  <advance width="1493.5777584709042"/>
  <unicode hex="0057"/>
  <outline>
    <contour>
      <point x="337.3289566040039" y="0" type="line"/>
      <point x="524.0652542114258" y="0" type="line"/>
      <point x="746.7888793945312" y="760.9863204956055" type="line"/>
      <point x="969.5125045776367" y="0" type="line"/>
      <point x="1156.2488021850586" y="0" type="line"/>
      <point x="1472.340576171875" y="1080" type="line"/>
      <point x="1285.6042709350586" y="1080" type="line"/>
      <point x="1062.8806533813477" y="319.01368713378906" type="line"/>
      <point x="840.1570281982422" y="1080" type="line"/>
      <point x="653.4207305908203" y="1080" type="line"/>
      <point x="430.69710540771484" y="319.01368713378906" type="line"/>
      <point x="207.9734878540039" y="1080" type="line"/>
      <point x="21.2371826171875" y="1080" type="line"/>
    </contour>
  </outline>
</glyph>
<glyph name="X" format="2">
  <advance width="1004.4891398783001"/>
  <unicode hex="0058"/>
  <anchor x="502.24456993918335" y="1196.7615117289313" name="above" identifier="above"/>
  <outline>
    <contour>
      <point x="11.799301147460938" y="0" type="line"/>
      <point x="230.84131622314453" y="0" type="line"/>
      <point x="502.24456787109375" y="386.225830078125" type="line"/>
      <point x="773.647819519043" y="0" type="line"/>
      <point x="992.689826965332" y="0" type="line"/>
      <point x="611.7655715942383" y="542.0818862915039" type="line"/>
      <point x="992.689826965332" y="1084.1637725830078" type="line"/>
      <point x="773.647819519043" y="1084.1637725830078" type="line"/>
      <point x="502.24456787109375" y="697.9379425048828" type="line"/>
      <point x="230.84131622314453" y="1084.1637725830078" type="line"/>
      <point x="11.799301147460938" y="1084.1637725830078" type="line"/>
      <point x="392.7235641479492" y="542.0818862915039" type="line"/>
    </contour>
  </outline>
</glyph>
<glyph name="Y" format="2">
  <advance width="997.0217202432666"/>
  <unicode hex="0059"/>
  <anchor x="498.5108601216333" y="1196.7615117289313" name="above" identifier="above"/>
  <anchor x="498.5108601216333" y="-112.59774109470025" name="below" identifier="below"/>
  <outline>
    <contour>
      <point x="408.90181732177734" y="0" type="line"/>
      <point x="588.1199035644531" y="0" type="line"/>
      <point x="588.1199035644531" y="404.6872329711914" type="line"/>
      <point x="983.3066864013672" y="1084.1637725830078" type="line"/>
      <point x="775.9811935424805" y="1084.1637725830078" type="line"/>
      <point x="498.51085662841797" y="607.0866394042969" type="line"/>
      <point x="221.04052734375" y="1084.1637725830078" type="line"/>
      <point x="13.71502685546875" y="1084.1637725830078" type="line"/>
      <point x="408.90181732177734" y="404.6872329711914" type="line"/>
    </contour>
  </outline>
</glyph>
<glyph name="Z" format="2">
  <advance width="934.8114682884509"/>
  <unicode hex="005A"/>
  <anchor x="467.4057341442224" y="1192.5977410947003" name="above" identifier="above"/>
  <anchor x="467.4057341442224" y="-112.59774109470025" name="below" identifier="below"/>
  <anchor x="467.4057341442224" y="547.5" name="stroke" identifier="stroke"/>
  <outline>
    <contour>
      <point x="68.15290832519531" y="0" type="line"/>
      <point x="866.658561706543" y="0" type="line"/>
      <point x="866.658561706543" y="179.21807098388672" type="line"/>
      <point x="296.5586700439453" y="179.21807098388672" type="line"/>
      <point x="866.658561706543" y="900.7819290161133" type="line"/>
      <point x="866.658561706543" y="1080" type="line"/>
      <point x="68.15290832519531" y="1080" type="line"/>
      <point x="68.15290832519531" y="900.7819290161133" type="line"/>
      <point x="638.252799987793" y="900.7819290161133" type="line"/>
      <point x="68.15290832519531" y="179.21807098388672" type="line"/>
    </contour>
  </outline>
</glyph>
<glyph name="bracketleft" format="2">
  <advance width="551.7796976241901"/>
  <unicode hex="005B"/>
  <outline>
    <contour>
      <point x="146.72138214111328" y="-86.42224884033203" type="line"/>
      <point x="517.0237579345703" y="-86.42224884033203" type="line"/>
      <point x="517.0237579345703" y="86.42224884033203" type="line"/>
      <point x="330.99784088134766" y="86.42224884033203" type="line"/>
      <point x="330.99784088134766" y="998.0971908569336" type="line"/>
      <point x="517.0237579345703" y="998.0971908569336" type="line"/>
      <point x="517.0237579345703" y="1170.9416809082031" type="line"/>
      <point x="146.72138214111328" y="1170.9416809082031" type="line"/>
    </contour>
  </outline>
</glyph>
<glyph name="backslash" format="2">
  <advance width="841.2108485653655"/>
  <unicode hex="005C"/>
  <outline>
    <contour>
      <point x="746.01884" y="-56.29887" type="line"/>
      <point x="243.68774" y="1323.84448" type="line"/>
      <point x="52.96785" y="1323.84448" type="line"/>
      <point x="555.29895" y="-56.29887" type="line"/>
    </contour>
  </outline>
</glyph>
<glyph name="bracketright" format="2">
  <advance width="540.7193744569939"/>
  <unicode hex="005D"/>
  <outline>
    <contour>
      <point x="388.11815643310547" y="-89.60903930664062" type="line"/>
      <point x="388.11815643310547" y="1225.9079132080078" type="line"/>
      <point x="40.00347900390625" y="1225.9079132080078" type="line"/>
      <point x="40.00347900390625" y="1046.689826965332" type="line"/>
      <point x="208.90009307861328" y="1046.689826965332" type="line"/>
      <point x="208.90009307861328" y="89.60903930664062" type="line"/>
      <point x="40.00347900390625" y="89.60903930664062" type="line"/>
      <point x="40.00347900390625" y="-89.60903930664062" type="line"/>
    </contour>
  </outline>
</glyph>
<glyph name="asciicircum" format="2">
  <advance width="795.7965648599637"/>
  <unicode hex="005E"/>
  <outline>
    <contour>
      <point x="58.76976776123047" y="562.9887084960938" type="line"/>
      <point x="256.4018096923828" y="562.9887084960938" type="line"/>
      <point x="397.8982849121094" y="867.4059753417969" type="line"/>
      <point x="539.3947525024414" y="562.9887084960938" type="line"/>
      <point x="737.0268020629883" y="562.9887084960938" type="line"/>
      <point x="496.7143096923828" y="1080" type="line"/>
      <point x="299.08226013183594" y="1080" type="line"/>
    </contour>
  </outline>
</glyph>
<glyph name="power" format="2">
  <advance width="793.5758871884341"/>
  <unicode hex="005E"/>
  <outline>
    <contour>
      <point x="57.65943145751953" y="551.7514877319336" type="line"/>
      <point x="243.34867095947266" y="551.7514877319336" type="line"/>
      <point x="396.7879409790039" y="883.4538726806641" type="line"/>
      <point x="550.2272186279297" y="551.7514877319336" type="line"/>
      <point x="735.9164581298828" y="551.7514877319336" type="line"/>
      <point x="489.63256072998047" y="1084.1637725830078" type="line"/>
      <point x="303.94332122802734" y="1084.1637725830078" type="line"/>
    </contour>
  </outline>
</glyph>
<glyph name="underscore" format="2">
  <advance width="798.5056472632493"/>
  <unicode hex="005F"/>
  <outline>
    <contour>
      <point x="0.0" y="-166.36316246741964" type="line"/>
      <point x="798.5056472632493" y="-166.36316246741964" type="line"/>
      <point x="798.5056472632493" y="-22.9887054735013" type="line"/>
      <point x="0.0" y="-22.9887054735013" type="line"/>
    </contour>
  </outline>
</glyph>
<glyph name="grave" format="2">
  <advance width="493.6171232089631"/>
  <unicode hex="0060"/>
  <outline>
    <contour>
      <point x="397.3147774226903" y="915.3258036490008" type="line"/>
      <point x="240.4418630605314" y="1192.5977410947003" type="line"/>
      <point x="96.30234578627281" y="1192.5977410947003" type="line"/>
      <point x="253.17526014843176" y="915.3258036490008" type="line"/>
    </contour>
  </outline>
</glyph>
<glyph name="a" format="2">
  <advance width="1007.568783183705"/>
  <unicode hex="0061"/>
  <anchor x="491.50833212665316" y="936.1299956559513" name="above" identifier="above"/>
  <anchor x="491.50833212665316" y="-112.59774109470025" name="below" identifier="below"/>
  <anchor x="915.707792740612" y="0" name="ogonek" identifier="ogonek"/>
  <outline>
    <contour>
      <point x="740.2300720214844" y="0" type="line"/>
      <point x="915.7077865600586" y="0" type="line"/>
      <point x="915.7077865600586" y="823.5322494506836" type="line"/>
      <point x="740.2300720214844" y="823.5322494506836" type="line"/>
      <point x="740.2300720214844" y="757.4443969726562" type="line"/>
      <point x="669.3426472329284" y="809.4120297885686"/>
      <point x="581.90993129275" y="840.11003"/>
      <point x="487.36389" y="840.11003" type="curve" smooth="yes"/>
      <point x="250.95445" y="840.11003"/>
      <point x="59.01998" y="648.17556"/>
      <point x="59.01998" y="411.76613" type="curve" smooth="yes"/>
      <point x="59.01998" y="175.35669"/>
      <point x="250.95445" y="-16.57778"/>
      <point x="487.36389" y="-16.57778" type="curve" smooth="yes"/>
      <point x="581.90993129275" y="-16.57778"/>
      <point x="669.3426472329284" y="14.120220211431391"/>
      <point x="740.2300720214844" y="66.09204864501953" type="curve"/>
    </contour>
    <contour>
      <point x="740.23007" y="411.76613" type="curve" smooth="yes"/>
      <point x="740.23007" y="272.20548"/>
      <point x="626.92453" y="158.89995"/>
      <point x="487.36389" y="158.89995" type="curve" smooth="yes"/>
      <point x="347.80324" y="158.89995"/>
      <point x="234.49771" y="272.20548"/>
      <point x="234.49771" y="411.76613" type="curve" smooth="yes"/>
      <point x="234.49771" y="551.32677"/>
      <point x="347.80324" y="664.63231"/>
      <point x="487.36389" y="664.63231" type="curve" smooth="yes"/>
      <point x="626.92453" y="664.63231"/>
      <point x="740.23007" y="551.32677"/>
    </contour>
  </outline>
</glyph>
<glyph name="b" format="2">
  <advance width="1007.568783183705"/>
  <unicode hex="0062"/>
  <anchor x="520.2048955014963" y="936.1299956559513" name="above" identifier="above"/>
  <anchor x="516.0604510570519" y="-112.59774109470025" name="below" identifier="below"/>
  <outline>
    <contour>
      <point x="91.86099243164062" y="0" type="line"/>
      <point x="267.33870697021484" y="0" type="line"/>
      <point x="267.33870697021484" y="66.08786010742188" type="line"/>
      <point x="338.22613636797166" y="14.120220211431409"/>
      <point x="425.6588547079999" y="-16.577779999999986"/>
      <point x="520.2049" y="-16.577780000000004" type="curve" smooth="yes"/>
      <point x="756.61433" y="-16.57778"/>
      <point x="948.5488" y="175.35669"/>
      <point x="948.5488" y="411.76613" type="curve" smooth="yes"/>
      <point x="948.5488" y="648.17556"/>
      <point x="756.61433" y="840.11003"/>
      <point x="520.2049" y="840.11003" type="curve" smooth="yes"/>
      <point x="425.658854708" y="840.11003"/>
      <point x="338.22613636797166" y="809.4120297885687"/>
      <point x="267.33870697021484" y="757.4402008056641" type="curve"/>
      <point x="267.33870697021484" y="1144.6264114379883" type="line"/>
      <point x="91.86099243164062" y="1144.6264114379883" type="line"/>
    </contour>
    <contour>
      <point x="773.07108" y="411.76613" type="curve" smooth="yes"/>
      <point x="773.07108" y="272.20548"/>
      <point x="659.76554" y="158.89995"/>
      <point x="520.2049" y="158.89995" type="curve" smooth="yes"/>
      <point x="380.64425" y="158.89995"/>
      <point x="267.33871" y="272.20548"/>
      <point x="267.33871" y="411.76613" type="curve" smooth="yes"/>
      <point x="267.33871" y="551.32677"/>
      <point x="380.64425" y="664.63231"/>
      <point x="520.2049" y="664.63231" type="curve" smooth="yes"/>
      <point x="659.76554" y="664.63231"/>
      <point x="773.07108" y="551.32677"/>
    </contour>
  </outline>
</glyph>
<glyph name="c" format="2">
  <advance width="952.9337186307931"/>
  <unicode hex="0063"/>
  <anchor x="483.21944323776427" y="936.1299956559513" name="above" identifier="above"/>
  <anchor x="483.21944323776427" y="-112.59774109470025" name="below" identifier="below"/>
  <anchor x="487.3638876822087" y="0" name="cedilla" identifier="cedilla"/>
  <outline>
    <contour>
      <point x="487.36389" y="158.89995" type="curve" smooth="yes"/>
      <point x="347.80324" y="158.89995"/>
      <point x="234.49771" y="272.20548"/>
      <point x="234.49771" y="411.76613" type="curve" smooth="yes"/>
      <point x="234.49771" y="551.32677"/>
      <point x="347.80324" y="664.63231"/>
      <point x="487.36389" y="664.63231" type="curve" smooth="yes"/>
      <point x="586.42333" y="664.63231"/>
      <point x="672.25522" y="607.54797"/>
      <point x="713.73022" y="524.48389" type="curve"/>
      <point x="900.69025" y="524.48389" type="line"/>
      <point x="851.15022" y="706.29525"/>
      <point x="684.7608" y="840.11003"/>
      <point x="487.36389" y="840.11003" type="curve" smooth="yes"/>
      <point x="250.95445" y="840.11003"/>
      <point x="59.01998" y="648.17556"/>
      <point x="59.01998" y="411.76613" type="curve" smooth="yes"/>
      <point x="59.01998" y="175.35669"/>
      <point x="250.95445" y="-16.57778"/>
      <point x="487.36389" y="-16.57778" type="curve" smooth="yes"/>
      <point x="684.76458" y="-16.57778"/>
      <point x="851.15659" y="117.24213"/>
      <point x="900.69306" y="299.04836" type="curve"/>
      <point x="713.73571" y="299.04836" type="line"/>
      <point x="672.26272" y="215.98928"/>
      <point x="586.42766" y="158.89995"/>
    </contour>
  </outline>
</glyph>
<glyph name="e" format="2">
  <advance width="974.7277753644175"/>
  <unicode hex="0065"/>
  <anchor x="487.3638876822087" y="936.1299956559513" name="above" identifier="above"/>
  <anchor x="487.3638876822087" y="-112.59774109470025" name="below" identifier="below"/>
  <anchor x="487.3638876822087" y="0" name="cedilla" identifier="cedilla"/>
  <anchor x="487.3638876822087" y="0" name="ogonek" identifier="ogonek"/>
  <outline>
    <contour>
      <point x="915.70779" y="411.76613" type="curve" smooth="yes"/>
      <point x="915.70779" y="648.17556"/>
      <point x="723.77332" y="840.11003"/>
      <point x="487.36389" y="840.11003" type="curve" smooth="yes"/>
      <point x="250.95445" y="840.11003"/>
      <point x="59.01998" y="648.17556"/>
      <point x="59.01998" y="411.76613" type="curve" smooth="yes"/>
      <point x="59.01998" y="175.35669"/>
      <point x="250.95445" y="-16.57778"/>
      <point x="487.36389" y="-16.57778" type="curve" smooth="yes"/>
      <point x="666.91827" y="-16.57778"/>
      <point x="820.8173" y="94.1395"/>
      <point x="884.45602" y="250.98636" type="curve"/>
      <point x="682.47509765625" y="250.98635864257812" type="line"/>
      <point x="636.08005" y="194.75958"/>
      <point x="565.87666" y="158.89995"/>
      <point x="487.36389" y="158.89995" type="curve" smooth="yes"/>
      <point x="374.7864543136" y="158.89995"/>
      <point x="279.2930651163" y="232.62716747194872"/>
      <point x="246.5752182006836" y="334.4344024658203" type="curve"/>
      <point x="908.7305526733398" y="334.4344024658203" type="line"/>
      <point x="913.31356" y="359.51272"/>
      <point x="915.70779" y="385.36203"/>
    </contour>
    <contour>
      <point x="487.36389" y="664.63231" type="curve" smooth="yes"/>
      <point x="598.28222073152" y="664.63231"/>
      <point x="692.6163554536736" y="593.0621661305378"/>
      <point x="726.665283203125" y="493.57959747314453" type="curve"/>
      <point x="248.06130981445312" y="493.57959747314453" type="line"/>
      <point x="282.1090474082998" y="593.060365086859"/>
      <point x="376.44415571430005" y="664.63231"/>
    </contour>
  </outline>
</glyph>
<glyph name="f" format="2">
  <advance width="596.025796965849"/>
  <unicode hex="0066"/>
  <outline>
    <contour>
      <point x="155.61894989013672" y="0" type="line"/>
      <point x="334.83702087402344" y="0" type="line"/>
      <point x="334.83702087402344" y="619.2875823974609" type="line"/>
      <point x="541.9476013183594" y="619.2875823974609" type="line"/>
      <point x="541.9476013183594" y="798.5056533813477" type="line"/>
      <point x="334.83702087402344" y="798.5056533813477" type="line"/>
      <point x="334.83702087402344" y="867.8138626617823" type="line"/>
      <point x="334.83702087402344" y="905.632779477738"/>
      <point x="336.9824265702704" y="957.0807985198244"/>
      <point x="445.97019" y="957.080800858225" type="curve"/>
      <point x="541.9476013183594" y="957.0808029174805" type="line"/>
      <point x="541.9476013183594" y="1136.2988662719727" type="line"/>
      <point x="445.9701919555664" y="1136.2988662719727" type="line"/>
      <point x="166.48985341474202" y="1136.2988662719727"/>
      <point x="155.61895006538478" y="937.9884384979839"/>
      <point x="155.61894994974347" y="845.94762" type="curve"/>
      <point x="155.61894989013672" y="798.5056533813477" type="line"/>
      <point x="44.69505310058594" y="798.5056533813477" type="line"/>
      <point x="44.69505310058594" y="619.2875823974609" type="line"/>
      <point x="155.61894989013672" y="619.2875823974609" type="line"/>
    </contour>
  </outline>
</glyph>
<glyph name="g" format="2">
  <advance width="1007.568783183705"/>
  <unicode hex="0067"/>
  <anchor x="491.50833212665316" y="936.1299956559513" name="above" identifier="above"/>
  <outline>
    <contour>
      <point x="740.2300720214844" y="49.46992492675781" type="line"/>
      <point x="740.2300720214844" y="-119.46585713934238"/>
      <point x="613.401072808932" y="-212.20344"/>
      <point x="490.17883" y="-212.20344" type="curve" smooth="yes"/>
      <point x="385.47399999999993" y="-212.20344"/>
      <point x="295.71372" y="-147.70928000000006"/>
      <point x="258.49096" y="-56.29887" type="curve"/>
      <point x="75.12661743164062" y="-56.298866271972656" type="line"/>
      <point x="118.03325000000001" y="-245.9326100000001"/>
      <point x="287.6830899999999" y="-387.68117"/>
      <point x="490.17883" y="-387.68117" type="curve" smooth="yes"/>
      <point x="697.5172589228915" y="-387.68117"/>
      <point x="915.7077911813639" y="-231.976325176148"/>
      <point x="915.7077899124346" y="57.8478" type="curve"/>
      <point x="915.7077865600586" y="823.5322494506836" type="line"/>
      <point x="740.2300720214844" y="823.5322494506836" type="line"/>
      <point x="740.2300720214844" y="757.4443969726562" type="line"/>
      <point x="669.3426472329284" y="809.4120297885686"/>
      <point x="581.90993129275" y="840.11003"/>
      <point x="487.36389" y="840.11003" type="curve" smooth="yes"/>
      <point x="250.95445" y="840.11003"/>
      <point x="59.01998" y="648.17556"/>
      <point x="59.01998" y="411.76613" type="curve" smooth="yes"/>
      <point x="59.01998" y="175.35669"/>
      <point x="250.95445" y="-16.57778"/>
      <point x="487.36389" y="-16.57778" type="curve" smooth="yes"/>
      <point x="581.90993129275" y="-16.57778"/>
      <point x="669.3426472329284" y="14.120220211431391"/>
      <point x="740.2300720214844" y="66.09204864501953" type="curve"/>
    </contour>
    <contour>
      <point x="740.23007" y="411.76613" type="curve" smooth="yes"/>
      <point x="740.23007" y="272.20548"/>
      <point x="626.92453" y="158.89995"/>
      <point x="487.36389" y="158.89995" type="curve" smooth="yes"/>
      <point x="347.80324" y="158.89995"/>
      <point x="234.49771" y="272.20548"/>
      <point x="234.49771" y="411.76613" type="curve" smooth="yes"/>
      <point x="234.49771" y="551.32677"/>
      <point x="347.80324" y="664.63231"/>
      <point x="487.36389" y="664.63231" type="curve" smooth="yes"/>
      <point x="626.92453" y="664.63231"/>
      <point x="740.23007" y="551.32677"/>
    </contour>
  </outline>
</glyph>
<glyph name="h" format="2">
  <advance width="922.4319654427646"/>
  <unicode hex="0068"/>
  <anchor x="468.2138228941685" y="1266.0259179265659" name="above" identifier="above"/>
  <anchor x="468.2138228941685" y="-111.96544276457884" name="below" identifier="below"/>
  <anchor x="177.2607451403888" y="1266.0259179265659" name="stem" identifier="stem"/>
  <anchor x="177.2607451403888" y="0" name="cedilla" identifier="cedilla"/>
  <anchor x="177.2607451403888" y="989.3743250539958" name="stroke" identifier="stroke"/>
  <outline>
    <contour>
      <point x="87.12310791015625" y="0" type="line"/>
      <point x="267.39837646484375" y="0" type="line"/>
      <point x="267.39837646484375" y="451.50343322753906" type="line"/>
      <point x="267.39837646484375" y="619.8746001519212"/>
      <point x="389.7751184775814" y="672.31887"/>
      <point x="468.21382" y="672.31887" type="curve" smooth="yes"/>
      <point x="546.6525220695257" y="672.31887"/>
      <point x="669.0292711462347" y="619.8745980716644"/>
      <point x="669.029269845491" y="451.50343" type="curve"/>
      <point x="669.0292663574219" y="0" type="line"/>
      <point x="849.3045425415039" y="0" type="line"/>
      <point x="849.3045425415039" y="451.50343322753906" type="line"/>
      <point x="849.3045425415039" y="733.4964397379106"/>
      <point x="672.269997795026" y="841.4104"/>
      <point x="512.92661" y="841.4104" type="curve" smooth="yes"/>
      <point x="400.6089084468699" y="841.4104"/>
      <point x="318.52231831911126" y="791.2431980353558"/>
      <point x="267.39837646484375" y="712.0999298095703" type="curve"/>
      <point x="267.39837646484375" y="1154.0604782104492" type="line"/>
      <point x="87.12310791015625" y="1154.0604782104492" type="line"/>
    </contour>
  </outline>
</glyph>
<glyph name="i" format="2">
  <advance width="362.94005212858383"/>
  <unicode hex="0069"/>
  <outline>
    <contour>
      <point x="304.85838" y="1041.7574" type="curve" smooth="yes"/>
      <point x="304.85838" y="1109.85729"/>
      <point x="249.56991" y="1165.14576"/>
      <point x="181.47003" y="1165.14576" type="curve" smooth="yes"/>
      <point x="113.37014" y="1165.14576"/>
      <point x="58.08167" y="1109.85729"/>
      <point x="58.08167" y="1041.7574" type="curve" smooth="yes"/>
      <point x="58.08167" y="973.65751"/>
      <point x="113.37014" y="918.36904"/>
      <point x="181.47003" y="918.36904" type="curve" smooth="yes"/>
      <point x="249.56991" y="918.36904"/>
      <point x="304.85838" y="973.65751"/>
    </contour>
    <contour>
      <point x="91.86099" y="0.0" type="line"/>
      <point x="271.07906" y="0.0" type="line"/>
      <point x="271.07906" y="823.53225" type="line"/>
      <point x="91.86099" y="823.53225" type="line"/>
    </contour>
  </outline>
</glyph>
<glyph name="j" format="2">
  <advance width="387.684746183443"/>
  <unicode hex="006A"/>
  <outline>
    <contour>
      <point x="325.16172272558026" y="1042.4227379918084" type="curve" smooth="yes"/>
      <point x="325.16172272558026" y="1114.8998594713664"/>
      <point x="266.3194945712796" y="1173.7420876256672"/>
      <point x="193.8423730917215" y="1173.7420876256672" type="curve" smooth="yes"/>
      <point x="121.36525161216335" y="1173.7420876256672"/>
      <point x="62.523023457862735" y="1114.8998594713664"/>
      <point x="62.523023457862735" y="1042.4227379918084" type="curve" smooth="yes"/>
      <point x="62.523023457862735" y="969.9456165122502"/>
      <point x="121.36525161216332" y="911.1033883579496"/>
      <point x="193.84237309172147" y="911.1033883579496" type="curve" smooth="yes"/>
      <point x="266.3194945712796" y="911.1033883579496"/>
      <point x="325.16172272558026" y="969.9456165122502"/>
    </contour>
    <contour>
      <point x="-140.1305694580078" y="-427.40225982666016" type="line"/>
      <point x="-22.372100830078125" y="-427.40225982666016" type="line"/>
      <point x="146.4164884672211" y="-427.40225890529973"/>
      <point x="283.45140871292045" y="-290.3673386596003"/>
      <point x="283.45140871292045" y="-121.5787513963013" type="curve"/>
      <point x="283.45140838623047" y="798.5056457519531" type="line"/>
      <point x="104.23333740234375" y="798.5056457519531" type="line"/>
      <point x="104.23333740234375" y="-121.57875061035156" type="line"/>
      <point x="104.23333747052254" y="-191.45419328549085"/>
      <point x="47.50334309311161" y="-248.18418766290182"/>
      <point x="-22.372098796077935" y="-248.18418766290182" type="curve"/>
      <point x="-140.1305694580078" y="-248.18418884277344" type="line"/>
    </contour>
  </outline>
</glyph>
<glyph name="k" format="2">
  <advance width="853.2093831450019"/>
  <unicode hex="006B"/>
  <anchor x="376.5724214968351" y="1257.2241529105127" name="above" identifier="above"/>
  <anchor x="376.5724214968351" y="-112.59774109470025" name="below" identifier="below"/>
  <anchor x="179.59985230234577" y="1257.2241529105127" name="stem" identifier="stem"/>
  <anchor x="457.2558548122405" y="-112.59774109470025" name="macronbelow" identifier="macronbelow"/>
  <outline>
    <contour>
      <point x="91.86099243164062" y="0" type="line"/>
      <point x="267.33870697021484" y="0" type="line"/>
      <point x="267.33870697021484" y="328.22645568847656" type="line"/>
      <point x="592.2976608276367" y="0" type="line"/>
      <point x="839.2285003662109" y="0" type="line"/>
      <point x="430.1680374145508" y="413.17359924316406" type="line"/>
      <point x="836.4415664672852" y="823.5322494506836" type="line"/>
      <point x="589.5107421875" y="823.5322494506836" type="line"/>
      <point x="267.33870697021484" y="498.12074279785156" type="line"/>
      <point x="267.33870697021484" y="1144.6264114379883" type="line"/>
      <point x="91.86099243164062" y="1144.6264114379883" type="line"/>
    </contour>
  </outline>
</glyph>
<glyph name="l" format="2">
  <advance width="371.82276281494353"/>
  <unicode hex="006C"/>
  <outline>
    <contour>
      <point x="96.30235" y="0.0" type="line"/>
      <point x="275.52042" y="0.0" type="line"/>
      <point x="275.52042" y="1136.29887" type="line"/>
      <point x="96.30235" y="1136.29887" type="line"/>
    </contour>
  </outline>
</glyph>
<glyph name="m" format="2">
  <advance width="1404.4378801042571"/>
  <unicode hex="006D"/>
  <outline>
    <contour>
      <point x="96.30235290527344" y="0" type="line"/>
      <point x="275.5204162597656" y="0" type="line"/>
      <point x="275.5204162597656" y="462.2241516113281" type="line"/>
      <point x="275.52042" y="557.18854"/>
      <point x="352.61945" y="634.28758"/>
      <point x="447.58384" y="634.28758" type="curve" smooth="yes"/>
      <point x="542.54823" y="634.28758"/>
      <point x="619.64726" y="557.18854"/>
      <point x="619.64726" y="462.22415" type="curve"/>
      <point x="619.6472625732422" y="0" type="line"/>
      <point x="798.8653335571289" y="0" type="line"/>
      <point x="798.8653335571289" y="462.2241516113281" type="line"/>
      <point x="798.86533" y="557.18854"/>
      <point x="875.96437" y="634.28758"/>
      <point x="970.92876" y="634.28758" type="curve" smooth="yes"/>
      <point x="1065.89315" y="634.28758"/>
      <point x="1142.99218" y="557.18854"/>
      <point x="1142.99218" y="462.22415" type="curve"/>
      <point x="1142.9921798706055" y="0" type="line"/>
      <point x="1322.2102508544922" y="0" type="line"/>
      <point x="1322.2102508544922" y="462.2241516113281" type="line"/>
      <point x="1322.21025" y="656.10169"/>
      <point x="1164.80629" y="813.50565"/>
      <point x="970.92876" y="813.50565" type="curve" smooth="yes"/>
      <point x="867.02338835518" y="813.50565"/>
      <point x="773.59411083536" y="768.2954265832766"/>
      <point x="709.2561950683594" y="696.4793701171875" type="curve"/>
      <point x="644.9181326579048" y="768.2955952990721"/>
      <point x="551.4890124079599" y="813.50565"/>
      <point x="447.5838399999999" y="813.50565" type="curve" smooth="yes"/>
      <point x="385.08955085733" y="813.50565"/>
      <point x="326.38495430202727" y="797.1509959194082"/>
      <point x="275.5204162597656" y="768.480842590332" type="curve"/>
      <point x="275.5204162597656" y="798.5056533813477" type="line"/>
      <point x="96.30235290527344" y="798.5056533813477" type="line"/>
    </contour>
  </outline>
</glyph>
<glyph name="n" format="2">
  <advance width="928.509122502172"/>
  <unicode hex="006E"/>
  <anchor x="471.2919200695047" y="936.1299956559513" name="above" identifier="above"/>
  <anchor x="471.2919200695047" y="-112.59774109470025" name="below" identifier="below"/>
  <anchor x="91.86099044309296" y="0" name="hookleft" identifier="hookleft"/>
  <outline>
    <contour>
      <point x="91.86099243164062" y="0" type="line"/>
      <point x="267.33870697021484" y="0" type="line"/>
      <point x="267.33870697021484" y="440.6791000366211" type="line"/>
      <point x="267.33870697021484" y="611.6116044498723"/>
      <point x="392.21639065168415" y="664.63231"/>
      <point x="471.29192" y="664.63231" type="curve" smooth="yes"/>
      <point x="550.3674493483159" y="664.63231"/>
      <point x="675.2451291985212" y="611.6116044315617"/>
      <point x="675.2451301062036" y="440.6791" type="curve"/>
      <point x="675.2451324462891" y="0" type="line"/>
      <point x="850.7228469848633" y="0" type="line"/>
      <point x="850.7228469848633" y="440.6791000366211" type="line"/>
      <point x="850.7228469848633" y="703.6709589061314"/>
      <point x="654.7163166923339" y="840.11003"/>
      <point x="471.29192" y="840.11003" type="curve" smooth="yes"/>
      <point x="396.24372917601" y="840.11003"/>
      <point x="326.2552565703724" y="818.2745029281867"/>
      <point x="267.33870697021484" y="780.6073913574219" type="curve"/>
      <point x="267.33870697021484" y="823.5322494506836" type="line"/>
      <point x="91.86099243164062" y="823.5322494506836" type="line"/>
    </contour>
  </outline>
</glyph>
<glyph name="o" format="2">
  <advance width="974.7277753644174"/>
  <unicode hex="006F"/>
  <anchor x="487.3638876822087" y="936.1299956559513" name="above" identifier="above"/>
  <anchor x="487.3638876822087" y="-112.59774109470025" name="below" identifier="below"/>
  <anchor x="487.3638876822087" y="0" name="ogonek" identifier="ogonek"/>
  <anchor x="487.3638876822087" y="411.76612728062554" name="stroke" identifier="stroke"/>
  <anchor x="487.3638876822087" y="840.1100323390289" name="horn" identifier="horn"/>
  <outline>
    <contour>
      <point x="915.70779" y="411.76613" type="curve" smooth="yes"/>
      <point x="915.70779" y="648.17556"/>
      <point x="723.77332" y="840.11003"/>
      <point x="487.36389" y="840.11003" type="curve" smooth="yes"/>
      <point x="250.95445" y="840.11003"/>
      <point x="59.01998" y="648.17556"/>
      <point x="59.01998" y="411.76613" type="curve" smooth="yes"/>
      <point x="59.01998" y="175.35669"/>
      <point x="250.95445" y="-16.57778"/>
      <point x="487.36389" y="-16.57778" type="curve" smooth="yes"/>
      <point x="723.77332" y="-16.57778"/>
      <point x="915.70779" y="175.35669"/>
    </contour>
    <contour>
      <point x="740.23007" y="411.76613" type="curve" smooth="yes"/>
      <point x="740.23007" y="272.20548"/>
      <point x="626.92453" y="158.89995"/>
      <point x="487.36389" y="158.89995" type="curve" smooth="yes"/>
      <point x="347.80324" y="158.89995"/>
      <point x="234.49771" y="272.20548"/>
      <point x="234.49771" y="411.76613" type="curve" smooth="yes"/>
      <point x="234.49771" y="551.32677"/>
      <point x="347.80324" y="664.63231"/>
      <point x="487.36389" y="664.63231" type="curve" smooth="yes"/>
      <point x="626.92453" y="664.63231"/>
      <point x="740.23007" y="551.32677"/>
    </contour>
  </outline>
</glyph>
<glyph name="p" format="2">
  <advance width="988.2693310165073"/>
  <unicode hex="0070"/>
  <outline>
    <contour>
      <point x="96.30235290527344" y="-427.40225982666016" type="line"/>
      <point x="275.5204162597656" y="-427.40225982666016" type="line"/>
      <point x="275.5204162597656" y="58.177574157714844" type="line"/>
      <point x="342.31737060903595" y="12.032760606178677"/>
      <point x="423.30426014444004" y="-14.999999999999936"/>
      <point x="510.5551700000001" y="-14.99999999999995" type="curve" smooth="yes"/>
      <point x="739.18752" y="-15.0"/>
      <point x="924.80799" y="170.62047"/>
      <point x="924.80799" y="399.25282" type="curve" smooth="yes"/>
      <point x="924.80799" y="627.88518"/>
      <point x="739.18752" y="813.50565"/>
      <point x="510.55517" y="813.50565" type="curve" smooth="yes"/>
      <point x="423.30426014444" y="813.50565"/>
      <point x="342.31737060903595" y="786.4728893938213"/>
      <point x="275.5204162597656" y="740.3270950317383" type="curve"/>
      <point x="275.5204162597656" y="798.5056533813477" type="line"/>
      <point x="96.30235290527344" y="798.5056533813477" type="line"/>
    </contour>
    <contour>
      <point x="745.58992" y="399.25282" type="curve" smooth="yes"/>
      <point x="745.58992" y="269.53361"/>
      <point x="640.27438" y="164.21807"/>
      <point x="510.55517" y="164.21807" type="curve" smooth="yes"/>
      <point x="380.83596" y="164.21807"/>
      <point x="275.52042" y="269.53361"/>
      <point x="275.52042" y="399.25282" type="curve" smooth="yes"/>
      <point x="275.52042" y="528.97203"/>
      <point x="380.83596" y="634.28758"/>
      <point x="510.55517" y="634.28758" type="curve" smooth="yes"/>
      <point x="640.27438" y="634.28758"/>
      <point x="745.58992" y="528.97203"/>
    </contour>
  </outline>
</glyph>
<glyph name="q" format="2">
  <advance width="1027.592960563155"/>
  <unicode hex="0071"/>
  <outline>
    <contour>
      <point x="500.25526" y="151.83317" type="curve" smooth="yes"/>
      <point x="356.47537" y="151.83317"/>
      <point x="239.74434" y="268.5642"/>
      <point x="239.74434" y="412.34409" type="curve"/>
      <point x="239.74434" y="556.12398"/>
      <point x="356.47537" y="672.85501"/>
      <point x="500.25526" y="672.85501" type="curve" smooth="yes"/>
      <point x="644.03515" y="672.85501"/>
      <point x="760.76618" y="556.12398"/>
      <point x="760.76618" y="412.34409" type="curve"/>
      <point x="760.76618" y="268.5642"/>
      <point x="644.03515" y="151.83317"/>
    </contour>
    <contour>
      <point x="760.7661819458008" y="-346.3201904296875" type="line"/>
      <point x="940.4698486328125" y="-346.3201904296875" type="line"/>
      <point x="940.4698486328125" y="824.6881713867188" type="line"/>
      <point x="769.1273880004883" y="824.6881713867188" type="line"/>
      <point x="769.1273880004883" y="702.3334579467773" type="line"/>
      <point x="700.4950738217054" y="787.805401349767"/>
      <point x="598.2784257804799" y="841.4104"/>
      <point x="473.2361499999999" y="841.4104" type="curve" smooth="yes"/>
      <point x="236.42801" y="841.4104"/>
      <point x="54.46652" y="649.15223"/>
      <point x="54.46652" y="412.34409" type="curve"/>
      <point x="54.46652" y="175.53595"/>
      <point x="236.42801" y="-16.72222"/>
      <point x="473.23615" y="-16.72222" type="curve" smooth="yes"/>
      <point x="593.29740336372" y="-16.72222"/>
      <point x="692.3153135791035" y="32.69716044153026"/>
      <point x="760.7661819458008" y="112.29055786132812" type="curve"/>
    </contour>
  </outline>
</glyph>
<glyph name="r" format="2">
  <advance width="641.8227628149435"/>
  <unicode hex="0072"/>
  <anchor x="349.06081668114683" y="911.1033883579496" name="above" identifier="above"/>
  <anchor x="288.8802283728435" y="-112.59774109470025" name="below" identifier="below"/>
  <anchor x="183.7740399652476" y="-112.59774109470025" name="stembelow" identifier="stembelow"/>
  <outline>
    <contour>
      <point x="96.30235290527344" y="0" type="line"/>
      <point x="271.2457275390625" y="0" type="line"/>
      <point x="271.2457275390625" y="345.9426574707031" type="line"/>
      <point x="271.2457275390625" y="505.94843003116205"/>
      <point x="368.6568610630885" y="623.562252338587"/>
      <point x="548.86533" y="623.5622609564305" type="curve"/>
      <point x="601.8192901611328" y="623.5622634887695" type="line"/>
      <point x="601.8192901611328" y="798.5056533813477" type="line"/>
      <point x="548.8653335571289" y="798.5056533813477" type="line"/>
      <point x="462.1189829400804" y="798.5056533813477"/>
      <point x="364.5303062268887" y="782.6763102747174"/>
      <point x="271.2457275390625" y="713.3524322509766" type="curve"/>
      <point x="271.2457275390625" y="798.5056533813477" type="line"/>
      <point x="96.30235290527344" y="798.5056533813477" type="line"/>
    </contour>
  </outline>
</glyph>
<glyph name="s" format="2">
  <advance width="831.6044390644793"/>
  <unicode hex="0073"/>
  <anchor x="414.202711202708" y="936.6536177105831" name="above" identifier="above"/>
  <anchor x="414.202711202708" y="-111.96544276457884" name="below" identifier="below"/>
  <anchor x="414.202711202708" y="0" name="cedilla" identifier="cedilla"/>
  <outline>
    <contour>
      <point x="51.667388916015625" y="246.28313446044922" type="line"/>
      <point x="51.66738891601564" y="62.82662147354134"/>
      <point x="234.23457814723403" y="-16.72221999999998"/>
      <point x="414.20271" y="-16.72222" type="curve" smooth="yes"/>
      <point x="616.2982700000001" y="-16.72222"/>
      <point x="779.93705" y="86.00404999999995"/>
      <point x="779.93705" y="239.12871" type="curve"/>
      <point x="779.93705" y="403.5519639417955"/>
      <point x="613.2571729642721" y="468.5765377128764"/>
      <point x="497.83778977777877" y="488.1532494224644" type="curve"/>
      <point x="369.5460450610884" y="509.9132903419399" type="line"/>
      <point x="339.9748299760615" y="514.9289743339987"/>
      <point x="237.55053" y="532.4629438211477"/>
      <point x="237.55053" y="590.55515" type="curve"/>
      <point x="237.55053" y="646.0976887930002"/>
      <point x="331.2123947771364" y="677.57768"/>
      <point x="414.20271" y="677.57768" type="curve" smooth="yes"/>
      <point x="590.3950315623493" y="677.57768"/>
      <point x="590.854890581314" y="600.910013151651"/>
      <point x="590.8548895983558" y="583.4007210571289" type="curve"/>
      <point x="590.8548889160156" y="571.2462921142578" type="line"/>
      <point x="762.7423629760742" y="571.2462921142578" type="line"/>
      <point x="762.7423629760742" y="583.4007225036621" type="line"/>
      <point x="762.7423629760742" y="762.473729069979"/>
      <point x="586.8618653253758" y="841.4104"/>
      <point x="414.20271" y="841.4104" type="curve" smooth="yes"/>
      <point x="219.78246999999993" y="841.4104"/>
      <point x="62.46405000000001" y="739.9440400000001"/>
      <point x="62.46405" y="590.55515" type="curve"/>
      <point x="62.46405000000001" y="429.3273662975781"/>
      <point x="224.39186000806635" y="365.10465095593236"/>
      <point x="336.4898576989678" y="346.06274454472464" type="curve"/>
      <point x="464.63038918823923" y="324.2957187426289" type="line"/>
      <point x="496.54224307973146" y="318.87490349412195"/>
      <point x="604.85057" y="300.2008797759302"/>
      <point x="604.85057" y="239.12871" type="curve"/>
      <point x="604.85057" y="179.77865700652723"/>
      <point x="502.52996429232337" y="147.1105"/>
      <point x="414.20271" y="147.1105" type="curve" smooth="yes"/>
      <point x="224.07608449092888" y="147.11050000000003"/>
      <point x="223.55485135794117" y="227.6422624972073"/>
      <point x="223.55484915419547" y="246.28313551757816" type="curve"/>
      <point x="223.55484771728516" y="258.43756103515625" type="line"/>
      <point x="51.667388916015625" y="258.43756103515625" type="line"/>
    </contour>
  </outline>
</glyph>
<glyph name="t" format="2">
  <advance width="596.4165722488617"/>
  <unicode hex="0074"/>
  <anchor x="291.6661488524934" y="1029.0629266476355" name="above" identifier="above"/>
  <anchor x="352.4670543444506" y="-112.59774109470025" name="below" identifier="below"/>
  <anchor x="238.32093367370965" y="1029.0629266476355" name="stem" identifier="stem"/>
  <anchor x="279.50596775410196" y="414.2089081957717" name="stroke" identifier="stroke"/>
  <anchor x="352.4670543444506" y="0" name="cedilla" identifier="cedilla"/>
  <anchor x="438.3903689473848" y="911.1033883579496" name="t_caron" identifier="t_caron"/>
  <outline>
    <contour>
      <point x="150.8492431640625" y="308.39766693115234" type="line"/>
      <point x="150.8492431640625" y="147.1067838993468"/>
      <point x="249.72726033065678" y="2.3209463234308894e-14"/>
      <point x="459.24691" y="-2.4492935982947065e-15" type="curve"/>
      <point x="547.0299530029297" y="0" type="line"/>
      <point x="547.0299530029297" y="174.94338989257812" type="line"/>
      <point x="453.70817131539684" y="174.94338989257812" type="line"/>
      <point x="326.95564544847105" y="174.94338989257815"/>
      <point x="325.79262992845537" y="280.5527120441477"/>
      <point x="325.79263018239635" y="308.39767" type="curve"/>
      <point x="325.7926330566406" y="623.5622634887695" type="line"/>
      <point x="547.0299530029297" y="623.5622634887695" type="line"/>
      <point x="547.0299530029297" y="798.5056533813477" type="line"/>
      <point x="325.7926330566406" y="798.5056533813477" type="line"/>
      <point x="325.7926330566406" y="972.7640609741211" type="line"/>
      <point x="150.8492431640625" y="972.7640609741211" type="line"/>
      <point x="150.8492431640625" y="798.5056533813477" type="line"/>
      <point x="36.30235290527344" y="798.5056533813477" type="line"/>
      <point x="36.30235290527344" y="623.5622634887695" type="line"/>
      <point x="150.8492431640625" y="623.5622634887695" type="line"/>
    </contour>
  </outline>
</glyph>
<glyph name="u" format="2">
  <advance width="922.4319654427646"/>
  <unicode hex="0075"/>
  <anchor x="454.2181425485961" y="936.6536177105831" name="above" identifier="above"/>
  <anchor x="454.2181425485961" y="-111.96544276457884" name="below" identifier="below"/>
  <anchor x="835.3088552915767" y="0" name="ogonek" identifier="ogonek"/>
  <anchor x="835.3088552915767" y="824.6881749460043" name="horn" identifier="horn"/>
  <outline>
    <contour>
      <point x="73.12743377685547" y="373.18475341796875" type="line"/>
      <point x="73.12743377685548" y="91.19174690759723"/>
      <point x="250.1619722049739" y="-16.722219999999982"/>
      <point x="409.50536" y="-16.72222" type="curve" smooth="yes"/>
      <point x="529.8488897926501" y="-16.72222"/>
      <point x="615.4865292525543" y="40.87067759954718"/>
      <point x="665.5183410644531" y="129.98878479003906" type="curve"/>
      <point x="665.5183410644531" y="0" type="line"/>
      <point x="835.3088607788086" y="0" type="line"/>
      <point x="835.3088607788086" y="824.6881713867188" type="line"/>
      <point x="655.0335922241211" y="824.6881713867188" type="line"/>
      <point x="655.0335922241211" y="373.18475341796875" type="line"/>
      <point x="655.0335922241211" y="204.81358649358666"/>
      <point x="532.6568415224186" y="152.3693"/>
      <point x="454.21814" y="152.3693" type="curve" smooth="yes"/>
      <point x="375.7794379304742" y="152.3693"/>
      <point x="253.40269926631768" y="204.81358192833554"/>
      <point x="253.40270009889824" y="373.18475" type="curve"/>
      <point x="253.40270233154297" y="824.6881713867188" type="line"/>
      <point x="73.12743377685547" y="824.6881713867188" type="line"/>
    </contour>
  </outline>
</glyph>
<glyph name="v" format="2">
  <advance width="939.9721980886177"/>
  <unicode hex="0076"/>
  <anchor x="469.9860990443093" y="911.1033883579496" name="above" identifier="above"/>
  <anchor x="469.9860990443093" y="-112.59774109470025" name="below" identifier="below"/>
  <outline>
    <contour>
      <point x="375.12328338623047" y="0" type="line"/>
      <point x="564.8489227294922" y="0" type="line"/>
      <point x="899.9687194824219" y="798.5056533813477" type="line"/>
      <point x="710.2430877685547" y="798.5056533813477" type="line"/>
      <point x="469.98609924316406" y="226.0340805053711" type="line"/>
      <point x="229.72911071777344" y="798.5056533813477" type="line"/>
      <point x="40.00347900390625" y="798.5056533813477" type="line"/>
    </contour>
  </outline>
</glyph>
<glyph name="w" format="2">
  <advance width="1374.3758099352053"/>
  <unicode hex="0077"/>
  <anchor x="687.1879049676027" y="936.6536177105831" name="above" identifier="above"/>
  <anchor x="687.1879049676027" y="-111.96544276457884" name="below" identifier="below"/>
  <outline>
    <contour>
      <point x="1329.2397384643555" y="824.6881713867188" type="line"/>
      <point x="1140.5379180908203" y="824.6881713867188" type="line"/>
      <point x="963.267822265625" y="232.0846405029297" type="line"/>
      <point x="773.0158767700195" y="816.3270568847656" type="line"/>
      <point x="601.3599319458008" y="816.3270568847656" type="line"/>
      <point x="411.1079864501953" y="232.0846405029297" type="line"/>
      <point x="233.837890625" y="824.6881713867188" type="line"/>
      <point x="45.136070251464844" y="824.6881713867188" type="line"/>
      <point x="302.8771667480469" y="0" type="line"/>
      <point x="502.57579040527344" y="0" type="line"/>
      <point x="687.1879043579102" y="578.7107391357422" type="line"/>
      <point x="871.8000183105469" y="0" type="line"/>
      <point x="1071.4986419677734" y="0" type="line"/>
    </contour>
  </outline>
</glyph>
<glyph name="x" format="2">
  <advance width="911.8227628148663"/>
  <unicode hex="0078"/>
  <outline>
    <contour>
      <point x="54.07819366455078" y="0" type="line"/>
      <point x="275.83631896972656" y="0" type="line"/>
      <point x="455.91138458251953" y="247.10244750976562" type="line"/>
      <point x="635.986442565918" y="0" type="line"/>
      <point x="857.7445678710938" y="0" type="line"/>
      <point x="566.7904434204102" y="399.25282287597656" type="line"/>
      <point x="857.7445678710938" y="798.5056457519531" type="line"/>
      <point x="635.986442565918" y="798.5056457519531" type="line"/>
      <point x="455.91138458251953" y="551.4031982421875" type="line"/>
      <point x="275.83631896972656" y="798.5056457519531" type="line"/>
      <point x="54.07819366455078" y="798.5056457519531" type="line"/>
      <point x="345.0323181152344" y="399.25282287597656" type="line"/>
    </contour>
  </outline>
</glyph>
<glyph name="y" format="2">
  <advance width="939.9721980886185"/>
  <unicode hex="0079"/>
  <anchor x="469.9860990443093" y="911.1033883579496" name="above" identifier="above"/>
  <anchor x="777.1165446195854" y="-112.59774109470025" name="below" identifier="below"/>
  <outline>
    <contour>
      <point x="195.74951934814453" y="-427.40225982666016" type="line"/>
      <point x="385.4751510620117" y="-427.40225982666016" type="line"/>
      <point x="564.8489170074463" y="7.62939453125e-06" type="line"/>
      <point x="899.9687194824219" y="798.5056533813477" type="line"/>
      <point x="710.2430877685547" y="798.5056533813477" type="line"/>
      <point x="469.98609924316406" y="226.0340805053711" type="line"/>
      <point x="229.72911071777344" y="798.5056533813477" type="line"/>
      <point x="40.00347900390625" y="798.5056533813477" type="line"/>
      <point x="375.12328338623047" y="0" type="line"/>
    </contour>
  </outline>
</glyph>
<glyph name="z" format="2">
  <advance width="828.1563857516064"/>
  <unicode hex="007A"/>
  <anchor x="414.0781928757602" y="936.1299956559513" name="above" identifier="above"/>
  <anchor x="414.0781928757602" y="-112.59774109470025" name="below" identifier="below"/>
  <anchor x="414.0781928757602" y="420.05501616951443" name="stroke" identifier="stroke"/>
  <outline>
    <contour>
      <point x="77.78627014160156" y="0" type="line"/>
      <point x="750.3701095581055" y="0" type="line"/>
      <point x="750.3701095581055" y="175.47772216796875" type="line"/>
      <point x="316.10291290283203" y="175.47772216796875" type="line"/>
      <point x="750.3701095581055" y="648.0545272827148" type="line"/>
      <point x="750.3701095581055" y="823.5322494506836" type="line"/>
      <point x="77.78627014160156" y="823.5322494506836" type="line"/>
      <point x="77.78627014160156" y="648.0545272827148" type="line"/>
      <point x="512.0534820556641" y="648.0545272827148" type="line"/>
      <point x="77.78627014160156" y="175.47772216796875" type="line"/>
    </contour>
  </outline>
</glyph>
<glyph name="braceleft" format="2">
  <advance width="601.7098175499566"/>
  <unicode hex="007B"/>
  <outline>
    <contour>
      <point x="227.6663816595318" y="200.0" type="line"/>
      <point x="227.66638304730904" y="42.66073451928108"/>
      <point x="323.00352598694866" y="-89.60904153916364"/>
      <point x="517.27541" y="-89.60903982336063" type="curve"/>
      <point x="575.7810592651367" y="-89.60903930664062" type="line"/>
      <point x="575.7810592651367" y="89.60903930664062" type="line"/>
      <point x="508.796950557723" y="89.60903930664062" type="line"/>
      <point x="487.2352034209087" y="89.60903930664062"/>
      <point x="406.88444878491066" y="90.30640271628667"/>
      <point x="406.8844502709423" y="200.0" type="curve"/>
      <point x="406.88445254888194" y="368.1494369506836" type="line"/>
      <point x="406.88445347781396" y="436.71990767805346"/>
      <point x="393.83754792997786" y="505.8858002823396"/>
      <point x="337.92015075683594" y="568.1534652709961" type="curve"/>
      <point x="393.8375488255245" y="630.4106213638829"/>
      <point x="406.8844493420371" y="699.5809440605326"/>
      <point x="406.88445027094235" y="768.14944" type="curve"/>
      <point x="406.88445266374066" y="944.7773299395586" type="line"/>
      <point x="406.8844529558401" y="966.3390770763729"/>
      <point x="407.5818127162867" y="1046.6898334671428"/>
      <point x="517.27541" y="1046.6898292268918" type="curve"/>
      <point x="575.7810592651367" y="1046.689826965332" type="line"/>
      <point x="575.7810592651367" y="1225.9079132080078" type="line"/>
      <point x="517.2754135131836" y="1225.9079132080078" type="line"/>
      <point x="359.93614803246464" y="1225.9079132080078"/>
      <point x="227.6663784628722" y="1130.5707540130513"/>
      <point x="227.6663801764057" y="936.29887" type="curve"/>
      <point x="227.66638173431426" y="759.6709730022372" type="line"/>
      <point x="227.66638192449503" y="738.109225865423"/>
      <point x="226.96900728371332" y="657.758471567606"/>
      <point x="117.27541" y="657.7584696504531" type="curve"/>
      <point x="58.76976776123047" y="657.7584686279297" type="line"/>
      <point x="58.76976776123047" y="478.54039764404297" type="line"/>
      <point x="117.2754135131836" y="478.54039764404297" type="line"/>
      <point x="226.96901446783465" y="478.54039764404297"/>
      <point x="227.6663799114424" y="398.18966103580993"/>
      <point x="227.66638010162322" y="376.6279070371725" type="curve"/>
    </contour>
  </outline>
</glyph>
<glyph name="bar" format="2">
  <advance width="463.4335360556038"/>
  <unicode hex="007C"/>
  <outline>
    <contour>
      <point x="142.10773" y="-89.60904" type="line"/>
      <point x="321.3258" y="-89.60904" type="line"/>
      <point x="321.3258" y="1234.23545" type="line"/>
      <point x="142.10773" y="1234.23545" type="line"/>
    </contour>
  </outline>
</glyph>
<glyph name="braceright" format="2">
  <advance width="560.9474194064476"/>
  <unicode hex="007D"/>
  <outline>
    <contour>
      <point x="51.71209716796875" y="-85.34996795654297" type="line"/>
      <point x="268.12454541272564" y="-85.34996795654297"/>
      <point x="355.1404504188504" y="43.347205315990436"/>
      <point x="355.1404499415996" y="206.78826" type="curve"/>
      <point x="355.1404495616806" y="336.8967369756328" type="line"/>
      <point x="355.1404494904383" y="361.29464651587386"/>
      <point x="356.03333493895934" y="451.2646967400046"/>
      <point x="476.5787399999999" y="451.2646886593112" type="curve"/>
      <point x="507.5305709838867" y="451.26468658447266" type="line"/>
      <point x="507.5305709838867" y="633.254753112793" type="line"/>
      <point x="469.50840766553085" y="633.254753112793" type="line"/>
      <point x="445.1104981252898" y="633.254753112793"/>
      <point x="355.1404502935943" y="634.1476349389591"/>
      <point x="355.1404499415996" y="754.69304" type="curve"/>
      <point x="355.14044958232614" y="877.7311782836914" type="line"/>
      <point x="355.14044896710055" y="1088.4236340779848"/>
      <point x="218.4005410804113" y="1169.8694167545975"/>
      <point x="51.71210000000003" y="1169.8694090790552" type="curve"/>
      <point x="20.76026153564453" y="1169.8694076538086" type="line"/>
      <point x="20.76026153564453" y="999.1694717407227" type="line"/>
      <point x="58.78243480565891" y="999.1694717407227" type="line"/>
      <point x="83.18034434589997" y="999.1694717407227"/>
      <point x="173.15037815261405" y="998.2765850610408"/>
      <point x="173.150380367473" y="877.73118" type="curve"/>
      <point x="173.1503826281325" y="754.6930389404297" type="line"/>
      <point x="173.15038399639712" y="680.2241795494145"/>
      <point x="189.14593618512825" y="603.9365668212274"/>
      <point x="256.78809356689453" y="542.2558441162109" type="curve"/>
      <point x="189.14594129089448" y="480.5852720995838"/>
      <point x="173.1503789992441" y="404.29331398057025"/>
      <point x="173.15038036747302" y="329.8263999999999" type="curve"/>
      <point x="173.15038275804028" y="199.71792962952566" type="line"/>
      <point x="173.1503832063189" y="175.3200200892846"/>
      <point x="172.2575050610408" y="85.34997403243966"/>
      <point x="51.71210000000002" y="85.34996919788684" type="curve"/>
      <point x="20.76026153564453" y="85.34996795654297" type="line"/>
      <point x="20.76026153564453" y="-85.34996795654297" type="line"/>
    </contour>
  </outline>
</glyph>
<glyph name="tilde" format="2">
  <advance width="1034.5213257406929"/>
  <unicode hex="007E"/>
  <outline>
    <contour>
      <point x="490.8368725739907" y="404.8684593757878" type="line"/>
      <point x="564.466012786104" y="362.3586617826963"/>
      <point x="610.4314138629252" y="348.00391"/>
      <point x="663.05825" y="348.00391" type="curve"/>
      <point x="814.9235900000001" y="348.00391"/>
      <point x="938.21898" y="471.29929999999985"/>
      <point x="938.21898" y="623.16464" type="curve"/>
      <point x="759.0009078979492" y="623.1646423339844" type="line"/>
      <point x="759.0009099999997" y="570.2124551000976"/>
      <point x="716.01044" y="527.22198"/>
      <point x="663.05825" y="527.22198" type="curve"/>
      <point x="639.6792004988008" y="527.22198"/>
      <point x="621.5208016419368" y="536.36125692812"/>
      <point x="594.3086959359247" y="552.0721725267238" type="curve"/>
      <point x="543.6844584507983" y="581.3000878878187" type="line"/>
      <point x="470.05531985898955" y="623.8098882873603"/>
      <point x="424.08991613707485" y="638.16464"/>
      <point x="371.46308" y="638.16464" type="curve"/>
      <point x="219.59774" y="638.16464"/>
      <point x="96.30235000000002" y="514.8692500000002"/>
      <point x="96.30235" y="363.00391" type="curve"/>
      <point x="275.5204162597656" y="363.00390625" type="line"/>
      <point x="275.52041999999955" y="415.9560934838867"/>
      <point x="318.51089" y="458.94657"/>
      <point x="371.46308" y="458.94657" type="curve"/>
      <point x="394.84213310853374" y="458.94657"/>
      <point x="413.0005169201254" y="449.80729357509495"/>
      <point x="440.2126245495907" y="434.0963782489415" type="curve"/>
    </contour>
  </outline>
</glyph>
<glyph name="inv_exclamation" format="2">
  <advance width="437.1607298001737"/>
  <unicode hex="00A1"/>
  <outline>
    <contour>
      <point x="95.19201" y="716.72167" type="curve" smooth="yes"/>
      <point x="95.19201" y="648.62179"/>
      <point x="150.48048" y="593.33332"/>
      <point x="218.58036" y="593.33332" type="curve" smooth="yes"/>
      <point x="286.68025" y="593.33332"/>
      <point x="341.96872" y="648.62179"/>
      <point x="341.96872" y="716.72167" type="curve" smooth="yes"/>
      <point x="341.96872" y="784.82156"/>
      <point x="286.68025" y="840.11003"/>
      <point x="218.58036" y="840.11003" type="curve" smooth="yes"/>
      <point x="150.48048" y="840.11003"/>
      <point x="95.19201" y="784.82156"/>
    </contour>
    <contour>
      <point x="308.1894" y="502.94235" type="line"/>
      <point x="128.97133" y="502.94235" type="line"/>
      <point x="128.97133" y="-260.63152" type="line"/>
      <point x="308.1894" y="-260.63152" type="line"/>
    </contour>
  </outline>
</glyph>
<glyph name="invertedexclam" format="2">
  <advance width="439.3814074717636"/>
  <unicode hex="00A1"/>
  <outline>
    <contour>
      <point x="96.30234578627281" y="690.1172893136403" type="curve" smooth="yes"/>
      <point x="96.30234578627281" y="622.0174012681147"/>
      <point x="151.59081569035618" y="566.7289313640313"/>
      <point x="219.6907037358818" y="566.7289313640313" type="curve" smooth="yes"/>
      <point x="287.79059178140744" y="566.7289313640313"/>
      <point x="343.07906168549084" y="622.0174012681147"/>
      <point x="343.07906168549084" y="690.1172893136403" type="curve" smooth="yes"/>
      <point x="343.07906168549084" y="758.2171773591658"/>
      <point x="287.7905917814075" y="813.5056472632493"/>
      <point x="219.6907037358819" y="813.5056472632493" type="curve" smooth="yes"/>
      <point x="151.59081569035624" y="813.5056472632493"/>
      <point x="96.30234578627281" y="758.2171773591659"/>
    </contour>
    <contour>
      <point x="309.29973935708074" y="476.33796698523025" type="line"/>
      <point x="130.08166811468286" y="476.33796698523025" type="line"/>
      <point x="130.08166811468277" y="-296.4943527367506" type="line"/>
      <point x="309.2997393570807" y="-296.4943527367506" type="line"/>
    </contour>
  </outline>
</glyph>
<glyph name="cent" format="2">
  <advance width="934.5469373608547"/>
  <unicode hex="00A2"/>
  <anchor x="477.71416159860985" y="1023.7011294526499" name="above" identifier="above"/>
  <anchor x="477.71416159860985" y="0" name="below" identifier="below"/>
  <anchor x="477.71416159860985" y="112.59774109470025" name="cedilla" identifier="cedilla"/>
  <outline>
    <contour>
      <point x="410.4451599121094" y="0" type="line"/>
      <point x="544.9831695556641" y="0" type="line"/>
      <point x="544.9831695556641" y="103.0484619140625" type="line"/>
      <point x="704.681793473371" y="129.1665544171529"/>
      <point x="833.79600269312" y="246.74895815871997"/>
      <point x="876.71112" y="400.19281" type="curve"/>
      <point x="689.3917617797852" y="400.19281005859375" type="line"/>
      <point x="659.46022333179" y="343.61227918615"/>
      <point x="607.5083360083026" y="300.4468474788763"/>
      <point x="544.9831695556641" y="282.15716552734375" type="curve"/>
      <point x="544.9831695556641" y="741.5436630249023" type="line"/>
      <point x="607.5003470717959" y="723.2552334499935"/>
      <point x="659.4469683862501" y="680.0943575701"/>
      <point x="689.38027" y="623.50832" type="curve"/>
      <point x="876.7154922485352" y="623.5083236694336" type="line"/>
      <point x="833.80447789956" y="776.94635320868"/>
      <point x="704.686884420529" y="894.5340737834689"/>
      <point x="544.9831695556641" y="920.6542434692383" type="curve"/>
      <point x="544.9831695556641" y="1023.7011337280273" type="line"/>
      <point x="410.4451599121094" y="1023.7011337280273" type="line"/>
      <point x="410.4451599121094" y="920.6516723632812" type="line"/>
      <point x="213.75679214706216" y="888.4842226349114"/>
      <point x="63.46134000000001" y="717.58058786644"/>
      <point x="63.461340000000064" y="511.85056000000003" type="curve" smooth="yes"/>
      <point x="63.46134" y="306.12054113185"/>
      <point x="213.75679214706216" y="135.2169072647464"/>
      <point x="410.4451599121094" y="103.05046081542969" type="curve"/>
    </contour>
    <contour>
      <point x="238.40473000000006" y="511.85056" type="curve" smooth="yes"/>
      <point x="238.40473" y="620.577564736"/>
      <point x="311.0706736271104" y="712.4664428004352"/>
      <point x="410.4451599121094" y="741.5460357666016" type="curve"/>
      <point x="410.4451599121094" y="282.1568908691406" type="line"/>
      <point x="311.0706736271104" y="311.2346868869824"/>
      <point x="238.40473000000003" y="403.123563496"/>
    </contour>
  </outline>
</glyph>
<glyph name="pound" format="2">
  <advance width="977.0356211989574"/>
  <unicode hex="00A3"/>
  <outline>
    <contour>
      <point x="82.22763061523438" y="0" type="line"/>
      <point x="880.7332763671875" y="0" type="line"/>
      <point x="880.7332763671875" y="179.21807098388672" type="line"/>
      <point x="374.04344177246094" y="179.21807098388672" type="line"/>
      <point x="374.04344177246094" y="429.4838180541992" type="line"/>
      <point x="711.8366622924805" y="429.4838180541992" type="line"/>
      <point x="711.8366622924805" y="564.0218276977539" type="line"/>
      <point x="374.04344177246094" y="564.0218276977539" type="line"/>
      <point x="374.04344177246094" y="712.0460510253906" type="line"/>
      <point x="374.04344177246094" y="891.3607093273166"/>
      <point x="479.4663187530508" y="915.78193"/>
      <point x="537.77932" y="915.78193" type="curve" smooth="yes"/>
      <point x="628.14761" y="915.78193"/>
      <point x="701.5152" y="842.41434"/>
      <point x="701.5152" y="752.04605" type="curve"/>
      <point x="880.7332763671875" y="752.0460510253906" type="line"/>
      <point x="880.73328" y="941.3274800000002"/>
      <point x="727.0607600000001" y="1095.0"/>
      <point x="537.77932" y="1095.0" type="curve" smooth="yes"/>
      <point x="398.23723539533734" y="1095.0"/>
      <point x="194.82536893316623" y="1006.4172744784095"/>
      <point x="194.82537016776013" y="712.04605" type="curve"/>
      <point x="194.82537078857422" y="564.0218276977539" type="line"/>
      <point x="82.22763061523438" y="564.0218276977539" type="line"/>
      <point x="82.22763061523438" y="429.4838180541992" type="line"/>
      <point x="194.82537078857422" y="429.4838180541992" type="line"/>
      <point x="194.82537078857422" y="179.21807098388672" type="line"/>
      <point x="82.22763061523438" y="179.21807098388672" type="line"/>
    </contour>
  </outline>
</glyph>
<glyph name="currency" format="2">
  <advance width="1020.8020914147605"/>
  <unicode hex="00A4"/>
  <outline>
    <contour>
      <point x="843.77637" y="542.08189" type="curve" smooth="yes"/>
      <point x="843.77637" y="609.77671954828"/>
      <point x="823.5557935557894" y="672.7860482914853"/>
      <point x="788.8302841186523" y="725.3783798217773" type="curve"/>
      <point x="981.9089584350586" y="918.4570617675781" type="line"/>
      <point x="886.7762222290039" y="1013.5897903442383" type="line"/>
      <point x="693.6968536376953" y="820.5104293823242" type="line"/>
      <point x="641.0918546386886" y="855.2409188251611"/>
      <point x="578.0887074283" y="875.45721"/>
      <point x="510.40105000000005" y="875.4572099999999" type="curve" smooth="yes"/>
      <point x="442.713024582" y="875.45721"/>
      <point x="379.70955896416854" y="855.2406990093947"/>
      <point x="327.10455322265625" y="820.511116027832" type="curve"/>
      <point x="134.02587890625" y="1013.5897903442383" type="line"/>
      <point x="38.89314270019531" y="918.4570617675781" type="line"/>
      <point x="231.97250366210938" y="725.3776931762695" type="line"/>
      <point x="197.2465176369097" y="672.786733329861"/>
      <point x="177.02572000000004" y="609.7770875379601"/>
      <point x="177.02572000000006" y="542.0818900000002" type="curve" smooth="yes"/>
      <point x="177.02572" y="474.38705677255"/>
      <point x="197.2462977978399" y="411.37772570380383"/>
      <point x="231.97181701660156" y="358.78539276123047" type="curve"/>
      <point x="38.89314270019531" y="165.70671844482422" type="line"/>
      <point x="134.02587890625" y="70.57398223876953" type="line"/>
      <point x="327.10523986816406" y="263.6533432006836" type="line"/>
      <point x="379.7102440079692" y="228.92285117483888"/>
      <point x="442.71339257169996" y="208.70655999999997"/>
      <point x="510.40104999999994" y="208.70655999999997" type="curve" smooth="yes"/>
      <point x="578.089075418" y="208.70656"/>
      <point x="641.0925396824746" y="228.9230709906053"/>
      <point x="693.6975402832031" y="263.65264892578125" type="curve"/>
      <point x="886.7762222290039" y="70.57398223876953" type="line"/>
      <point x="981.9089584350586" y="165.70671844482422" type="line"/>
      <point x="788.82958984375" y="358.7860794067383" type="line"/>
      <point x="823.5555737167343" y="411.37704066540294"/>
      <point x="843.77637" y="474.38668878285"/>
    </contour>
    <contour>
      <point x="664.5583" y="542.08189" type="curve" smooth="yes"/>
      <point x="664.5583" y="457.00018"/>
      <point x="595.48275" y="387.92463"/>
      <point x="510.40105" y="387.92463" type="curve" smooth="yes"/>
      <point x="425.31934" y="387.92463"/>
      <point x="356.24379" y="457.00018"/>
      <point x="356.24379" y="542.08189" type="curve" smooth="yes"/>
      <point x="356.24379" y="627.16359"/>
      <point x="425.31934" y="696.23914"/>
      <point x="510.40105" y="696.23914" type="curve" smooth="yes"/>
      <point x="595.48275" y="696.23914"/>
      <point x="664.5583" y="627.16359"/>
    </contour>
  </outline>
</glyph>
<glyph name="yen" format="2">
  <advance width="1044.7872570194386"/>
  <unicode hex="00A5"/>
  <outline>
    <contour>
      <point x="122.35043334960938" y="172.7201919555664" type="line"/>
      <point x="432.54178619384766" y="172.7201919555664" type="line"/>
      <point x="432.54178619384766" y="0" type="line"/>
      <point x="612.2454605102539" y="0" type="line"/>
      <point x="612.2454605102539" y="172.7201919555664" type="line"/>
      <point x="922.4368286132812" y="172.7201919555664" type="line"/>
      <point x="922.4368286132812" y="310.2237014770508" type="line"/>
      <point x="612.2454605102539" y="310.2237014770508" type="line"/>
      <point x="612.2454605102539" y="404.11138916015625" type="line"/>
      <point x="922.4368286132812" y="404.11138916015625" type="line"/>
      <point x="922.4368286132812" y="541.6148986816406" type="line"/>
      <point x="697.8978500366211" y="541.6148986816406" type="line"/>
      <point x="1036.0788269042969" y="1084.5194396972656" type="line"/>
      <point x="826.9840393066406" y="1084.5194396972656" type="line"/>
      <point x="522.3936309814453" y="594.2505111694336" type="line"/>
      <point x="217.80322265625" y="1084.5194396972656" type="line"/>
      <point x="8.708419799804688" y="1084.5194396972656" type="line"/>
      <point x="346.88939666748047" y="541.6148986816406" type="line"/>
      <point x="122.35043334960938" y="541.6148986816406" type="line"/>
      <point x="122.35043334960938" y="404.11138916015625" type="line"/>
      <point x="432.54178619384766" y="404.11138916015625" type="line"/>
      <point x="432.54178619384766" y="310.2237014770508" type="line"/>
      <point x="122.35043334960938" y="310.2237014770508" type="line"/>
    </contour>
  </outline>
</glyph>
<glyph name="brokenbar" format="2">
  <advance width="465.65421372719373"/>
  <unicode hex="00A6"/>
  <outline>
    <contour>
      <point x="143.21807" y="652.59774" type="line"/>
      <point x="322.43614" y="652.59774" type="line"/>
      <point x="322.43614" y="1225.90791" type="line"/>
      <point x="143.21807" y="1225.90791" type="line"/>
    </contour>
    <contour>
      <point x="143.21807" y="-89.60904" type="line"/>
      <point x="322.43614" y="-89.60904" type="line"/>
      <point x="322.43614" y="483.70113" type="line"/>
      <point x="143.21807" y="483.70113" type="line"/>
    </contour>
  </outline>
</glyph>
<glyph name="section" format="2">
  <advance width="821.0603822762815"/>
  <unicode hex="00A7"/>
  <outline>
    <contour>
      <point x="88.62380981445312" y="44.40357971191406" type="line"/>
      <point x="88.62381" y="-98.33721"/>
      <point x="232.67533" y="-214.52313"/>
      <point x="410.53019" y="-214.52313" type="curve" smooth="yes"/>
      <point x="588.38505" y="-214.52313"/>
      <point x="732.43658" y="-98.33721"/>
      <point x="732.43658" y="44.40358" type="curve"/>
      <point x="732.43658" y="117.51772825071001"/>
      <point x="694.6562331232861" y="183.7077166458979"/>
      <point x="633.8835830688477" y="230.82544708251953" type="curve"/>
      <point x="699.0088117679109" y="283.56556340157874"/>
      <point x="739.8300403684686" y="359.05006557631634"/>
      <point x="739.9428763389587" y="443.1200532913208" type="curve"/>
      <point x="739.9431481550448" y="601.3246568675675"/>
      <point x="606.3171233737296" y="687.9087865158391"/>
      <point x="505.12703075892017" y="720.51099275001" type="curve"/>
      <point x="364.72401675694897" y="765.7471211110739" type="line"/>
      <point x="338.3135041521227" y="774.2562642143455"/>
      <point x="275.34839" y="795.6260232573131"/>
      <point x="275.34839" y="841.81484" type="curve"/>
      <point x="275.34839" y="888.0953971416603"/>
      <point x="339.98739303050786" y="921.52348"/>
      <point x="410.53019" y="921.52348" type="curve" smooth="yes"/>
      <point x="485.34486" y="921.52348"/>
      <point x="545.71199" y="885.68599"/>
      <point x="545.71199" y="841.81483" type="curve"/>
      <point x="724.930061340332" y="841.814826965332" type="line"/>
      <point x="724.93006" y="984.57339"/>
      <point x="584.1313" y="1100.74155"/>
      <point x="410.53019" y="1100.74155" type="curve" smooth="yes"/>
      <point x="236.92908" y="1100.74155"/>
      <point x="96.13032" y="984.57339"/>
      <point x="96.13032" y="841.81483" type="curve"/>
      <point x="96.13032" y="769.77720968716"/>
      <point x="131.96734254751152" y="704.4645223752224"/>
      <point x="189.7946548461914" y="657.4947052001953" type="curve"/>
      <point x="123.14710923206171" y="604.6640857007187"/>
      <point x="81.23152898688556" y="528.2841561962555"/>
      <point x="81.11750268936157" y="443.09836864471436" type="curve"/>
      <point x="81.11723170195597" y="283.812866129165"/>
      <point x="216.49293584447196" y="197.21281520041987"/>
      <point x="317.98242387956486" y="165.17340434590238" type="curve"/>
      <point x="461.6916445713629" y="119.80556522807223" type="line"/>
      <point x="488.532129621805" y="111.3322410965297"/>
      <point x="553.21851" y="89.93657817938328"/>
      <point x="553.21851" y="44.40358" type="curve"/>
      <point x="553.21851" y="-2.5616596338617725"/>
      <point x="484.36029197917867" y="-35.30506"/>
      <point x="410.53019" y="-35.30506" type="curve" smooth="yes"/>
      <point x="331.54018" y="-35.30506"/>
      <point x="267.84188" y="0.54411"/>
      <point x="267.84188" y="44.40358" type="curve"/>
    </contour>
    <contour>
      <point x="410.53019" y="552.82577" type="curve" smooth="yes"/>
      <point x="493.44035210001" y="552.82577"/>
      <point x="560.5279300170229" y="503.69925499046747"/>
      <point x="560.7245864868164" y="443.1122360229492" type="curve"/>
      <point x="560.72502" y="382.66361"/>
      <point x="493.56216" y="333.39264"/>
      <point x="410.53019" y="333.39264" type="curve" smooth="yes"/>
      <point x="327.61986183605" y="333.39264"/>
      <point x="260.5321812384806" y="382.5193518044876"/>
      <point x="260.3357925415039" y="443.10618591308594" type="curve"/>
      <point x="260.33536" y="503.5548"/>
      <point x="327.49822" y="552.82577"/>
    </contour>
  </outline>
</glyph>
<glyph name="diaeresis" format="2">
  <advance width="770.7863390928728"/>
  <unicode hex="00A8"/>
  <anchor x="385.39316954643635" y="1468.77295973465" name="above" identifier="above"/>
  <outline>
    <contour>
      <point x="334.07446" y="1309.78325" type="curve" smooth="yes"/>
      <point x="334.07446" y="1376.93359"/>
      <point x="279.5569" y="1431.45115"/>
      <point x="212.40656" y="1431.45115" type="curve" smooth="yes"/>
      <point x="145.25622" y="1431.45115"/>
      <point x="90.73866" y="1376.93359"/>
      <point x="90.73866" y="1309.78325" type="curve" smooth="yes"/>
      <point x="90.73866" y="1242.6329"/>
      <point x="145.25622" y="1188.11535"/>
      <point x="212.40656" y="1188.11535" type="curve" smooth="yes"/>
      <point x="279.5569" y="1188.11535"/>
      <point x="334.07446" y="1242.6329"/>
    </contour>
    <contour>
      <point x="680.04768" y="1309.78325" type="curve" smooth="yes"/>
      <point x="680.04768" y="1376.93359"/>
      <point x="625.53012" y="1431.45115"/>
      <point x="558.37978" y="1431.45115" type="curve" smooth="yes"/>
      <point x="491.22944" y="1431.45115"/>
      <point x="436.71188" y="1376.93359"/>
      <point x="436.71188" y="1309.78325" type="curve" smooth="yes"/>
      <point x="436.71188" y="1242.6329"/>
      <point x="491.22944" y="1188.11535"/>
      <point x="558.37978" y="1188.11535" type="curve" smooth="yes"/>
      <point x="625.53012" y="1188.11535"/>
      <point x="680.04768" y="1242.6329"/>
    </contour>
  </outline>
</glyph>
<glyph name="copyright" format="2">
  <advance width="1216.3058210251957"/>
  <unicode hex="00A9"/>
  <anchor x="608.1529105125976" y="892.2481537793224" name="above" identifier="above"/>
  <anchor x="608.1529105125976" y="187.75184622067775" name="below" identifier="below"/>
  <anchor x="608.1529105125976" y="244.05071676802788" name="cedilla" identifier="cedilla"/>
  <outline>
    <contour>
      <point x="1148.15291" y="540.0" type="curve" smooth="yes"/>
      <point x="1148.15291" y="838.03411"/>
      <point x="906.18702" y="1080.0"/>
      <point x="608.15291" y="1080.0" type="curve" smooth="yes"/>
      <point x="310.1188" y="1080.0"/>
      <point x="68.15291" y="838.03411"/>
      <point x="68.15291" y="540.0" type="curve" smooth="yes"/>
      <point x="68.15291" y="241.96589"/>
      <point x="310.1188" y="0.0"/>
      <point x="608.15291" y="0.0" type="curve" smooth="yes"/>
      <point x="906.18702" y="0.0"/>
      <point x="1148.15291" y="241.96589"/>
    </contour>
    <contour>
      <point x="1034.94683" y="540.0" type="curve" smooth="yes"/>
      <point x="1034.94683" y="304.44603"/>
      <point x="843.70688" y="113.20608"/>
      <point x="608.15291" y="113.20608" type="curve" smooth="yes"/>
      <point x="372.59894" y="113.20608"/>
      <point x="181.35899" y="304.44603"/>
      <point x="181.35899" y="540.0" type="curve" smooth="yes"/>
      <point x="181.35899" y="775.55397"/>
      <point x="372.59894" y="966.79392"/>
      <point x="608.15291" y="966.79392" type="curve" smooth="yes"/>
      <point x="843.70688" y="966.79392"/>
      <point x="1034.94683" y="775.55397"/>
    </contour>
    <contour>
      <point x="608.15291" y="377.33751" type="curve" smooth="yes"/>
      <point x="518.37704" y="377.33751"/>
      <point x="445.49042" y="450.22413"/>
      <point x="445.49042" y="540.0" type="curve" smooth="yes"/>
      <point x="445.49042" y="629.77587"/>
      <point x="518.37704" y="702.66249"/>
      <point x="608.15291" y="702.66249" type="curve" smooth="yes"/>
      <point x="673.15648" y="702.66249"/>
      <point x="729.30552" y="664.45022"/>
      <point x="755.34316" y="609.27272" type="curve"/>
      <point x="904.38365" y="609.27272" type="line"/>
      <point x="872.99275" y="743.82363"/>
      <point x="752.19895" y="844.1701"/>
      <point x="608.15291" y="844.1701" type="curve" smooth="yes"/>
      <point x="440.27687" y="844.1701"/>
      <point x="303.98281" y="707.87604"/>
      <point x="303.98281" y="540.0" type="curve" smooth="yes"/>
      <point x="303.98281" y="372.12396"/>
      <point x="440.27687" y="235.8299"/>
      <point x="608.15291" y="235.8299" type="curve" smooth="yes"/>
      <point x="752.19862" y="235.8299"/>
      <point x="872.99219" y="336.1759"/>
      <point x="904.38345" y="470.72727" type="curve"/>
      <point x="755.34323" y="470.72727" type="line"/>
      <point x="729.30567" y="415.54989"/>
      <point x="673.15657" y="377.33751"/>
    </contour>
  </outline>
</glyph>
<glyph name="ordinal_a" format="2">
  <advance width="700.3362107864377"/>
  <unicode hex="00AA"/>
  <outline>
    <contour>
      <point x="343.88363" y="730.1198" type="curve" smooth="yes"/>
      <point x="277.26637" y="730.1198"/>
      <point x="223.18161" y="784.20457"/>
      <point x="223.18161" y="850.82183" type="curve"/>
      <point x="223.18161" y="917.43909"/>
      <point x="277.26637" y="971.52386"/>
      <point x="343.88363" y="971.52386" type="curve" smooth="yes"/>
      <point x="410.5009" y="971.52386"/>
      <point x="464.58566" y="917.43909"/>
      <point x="464.58566" y="850.82183" type="curve"/>
      <point x="464.58566" y="784.20457"/>
      <point x="410.5009" y="730.1198"/>
    </contour>
    <contour>
      <point x="70.52268" y="410.58028" type="line"/>
      <point x="609.59755" y="410.58028" type="line"/>
      <point x="609.59755" y="528.19465" type="line"/>
      <point x="70.52268" y="528.19465" type="line"/>
    </contour>
    <contour>
      <point x="476.0562286376953" y="611.3751983642578" type="line"/>
      <point x="609.5975494384766" y="611.3751983642578" type="line"/>
      <point x="609.5975494384766" y="1090.2684631347656" type="line"/>
      <point x="476.0562286376953" y="1090.2684631347656" type="line"/>
      <point x="476.0562286376953" y="1034.596939086914" type="line"/>
      <point x="437.8792260821983" y="1075.9577753568797"/>
      <point x="384.30977337289" y="1101.24166"/>
      <point x="318.70306" y="1101.24166" type="curve" smooth="yes"/>
      <point x="180.4926" y="1101.24166"/>
      <point x="70.52268" y="989.03229"/>
      <point x="70.52268" y="850.82183" type="curve"/>
      <point x="70.52268" y="712.61136"/>
      <point x="180.4926" y="600.40199"/>
      <point x="318.70306" y="600.40199" type="curve" smooth="yes"/>
      <point x="384.30977337289" y="600.40199"/>
      <point x="437.87922608219833" y="625.6858746431202"/>
      <point x="476.0562286376953" y="667.05322265625" type="curve"/>
    </contour>
  </outline>
</glyph>
<glyph name="ordinalfeminine" format="2">
  <advance width="632.4690073848826"/>
  <unicode hex="00AA"/>
  <outline>
    <contour>
      <point x="401.85765075683594" y="642.9263687133789" type="line"/>
      <point x="536.1666564941406" y="642.9263687133789" type="line"/>
      <point x="536.1666564941406" y="1086.8791732788086" type="line"/>
      <point x="401.85765075683594" y="1086.8791732788086" type="line"/>
      <point x="401.85765075683594" y="1074.1343383789062" type="line"/>
      <point x="372.6873613040196" y="1087.5338633689316"/>
      <point x="340.24342069788" y="1095.0"/>
      <point x="306.06943" y="1095.0" type="curve" smooth="yes"/>
      <point x="179.07531" y="1095.0"/>
      <point x="75.9722" y="991.89689"/>
      <point x="75.9722" y="864.90277" type="curve" smooth="yes"/>
      <point x="75.9722" y="737.90865"/>
      <point x="179.07531" y="634.80554"/>
      <point x="306.06943" y="634.80554" type="curve" smooth="yes"/>
      <point x="340.24342069788" y="634.80554"/>
      <point x="372.6873613040196" y="642.2716766310683"/>
      <point x="401.85765075683594" y="655.6751022338867" type="curve"/>
    </contour>
    <contour>
      <point x="401.85765" y="864.90277" type="curve" smooth="yes"/>
      <point x="401.85765" y="812.03581"/>
      <point x="358.93639" y="769.11455"/>
      <point x="306.06943" y="769.11455" type="curve" smooth="yes"/>
      <point x="253.20247" y="769.11455"/>
      <point x="210.28121" y="812.03581"/>
      <point x="210.28121" y="864.90277" type="curve" smooth="yes"/>
      <point x="210.28121" y="917.76973"/>
      <point x="253.20247" y="960.69099"/>
      <point x="306.06943" y="960.69099" type="curve" smooth="yes"/>
      <point x="358.93639" y="960.69099"/>
      <point x="401.85765" y="917.76973"/>
    </contour>
    <contour>
      <point x="75.9722" y="433.78282" type="line"/>
      <point x="536.16666" y="433.78282" type="line"/>
      <point x="536.16666" y="544.72734" type="line"/>
      <point x="75.9722" y="544.72734" type="line"/>
    </contour>
  </outline>
</glyph>
<glyph name="angledblleft" format="2">
  <advance width="1001.4317984362177"/>
  <unicode hex="00AB"/>
  <outline>
    <contour>
      <point x="905.1294555664062" y="226.9157257080078" type="line"/>
      <point x="699.1723022460938" y="493.0842742919922" type="line"/>
      <point x="905.1294555664062" y="759.2528228759766" type="line"/>
      <point x="678.5236129760742" y="759.2528228759766" type="line"/>
      <point x="472.56646728515625" y="493.0842742919922" type="line"/>
      <point x="678.5236129760742" y="226.9157257080078" type="line"/>
    </contour>
    <contour>
      <point x="528.8653335571289" y="226.9157257080078" type="line"/>
      <point x="322.9081802368164" y="493.0842742919922" type="line"/>
      <point x="528.8653335571289" y="759.2528228759766" type="line"/>
      <point x="302.2594985961914" y="759.2528228759766" type="line"/>
      <point x="96.3023452758789" y="493.0842742919922" type="line"/>
      <point x="302.2594985961914" y="226.9157257080078" type="line"/>
    </contour>
  </outline>
</glyph>
<glyph name="angleleft_dbl" format="2">
  <advance width="932.4751619870412"/>
  <unicode hex="00AB"/>
  <outline>
    <contour>
      <point x="411.49891662597656" y="493.3477325439453" type="line"/>
      <point x="635.841423034668" y="195.70868682861328" type="line"/>
      <point x="841.7365036010742" y="195.70868682861328" type="line"/>
      <point x="617.3939971923828" y="493.3477325439453" type="line"/>
      <point x="841.7365036010742" y="790.9867706298828" type="line"/>
      <point x="635.841423034668" y="790.9867706298828" type="line"/>
    </contour>
    <contour>
      <point x="90.73866271972656" y="493.3477325439453" type="line"/>
      <point x="310.7057571411133" y="200.37391662597656" type="line"/>
      <point x="516.3110198974609" y="200.37391662597656" type="line"/>
      <point x="296.3439178466797" y="493.3477325439453" type="line"/>
      <point x="516.3110198974609" y="786.3215408325195" type="line"/>
      <point x="310.7057571411133" y="786.3215408325195" type="line"/>
    </contour>
  </outline>
</glyph>
<glyph name="logicalnot" format="2">
  <advance width="988.8896611642051"/>
  <unicode hex="00AC"/>
  <outline>
    <contour>
      <point x="95.19200897216797" y="403.4752426147461" type="line"/>
      <point x="714.4795837402344" y="403.4752426147461" type="line"/>
      <point x="714.4795837402344" y="0" type="line"/>
      <point x="893.6976470947266" y="0" type="line"/>
      <point x="893.6976470947266" y="582.6933135986328" type="line"/>
      <point x="95.19200897216797" y="582.6933135986328" type="line"/>
    </contour>
  </outline>
</glyph>
<glyph name="registered" format="2">
  <advance width="1228.0917926565876"/>
  <unicode hex="00AE"/>
  <outline>
    <contour>
      <point x="1165.34449" y="542.25972" type="curve" smooth="yes"/>
      <point x="1165.34449" y="846.52969"/>
      <point x="918.31587" y="1093.55832"/>
      <point x="614.0459" y="1093.55832" type="curve" smooth="yes"/>
      <point x="309.77592" y="1093.55832"/>
      <point x="62.7473" y="846.52969"/>
      <point x="62.7473" y="542.25972" type="curve" smooth="yes"/>
      <point x="62.7473" y="237.98974"/>
      <point x="309.77592" y="-9.03888"/>
      <point x="614.0459" y="-9.03888" type="curve" smooth="yes"/>
      <point x="918.31587" y="-9.03888"/>
      <point x="1165.34449" y="237.98974"/>
    </contour>
    <contour>
      <point x="524.4288024902344" y="690.0368499755859" type="line"/>
      <point x="663.8324150516738" y="690.0368499755859" type="line"/>
      <point x="719.4414659257721" y="690.0368499755859"/>
      <point x="735.896" y="650.6993478869186"/>
      <point x="735.896" y="626.12028" type="curve" smooth="yes"/>
      <point x="735.896" y="601.5412109042039"/>
      <point x="719.4414643097826" y="562.2037092076146"/>
      <point x="663.8324139119132" y="562.2037101360156" type="curve"/>
      <point x="524.4288024902344" y="562.2037124633789" type="line"/>
    </contour>
    <contour>
      <point x="377.3062286376953" y="255.70291137695312" type="line"/>
      <point x="524.4288024902344" y="255.70291137695312" type="line"/>
      <point x="524.4288024902344" y="429.68119049072266" type="line"/>
      <point x="629.6374740600586" y="429.68119049072266" type="line"/>
      <point x="739.7868728637695" y="255.70291137695312" type="line"/>
      <point x="894.8914413452148" y="255.70291137695312" type="line"/>
      <point x="822.4876930617161" y="184.72591668907623"/>
      <point x="723.3396279680001" y="140.94168"/>
      <point x="614.0459" y="140.94168" type="curve" smooth="yes"/>
      <point x="392.55245" y="140.94168"/>
      <point x="212.72786" y="320.76627"/>
      <point x="212.72786" y="542.25972" type="curve" smooth="yes"/>
      <point x="212.72786" y="763.75317"/>
      <point x="392.55245" y="943.57775"/>
      <point x="614.0459" y="943.57775" type="curve" smooth="yes"/>
      <point x="835.53935" y="943.57775"/>
      <point x="1015.36393" y="763.75317"/>
      <point x="1015.36393" y="542.25972" type="curve" smooth="yes"/>
      <point x="1015.36393" y="434.649342252"/>
      <point x="972.9180452174924" y="336.87450328617564"/>
      <point x="903.8695983886719" y="264.7880554199219" type="curve"/>
      <point x="781.8173904418945" y="455.16505432128906" type="line"/>
      <point x="845.3715113657482" y="487.68028837660006"/>
      <point x="888.0243" y="549.35636516384"/>
      <point x="888.0243" y="628.50396" type="curve" smooth="yes"/>
      <point x="888.0243" y="722.7145465826266"/>
      <point x="825.4092568457332" y="828.8165308745761"/>
      <point x="651.97943" y="828.8165298859965" type="curve"/>
      <point x="377.3062286376953" y="828.8165283203125" type="line"/>
    </contour>
  </outline>
</glyph>
<glyph name="macron" format="2">
  <advance width="749.3471922246222"/>
  <unicode hex="00AF"/>
  <anchor x="374.67359611231103" y="1501.2032578108037" name="above" identifier="above"/>
  <outline>
    <contour>
      <point x="90.73866" y="1230.32868" type="line"/>
      <point x="658.60853" y="1230.32868" type="line"/>
      <point x="658.60853" y="1389.23782" type="line"/>
      <point x="90.73866" y="1389.23782" type="line"/>
    </contour>
  </outline>
</glyph>
<glyph name="degree" format="2">
  <advance width="683.9017003847586"/>
  <unicode hex="00B0"/>
  <outline>
    <contour>
      <point x="615.74879" y="821.20206" type="curve" smooth="yes"/>
      <point x="615.74879" y="972.31526"/>
      <point x="493.06405" y="1095.0"/>
      <point x="341.95085" y="1095.0" type="curve" smooth="yes"/>
      <point x="190.83765" y="1095.0"/>
      <point x="68.15291" y="972.31526"/>
      <point x="68.15291" y="821.20206" type="curve" smooth="yes"/>
      <point x="68.15291" y="670.08886"/>
      <point x="190.83765" y="547.40412"/>
      <point x="341.95085" y="547.40412" type="curve" smooth="yes"/>
      <point x="493.06405" y="547.40412"/>
      <point x="615.74879" y="670.08886"/>
    </contour>
    <contour>
      <point x="447.21743" y="821.20206" type="curve" smooth="yes"/>
      <point x="447.21743" y="763.10386"/>
      <point x="400.04905" y="715.93548"/>
      <point x="341.95085" y="715.93548" type="curve" smooth="yes"/>
      <point x="283.85265" y="715.93548"/>
      <point x="236.68427" y="763.10386"/>
      <point x="236.68427" y="821.20206" type="curve" smooth="yes"/>
      <point x="236.68427" y="879.30026"/>
      <point x="283.85265" y="926.46864"/>
      <point x="341.95085" y="926.46864" type="curve" smooth="yes"/>
      <point x="400.04905" y="926.46864"/>
      <point x="447.21743" y="879.30026"/>
    </contour>
  </outline>
</glyph>
<glyph name="plusminus" format="2">
  <advance width="906.6620330147697"/>
  <unicode hex="00B1"/>
  <outline>
    <contour>
      <point x="363.7219772338867" y="242.710693359375" type="line"/>
      <point x="542.9400482177734" y="242.710693359375" type="line"/>
      <point x="542.9400482177734" y="510.1303176879883" type="line"/>
      <point x="810.3596878051758" y="510.1303176879883" type="line"/>
      <point x="810.3596878051758" y="689.348388671875" type="line"/>
      <point x="542.9400482177734" y="689.348388671875" type="line"/>
      <point x="542.9400482177734" y="956.7680282592773" type="line"/>
      <point x="363.7219772338867" y="956.7680282592773" type="line"/>
      <point x="363.7219772338867" y="689.348388671875" type="line"/>
      <point x="96.30235290527344" y="689.348388671875" type="line"/>
      <point x="96.30235290527344" y="510.1303176879883" type="line"/>
      <point x="363.7219772338867" y="510.1303176879883" type="line"/>
    </contour>
    <contour>
      <point x="96.30235" y="29.40052" type="line"/>
      <point x="810.35969" y="29.40052" type="line"/>
      <point x="810.35969" y="208.61859" type="line"/>
      <point x="96.30235" y="208.61859" type="line"/>
    </contour>
  </outline>
</glyph>
<glyph name="sup_two" format="2">
  <advance width="667.0178534193869"/>
  <unicode hex="00B2"/>
  <outline>
    <contour>
      <point x="105.66783905029297" y="376.92237854003906" type="line"/>
      <point x="576.5241165161133" y="376.92237854003906" type="line"/>
      <point x="576.5241165161133" y="520.2445602416992" type="line"/>
      <point x="325.9604034423828" y="520.2445602416992" type="line"/>
      <point x="461.7449711861316" y="636.5717687718127" type="line"/>
      <point x="521.3570929339821" y="687.641723426538"/>
      <point x="576.52412" y="747.0741318795637"/>
      <point x="576.52412" y="846.04383" type="curve"/>
      <point x="576.52412" y="979.3661"/>
      <point x="468.2833499999999" y="1087.60687"/>
      <point x="334.96108" y="1087.60687" type="curve" smooth="yes"/>
      <point x="201.63881" y="1087.60687"/>
      <point x="93.39804" y="979.3661"/>
      <point x="93.39804" y="846.04383" type="curve"/>
      <point x="236.72022247314453" y="846.043830871582" type="line"/>
      <point x="236.72022" y="900.26444"/>
      <point x="280.74048" y="944.28469"/>
      <point x="334.96108" y="944.28469" type="curve" smooth="yes"/>
      <point x="389.18168" y="944.28469"/>
      <point x="433.20194" y="900.26444"/>
      <point x="433.20194" y="846.04383" type="curve"/>
      <point x="433.20194" y="803.4317068455142"/>
      <point x="407.671373183226" y="778.9722356239691"/>
      <point x="380.185787363153" y="755.4252206985834" type="curve"/>
      <point x="105.66783905029297" y="520.2445602416992" type="line"/>
    </contour>
  </outline>
</glyph>
<glyph name="sup_three" format="2">
  <advance width="678.2724146704729"/>
  <unicode hex="00B3"/>
  <outline>
    <contour>
      <point x="86.28080749511719" y="580.3502426147461" type="line"/>
      <point x="86.28081" y="454.70122"/>
      <point x="198.76136" y="354.11156"/>
      <point x="340.62141" y="354.11156" type="curve" smooth="yes"/>
      <point x="482.48146" y="354.11156"/>
      <point x="594.962" y="454.70122"/>
      <point x="594.962" y="580.35024" type="curve"/>
      <point x="594.962" y="641.64220890306"/>
      <point x="568.1970567753696" y="696.9712611985349"/>
      <point x="524.3131332397461" y="737.5570755004883" type="curve"/>
      <point x="561.040840742419" y="775.4202243436232"/>
      <point x="583.0804099999999" y="824.9689234397799"/>
      <point x="583.08041" y="879.4515999999999" type="curve"/>
      <point x="583.08041" y="999.52678"/>
      <point x="476.0289" y="1095.63645"/>
      <point x="340.62141" y="1095.63645" type="curve" smooth="yes"/>
      <point x="205.21391" y="1095.63645"/>
      <point x="98.16241" y="999.52678"/>
      <point x="98.16241" y="879.4516" type="curve"/>
      <point x="241.48458862304688" y="879.4515991210938" type="line"/>
      <point x="241.48459" y="919.60007"/>
      <point x="285.81173" y="952.31427"/>
      <point x="340.62141" y="952.31427" type="curve" smooth="yes"/>
      <point x="395.4310799999999" y="952.31427"/>
      <point x="439.75822" y="919.60007"/>
      <point x="439.75822" y="879.4516" type="curve"/>
      <point x="439.75822" y="834.4014680878355"/>
      <point x="389.56910397681276" y="806.5889312140042"/>
      <point x="323.40354326222507" y="806.5889295729612" type="curve"/>
      <point x="268.96031188964844" y="806.5889282226562" type="line"/>
      <point x="268.96031188964844" y="663.2667388916016" type="line"/>
      <point x="321.65644715637586" y="663.2667388916016" type="line"/>
      <point x="384.899112705462" y="663.2667388916016"/>
      <point x="451.63982" y="637.6763248517962"/>
      <point x="451.63982" y="580.35024" type="curve"/>
      <point x="451.63982" y="534.65807"/>
      <point x="401.9818899999999" y="497.43375"/>
      <point x="340.62141" y="497.43375" type="curve" smooth="yes"/>
      <point x="279.26093" y="497.43375"/>
      <point x="229.603" y="534.65807"/>
      <point x="229.603" y="580.35024" type="curve"/>
    </contour>
  </outline>
</glyph>
<glyph name="acute" format="2">
  <advance width="491.39644553737315"/>
  <unicode hex="00B4"/>
  <outline>
    <contour>
      <point x="95.19201" y="1196.76151" type="line"/>
      <point x="239.33152" y="1196.76151" type="line"/>
      <point x="396.20444" y="1474.03345" type="line"/>
      <point x="252.06492" y="1474.03345" type="line"/>
    </contour>
  </outline>
</glyph>
<glyph name="micron" format="2">
  <advance width="930.1004319654428"/>
  <unicode hex="00B5"/>
  <outline>
    <contour>
      <point x="90.73866271972656" y="-346.3201904296875" type="line"/>
      <point x="271.01393127441406" y="-346.3201904296875" type="line"/>
      <point x="271.01393127441406" y="85.56757354736328" type="line"/>
      <point x="312.8505053167817" y="22.245401124922367"/>
      <point x="377.08297871979994" y="-16.722219999999954"/>
      <point x="468.19564" y="-16.722219999999965" type="curve" smooth="yes"/>
      <point x="566.46575809468" y="-16.72222"/>
      <point x="631.8920186947418" y="29.0320786268352"/>
      <point x="671.668212890625" y="101.9306411743164" type="curve"/>
      <point x="671.668212890625" y="0" type="line"/>
      <point x="839.3617706298828" y="0" type="line"/>
      <point x="839.3617706298828" y="824.6881713867188" type="line"/>
      <point x="659.0865020751953" y="824.6881713867188" type="line"/>
      <point x="659.0865020751953" y="366.4055862426758" type="line"/>
      <point x="659.0865020751953" y="203.64927841217468"/>
      <point x="542.2016389377916" y="152.3693"/>
      <point x="465.05022" y="152.3693" type="curve" smooth="yes"/>
      <point x="387.8988004162607" y="152.3693"/>
      <point x="271.0139296196168" y="203.64928084885398"/>
      <point x="271.0139300532913" y="366.40559" type="curve"/>
      <point x="271.01393127441406" y="824.6881713867188" type="line"/>
      <point x="90.73866271972656" y="824.6881713867188" type="line"/>
    </contour>
  </outline>
</glyph>
<glyph name="mu" format="2">
  <advance width="928.8688097306687"/>
  <unicode hex="00B5"/>
  <outline>
    <contour>
      <point x="96.30235290527344" y="-185.71428680419922" type="line"/>
      <point x="275.5204162597656" y="-185.71428680419922" type="line"/>
      <point x="275.5204162597656" y="33.278045654296875" type="line"/>
      <point x="328.4121360963266" y="2.5787182801134385"/>
      <point x="389.84131190986" y="-15.000000000000014"/>
      <point x="455.34381999999994" y="-15.000000000000014" type="curve" smooth="yes"/>
      <point x="551.17001840002" y="-15.0"/>
      <point x="638.2785051888765" y="22.621825584919755"/>
      <point x="702.6918258666992" y="83.90043640136719" type="curve"/>
      <point x="754.4034849255495" y="23.378885609778962"/>
      <point x="831.2625578983001" y="-15.000000000000028"/>
      <point x="917.01477" y="-15.0" type="curve"/>
      <point x="917.0147705078125" y="164.21807098388672" type="line"/>
      <point x="878.8523994000195" y="164.2180703210049"/>
      <point x="814.3852896703957" y="181.5003393026854"/>
      <point x="814.3852901010395" y="293.0105414387595" type="curve"/>
      <point x="814.3852920532227" y="798.5056533813477" type="line"/>
      <point x="635.1672210693359" y="798.5056533813477" type="line"/>
      <point x="635.1672210693359" y="384.0414733886719" type="line"/>
      <point x="635.1672210693359" y="185.30590861257124"/>
      <point x="509.8947355626826" y="164.21807"/>
      <point x="455.34382" y="164.21807" type="curve" smooth="yes"/>
      <point x="400.79290443731736" y="164.21807"/>
      <point x="275.52042130639165" y="185.30590522389937"/>
      <point x="275.5204196708005" y="384.04147" type="curve"/>
      <point x="275.5204162597656" y="798.5056533813477" type="line"/>
      <point x="96.30235290527344" y="798.5056533813477" type="line"/>
    </contour>
  </outline>
</glyph>
<glyph name="pilcrow" format="2">
  <advance width="919.7261048303637"/>
  <unicode hex="00B6"/>
  <outline>
    <contour>
      <point x="403.7948226928711" y="-204.28571319580078" type="line"/>
      <point x="576.3009796142578" y="-204.28571319580078" type="line"/>
      <point x="576.3009796142578" y="917.0363311767578" type="line"/>
      <point x="670.1886596679688" y="917.0363311767578" type="line"/>
      <point x="670.1886596679688" y="-204.28571319580078" type="line"/>
      <point x="842.9831237792969" y="-204.28571319580078" type="line"/>
      <point x="842.9831237792969" y="1084.5194396972656" type="line"/>
      <point x="423.7948226928711" y="1084.5194396972656" type="line"/>
      <point x="188.5750893326839" y="1084.5194396972656"/>
      <point x="72.07775000000001" y="911.4582195087025"/>
      <point x="72.07775" y="752.80238" type="curve" smooth="yes"/>
      <point x="72.07775000000001" y="569.7227499999999"/>
      <point x="220.71518999999992" y="421.08531"/>
      <point x="403.79482" y="421.08531" type="curve"/>
    </contour>
  </outline>
</glyph>
<glyph name="interpunct" format="2">
  <advance width="411.23197219808867"/>
  <unicode hex="00B7"/>
  <outline>
    <contour>
      <point x="329.00434" y="485.58427" type="curve" smooth="yes"/>
      <point x="329.00434" y="553.68416"/>
      <point x="273.71587" y="608.97263"/>
      <point x="205.61599" y="608.97263" type="curve" smooth="yes"/>
      <point x="137.5161" y="608.97263"/>
      <point x="82.22763" y="553.68416"/>
      <point x="82.22763" y="485.58427" type="curve" smooth="yes"/>
      <point x="82.22763" y="417.48439"/>
      <point x="137.5161" y="362.19592"/>
      <point x="205.61599" y="362.19592" type="curve" smooth="yes"/>
      <point x="273.71587" y="362.19592"/>
      <point x="329.00434" y="417.48439"/>
    </contour>
  </outline>
</glyph>
<glyph name="cedilla" format="2">
  <advance width="451.9313640312771"/>
  <unicode hex="00B8"/>
  <outline>
    <contour>
      <point x="124.95221710205078" y="-120.29192352294922" type="line"/>
      <point x="182.12009815964458" y="-120.29192352294922" type="line"/>
      <point x="217.77746939597273" y="-120.29192352294922"/>
      <point x="231.28671" y="-144.31687955534085"/>
      <point x="231.28671" y="-163.90009" type="curve" smooth="yes"/>
      <point x="231.28671" y="-183.4832992493972"/>
      <point x="217.7774687485736" y="-207.5082508541243"/>
      <point x="182.12009692686243" y="-207.50824984226676" type="curve"/>
      <point x="95.19200897216797" y="-207.50824737548828" type="line"/>
      <point x="95.19200897216797" y="-332.96089935302734" type="line"/>
      <point x="167.6785430908203" y="-332.96089935302734" type="line"/>
      <point x="307.6222445824174" y="-332.96089935302734"/>
      <point x="356.73936" y="-238.61836681233618"/>
      <point x="356.73936" y="-163.90009" type="curve" smooth="yes"/>
      <point x="356.73936" y="-92.7514762308"/>
      <point x="312.6934213561635" y="-31.80917060342143"/>
      <point x="250.40486907958984" y="-6.888999938964844" type="curve"/>
      <point x="250.40486907958984" y="89.60903930664062" type="line"/>
      <point x="124.95221710205078" y="89.60903930664062" type="line"/>
    </contour>
  </outline>
</glyph>
<glyph name="sup_one" format="2">
  <advance width="574.6800009308675"/>
  <unicode hex="00B9"/>
  <outline>
    <contour>
      <point x="258.9354476928711" y="365.80364990234375" type="line"/>
      <point x="402.2576370239258" y="365.80364990234375" type="line"/>
      <point x="402.2576370239258" y="1083.9443664550781" type="line"/>
      <point x="258.9354476928711" y="1083.9443664550781" type="line"/>
      <point x="115.98480224609375" y="1001.4117736816406" type="line"/>
      <point x="115.98480224609375" y="835.9175567626953" type="line"/>
      <point x="258.9354476928711" y="918.4501571655273" type="line"/>
    </contour>
  </outline>
</glyph>
<glyph name="ordinal_o" format="2">
  <advance width="678.9981809443085"/>
  <unicode hex="00BA"/>
  <outline>
    <contour>
      <point x="339.49909" y="970.08425" type="curve"/>
      <point x="405.32181" y="970.08425"/>
      <point x="458.76151" y="916.64455"/>
      <point x="458.76151" y="850.82183" type="curve"/>
      <point x="458.76151" y="784.99911"/>
      <point x="405.32181" y="731.55941"/>
      <point x="339.49909" y="731.55941" type="curve"/>
      <point x="273.67637" y="731.55941"/>
      <point x="220.23667" y="784.99911"/>
      <point x="220.23667" y="850.82183" type="curve"/>
      <point x="220.23667" y="916.64455"/>
      <point x="273.67637" y="970.08425"/>
    </contour>
    <contour>
      <point x="70.52268" y="410.58028" type="line"/>
      <point x="608.4755" y="410.58028" type="line"/>
      <point x="608.4755" y="528.19465" type="line"/>
      <point x="70.52268" y="528.19465" type="line"/>
    </contour>
    <contour>
      <point x="339.49909" y="1101.24166" type="curve"/>
      <point x="191.00284" y="1101.24166"/>
      <point x="70.52268" y="990.26681"/>
      <point x="70.52268" y="850.82183" type="curve"/>
      <point x="70.52268" y="711.37685"/>
      <point x="191.00284" y="600.40199"/>
      <point x="339.49909" y="600.40199" type="curve"/>
      <point x="487.99534" y="600.40199"/>
      <point x="608.4755" y="711.37685"/>
      <point x="608.4755" y="850.82183" type="curve"/>
      <point x="608.4755" y="990.26681"/>
      <point x="487.99534" y="1101.24166"/>
    </contour>
  </outline>
</glyph>
<glyph name="ordinalmasculine" format="2">
  <advance width="612.1388596872284"/>
  <unicode hex="00BA"/>
  <outline>
    <contour>
      <point x="536.16666" y="864.90277" type="curve" smooth="yes"/>
      <point x="536.16666" y="991.89689"/>
      <point x="433.06355" y="1095.0"/>
      <point x="306.06943" y="1095.0" type="curve" smooth="yes"/>
      <point x="179.07531" y="1095.0"/>
      <point x="75.9722" y="991.89689"/>
      <point x="75.9722" y="864.90277" type="curve" smooth="yes"/>
      <point x="75.9722" y="737.90865"/>
      <point x="179.07531" y="634.80554"/>
      <point x="306.06943" y="634.80554" type="curve" smooth="yes"/>
      <point x="433.06355" y="634.80554"/>
      <point x="536.16666" y="737.90865"/>
    </contour>
    <contour>
      <point x="401.85765" y="864.90277" type="curve" smooth="yes"/>
      <point x="401.85765" y="812.03581"/>
      <point x="358.93639" y="769.11455"/>
      <point x="306.06943" y="769.11455" type="curve" smooth="yes"/>
      <point x="253.20247" y="769.11455"/>
      <point x="210.28121" y="812.03581"/>
      <point x="210.28121" y="864.90277" type="curve" smooth="yes"/>
      <point x="210.28121" y="917.76973"/>
      <point x="253.20247" y="960.69099"/>
      <point x="306.06943" y="960.69099" type="curve" smooth="yes"/>
      <point x="358.93639" y="960.69099"/>
      <point x="401.85765" y="917.76973"/>
    </contour>
    <contour>
      <point x="75.9722" y="433.78282" type="line"/>
      <point x="536.16666" y="433.78282" type="line"/>
      <point x="536.16666" y="544.72734" type="line"/>
      <point x="75.9722" y="544.72734" type="line"/>
    </contour>
  </outline>
</glyph>
<glyph name="angleright_dbl" format="2">
  <advance width="927.8099352051838"/>
  <unicode hex="00BB"/>
  <outline>
    <contour>
      <point x="520.9762420654297" y="493.3477325439453" type="line"/>
      <point x="296.6337432861328" y="790.9867706298828" type="line"/>
      <point x="90.73866271972656" y="790.9867706298828" type="line"/>
      <point x="315.08116912841797" y="493.3477325439453" type="line"/>
      <point x="90.73866271972656" y="195.70868682861328" type="line"/>
      <point x="296.6337432861328" y="195.70868682861328" type="line"/>
    </contour>
    <contour>
      <point x="837.0712738037109" y="493.3477325439453" type="line"/>
      <point x="617.1041793823242" y="786.3215408325195" type="line"/>
      <point x="411.49891662597656" y="786.3215408325195" type="line"/>
      <point x="631.4660186767578" y="493.3477325439453" type="line"/>
      <point x="411.49891662597656" y="200.37391662597656" type="line"/>
      <point x="617.1041793823242" y="200.37391662597656" type="line"/>
    </contour>
  </outline>
</glyph>
<glyph name="one_over_four" format="2">
  <advance width="1447.0638639286933"/>
  <unicode hex="00BC"/>
  <outline>
    <contour>
      <point x="246.1666" y="0.0" type="line"/>
      <point x="425.69087" y="0.0" type="line"/>
      <point x="1239.52924" y="1080.0" type="line"/>
      <point x="1060.00497" y="1080.0" type="line"/>
    </contour>
    <contour>
      <point x="232.97522735595703" y="376.92237854003906" type="line"/>
      <point x="376.2974090576172" y="376.92237854003906" type="line"/>
      <point x="376.2974090576172" y="1077.871467590332" type="line"/>
      <point x="232.97522735595703" y="1077.871467590332" type="line"/>
      <point x="91.61077117919922" y="996.2546615600586" type="line"/>
      <point x="91.61077117919922" y="830.7604598999023" type="line"/>
      <point x="232.97522735595703" y="912.3772583007812" type="line"/>
    </contour>
    <contour>
      <point x="1000.5882568359375" y="250.89830780029297" type="line"/>
      <point x="1151.3663864135742" y="457.6848831176758" type="line"/>
      <point x="1151.3663864135742" y="250.89830780029297" type="line"/>
    </contour>
    <contour>
      <point x="823.2125015258789" y="107.57613372802734" type="line"/>
      <point x="1151.3663864135742" y="107.57613372802734" type="line"/>
      <point x="1151.3663864135742" y="0" type="line"/>
      <point x="1294.6885833740234" y="0" type="line"/>
      <point x="1294.6885833740234" y="107.57613372802734" type="line"/>
      <point x="1397.6772384643555" y="107.57613372802734" type="line"/>
      <point x="1397.6772384643555" y="250.89830780029297" type="line"/>
      <point x="1294.6885833740234" y="250.89830780029297" type="line"/>
      <point x="1294.6885833740234" y="700.949089050293" type="line"/>
      <point x="1151.3663864135742" y="700.949089050293" type="line"/>
      <point x="823.2125015258789" y="250.89830780029297" type="line"/>
    </contour>
  </outline>
</glyph>
<glyph name="one_over_two" format="2">
  <advance width="1519.9302391303813"/>
  <unicode hex="00BD"/>
  <outline>
    <contour>
      <point x="246.1666" y="0.0" type="line"/>
      <point x="425.69087" y="0.0" type="line"/>
      <point x="1239.52924" y="1080.0" type="line"/>
      <point x="1060.00497" y="1080.0" type="line"/>
    </contour>
    <contour>
      <point x="232.97522735595703" y="376.92237854003906" type="line"/>
      <point x="376.2974090576172" y="376.92237854003906" type="line"/>
      <point x="376.2974090576172" y="1077.871467590332" type="line"/>
      <point x="232.97522735595703" y="1077.871467590332" type="line"/>
      <point x="91.61077117919922" y="996.2546615600586" type="line"/>
      <point x="91.61077117919922" y="830.7604598999023" type="line"/>
      <point x="232.97522735595703" y="912.3772583007812" type="line"/>
    </contour>
    <contour>
      <point x="962.1547622680664" y="0" type="line"/>
      <point x="1433.0110397338867" y="0" type="line"/>
      <point x="1433.0110397338867" y="143.3221893310547" type="line"/>
      <point x="1182.4473190307617" y="143.3221893310547" type="line"/>
      <point x="1318.2318931244013" y="259.64939172529256" type="line"/>
      <point x="1377.8440173831752" y="310.71934344910704"/>
      <point x="1433.01104" y="370.1517618795637"/>
      <point x="1433.01104" y="469.12146" type="curve"/>
      <point x="1433.01104" y="602.44373"/>
      <point x="1324.77027" y="710.6845"/>
      <point x="1191.448" y="710.6845" type="curve" smooth="yes"/>
      <point x="1058.12573" y="710.6845"/>
      <point x="949.88496" y="602.44373"/>
      <point x="949.88496" y="469.12146" type="curve"/>
      <point x="1093.2071380615234" y="469.1214599609375" type="line"/>
      <point x="1093.20714" y="523.34206"/>
      <point x="1137.22739" y="567.36231"/>
      <point x="1191.448" y="567.36231" type="curve" smooth="yes"/>
      <point x="1245.6686" y="567.36231"/>
      <point x="1289.68885" y="523.34206"/>
      <point x="1289.68885" y="469.12146" type="curve"/>
      <point x="1289.68885" y="426.5093368455142"/>
      <point x="1264.1583044917961" y="402.04987542206993"/>
      <point x="1236.6727188415762" y="378.5028602984208" type="curve"/>
      <point x="962.1547622680664" y="143.3221893310547" type="line"/>
    </contour>
  </outline>
</glyph>
<glyph name="three_over_four" format="2">
  <advance width="1465.883099065841"/>
  <unicode hex="00BE"/>
  <outline>
    <contour>
      <point x="82.22763061523438" y="587.972053527832" type="line"/>
      <point x="82.22762814943528" y="466.11745010236035"/>
      <point x="194.37252739126768" y="367.18697092590304"/>
      <point x="332.50358973563357" y="367.18697092590304" type="curve" smooth="yes"/>
      <point x="470.63465207999946" y="367.18697092590304"/>
      <point x="582.779551321832" y="466.11745010236035"/>
      <point x="582.779551321832" y="587.972053203058" type="curve"/>
      <point x="582.779551321832" y="646.7360699845601"/>
      <point x="556.6988903108556" y="700.1688027836099"/>
      <point x="514.2004089355469" y="739.7287216186523" type="curve"/>
      <point x="549.7153500291925" y="776.5704580565056"/>
      <point x="571.1623240660298" y="824.347922624426"/>
      <point x="571.1623240660297" y="876.5209114164128" type="curve"/>
      <point x="571.1623240660296" y="993.0224237994029"/>
      <point x="464.2229298667687" y="1087.6068724090853"/>
      <point x="332.5035897356336" y="1087.6068724090853" type="curve" smooth="yes"/>
      <point x="200.78424960449846" y="1087.6068724090853"/>
      <point x="93.84485540523768" y="993.0224237994029"/>
      <point x="93.84485540523768" y="876.5209114164128" type="curve"/>
      <point x="237.1670379638672" y="876.5209121704102" type="line"/>
      <point x="237.16704046171031" y="913.9207571675161"/>
      <point x="279.88591623638524" y="944.2846873526127"/>
      <point x="332.5035897356336" y="944.2846873526127" type="curve" smooth="yes"/>
      <point x="385.121263234882" y="944.2846873526127"/>
      <point x="427.8401390095569" y="913.9207571675161"/>
      <point x="427.8401390095569" y="876.5209114164128" type="curve"/>
      <point x="427.8401390095569" y="839.1210656653096"/>
      <point x="385.121263234882" y="808.757135480213"/>
      <point x="332.5035897356336" y="808.757135480213" type="curve"/>
      <point x="260.8424987792969" y="808.7571334838867" type="line"/>
      <point x="260.8424987792969" y="665.4349517822266" type="line"/>
      <point x="332.5035934448242" y="665.4349517822266" type="line"/>
      <point x="391.53298544811275" y="665.4349504237404"/>
      <point x="439.45736626535927" y="630.7249896718689"/>
      <point x="439.45736626535927" y="587.9720532030581" type="curve"/>
      <point x="439.45736626535927" y="545.2191167342471"/>
      <point x="391.53298544811264" y="510.50915598237566"/>
      <point x="332.5035897356336" y="510.50915598237566" type="curve" smooth="yes"/>
      <point x="273.4741940231545" y="510.50915598237566"/>
      <point x="225.5498132059079" y="545.2191167342471"/>
      <point x="225.5498132059079" y="587.9720532030581" type="curve"/>
    </contour>
    <contour>
      <point x="264.98583157502793" y="0.0" type="line"/>
      <point x="444.51010164589934" y="0.0" type="line"/>
      <point x="1258.3484757569172" y="1080.0" type="line"/>
      <point x="1078.8242056860458" y="1080.0" type="line"/>
    </contour>
    <contour>
      <point x="1019.4074935913086" y="250.8983154296875" type="line"/>
      <point x="1170.1856307983398" y="457.68487548828125" type="line"/>
      <point x="1170.1856307983398" y="250.8983154296875" type="line"/>
    </contour>
    <contour>
      <point x="842.0317306518555" y="107.57612609863281" type="line"/>
      <point x="1170.1856307983398" y="107.57612609863281" type="line"/>
      <point x="1170.1856307983398" y="0" type="line"/>
      <point x="1313.5078125" y="0" type="line"/>
      <point x="1313.5078125" y="107.57612609863281" type="line"/>
      <point x="1416.4964752197266" y="107.57612609863281" type="line"/>
      <point x="1416.4964752197266" y="250.8983154296875" type="line"/>
      <point x="1313.5078125" y="250.8983154296875" type="line"/>
      <point x="1313.5078125" y="700.9490966796875" type="line"/>
      <point x="1170.1856307983398" y="700.9490966796875" type="line"/>
      <point x="842.0317306518555" y="250.8983154296875" type="line"/>
    </contour>
  </outline>
</glyph>
<glyph name="inv_question" format="2">
  <advance width="822.2137271937445"/>
  <unicode hex="00BF"/>
  <outline>
    <contour>
      <point x="287.71851" y="690.11729" type="curve" smooth="yes"/>
      <point x="287.71851" y="622.0174"/>
      <point x="343.00698" y="566.72893"/>
      <point x="411.10686" y="566.72893" type="curve" smooth="yes"/>
      <point x="479.20675" y="566.72893"/>
      <point x="534.49522" y="622.0174"/>
      <point x="534.49522" y="690.11729" type="curve" smooth="yes"/>
      <point x="534.49522" y="758.21718"/>
      <point x="479.20675" y="813.50565"/>
      <point x="411.10686" y="813.50565" type="curve" smooth="yes"/>
      <point x="343.00698" y="813.50565"/>
      <point x="287.71851" y="758.21718"/>
    </contour>
    <contour>
      <point x="500.7158966064453" y="476.3379669189453" type="line"/>
      <point x="321.4978332519531" y="476.3379669189453" type="line"/>
      <point x="321.4978332519531" y="377.55806732177734" type="line"/>
      <point x="175.61466604387653" y="338.1265167962185"/>
      <point x="68.15291" y="204.74355425984004"/>
      <point x="68.15291000000002" y="46.45960000000008" type="curve"/>
      <point x="68.15291" y="-142.82184"/>
      <point x="221.82543" y="-296.49435"/>
      <point x="411.10686" y="-296.49435" type="curve" smooth="yes"/>
      <point x="600.3883" y="-296.49435"/>
      <point x="754.06082" y="-142.82184"/>
      <point x="754.06082" y="46.4596" type="curve"/>
      <point x="574.8427505493164" y="46.45960235595703" type="line"/>
      <point x="574.84275" y="-43.90869"/>
      <point x="501.47516" y="-117.27628"/>
      <point x="411.10686" y="-117.27628" type="curve" smooth="yes"/>
      <point x="320.7385699999999" y="-117.27627999999999"/>
      <point x="247.37098" y="-43.90869000000004"/>
      <point x="247.37098" y="46.4596" type="curve"/>
      <point x="247.37098" y="120.80076158287483"/>
      <point x="296.2657065039471" y="210.19547955570224"/>
      <point x="431.10686" y="210.19548007737606" type="curve"/>
      <point x="500.7158966064453" y="210.1954803466797" type="line"/>
    </contour>
  </outline>
</glyph>
<glyph name="invertedquestion" format="2">
  <advance width="822.2137271937445"/>
  <unicode hex="00BF"/>
  <outline>
    <contour>
      <point x="287.7185056472633" y="690.1172893136403" type="curve" smooth="yes"/>
      <point x="287.7185056472633" y="622.0174012681147"/>
      <point x="343.0069755513467" y="566.7289313640313"/>
      <point x="411.10686359687236" y="566.7289313640313" type="curve" smooth="yes"/>
      <point x="479.2067516423979" y="566.7289313640313"/>
      <point x="534.4952215464814" y="622.0174012681147"/>
      <point x="534.4952215464814" y="690.1172893136403" type="curve" smooth="yes"/>
      <point x="534.4952215464814" y="758.2171773591658"/>
      <point x="479.206751642398" y="813.5056472632493"/>
      <point x="411.10686359687236" y="813.5056472632493" type="curve" smooth="yes"/>
      <point x="343.0069755513467" y="813.5056472632493"/>
      <point x="287.7185056472633" y="758.2171773591659"/>
    </contour>
    <contour>
      <point x="500.7158966064453" y="476.3379669189453" type="line"/>
      <point x="321.4978256225586" y="476.3379669189453" type="line"/>
      <point x="321.4978256225586" y="377.5580749511719" type="line"/>
      <point x="175.6146632059546" y="338.1265187186896"/>
      <point x="68.15291051259767" y="204.74355283085285"/>
      <point x="68.15291051259763" y="46.45960034752403" type="curve"/>
      <point x="68.15291051259769" y="-142.8218375280625"/>
      <point x="221.82542572128574" y="-296.4943527367506"/>
      <point x="411.10686359687224" y="-296.4943527367506" type="curve" smooth="yes"/>
      <point x="600.3883014724586" y="-296.4943527367506"/>
      <point x="754.0608166811468" y="-142.8218375280626"/>
      <point x="754.0608166811468" y="46.45960034752386" type="curve"/>
      <point x="574.8427429199219" y="46.45960235595703" type="line"/>
      <point x="574.8427454387489" y="-43.90869215395304"/>
      <point x="501.4751560983492" y="-117.2762814943527"/>
      <point x="411.10686359687224" y="-117.2762814943527" type="curve" smooth="yes"/>
      <point x="320.7385710953953" y="-117.2762814943527"/>
      <point x="247.37098175499563" y="-43.90869215395304"/>
      <point x="247.37098175499563" y="46.45960034752392" type="curve"/>
      <point x="247.37098175499563" y="136.82789284900088"/>
      <point x="320.7385710953953" y="210.19548218940054"/>
      <point x="411.10686359687224" y="210.19548218940054" type="curve"/>
      <point x="500.7158966064453" y="210.1954803466797" type="line"/>
    </contour>
  </outline>
</glyph>
